<?xml version="1.0" encoding="utf-8" standalone="no"?>
<!DOCTYPE svg PUBLIC "-//W3C//DTD SVG 1.1//EN"
  "http://www.w3.org/Graphics/SVG/1.1/DTD/svg11.dtd">
<svg xmlns:xlink="http://www.w3.org/1999/xlink" width="543.735246pt" height="371.53pt" viewBox="0 0 543.735246 371.53" xmlns="http://www.w3.org/2000/svg" version="1.1">
 <metadata>
  <rdf:RDF xmlns:dc="http://purl.org/dc/elements/1.1/" xmlns:cc="http://creativecommons.org/ns#" xmlns:rdf="http://www.w3.org/1999/02/22-rdf-syntax-ns#">
   <cc:Work>
    <dc:type rdf:resource="http://purl.org/dc/dcmitype/StillImage"/>
    <dc:date>2026-02-04T12:23:27.273733</dc:date>
    <dc:format>image/svg+xml</dc:format>
    <dc:creator>
     <cc:Agent>
      <dc:title>Matplotlib v3.9.4, https://matplotlib.org/</dc:title>
     </cc:Agent>
    </dc:creator>
   </cc:Work>
  </rdf:RDF>
 </metadata>
 <defs>
  <style type="text/css">*{stroke-linejoin: round; stroke-linecap: butt}</style>
 </defs>
 <g id="figure_1">
  <g id="patch_1">
   <path d="M 0 371.53 
L 543.735246 371.53 
L 543.735246 0 
L 0 0 
z
" style="fill: #ffffff"/>
  </g>
  <g id="axes_1">
   <g id="patch_2">
    <path d="M 77.478125 328.12 
L 532.926066 328.12 
L 532.926066 1.44 
L 77.478125 1.44 
z
" style="fill: #f3f4f6"/>
   </g>
   <g id="matplotlib.axis_1">
    <g id="xtick_1">
     <g id="line2d_1">
      <path d="M 77.478125 328.12 
L 77.478125 1.44 
" clip-path="url(#p5edac3f75d)" style="fill: none; stroke: #ffffff; stroke-width: 2; stroke-linecap: square"/>
     </g>
     <g id="line2d_2">
      <defs>
       <path id="m3421c0d83f" d="M 0 0 
L 0 3.5 
" style="stroke: #000000; stroke-width: 0.8"/>
      </defs>
      <g>
       <use xlink:href="#m3421c0d83f" x="77.478125" y="328.12" style="stroke: #000000; stroke-width: 0.8"/>
      </g>
     </g>
     <g id="text_1">
      <text style="font: 14px 'Times New Roman', 'Times', 'DejaVu Serif', serif; text-anchor: middle" x="77.478125" y="345.757812" transform="rotate(-0 77.478125 345.757812)">0.0M</text>
     </g>
    </g>
    <g id="xtick_2">
     <g id="line2d_3">
      <path d="M 122.129884 328.12 
L 122.129884 1.44 
" clip-path="url(#p5edac3f75d)" style="fill: none; stroke: #ffffff; stroke-width: 2; stroke-linecap: square"/>
     </g>
     <g id="line2d_4">
      <g>
       <use xlink:href="#m3421c0d83f" x="122.129884" y="328.12" style="stroke: #000000; stroke-width: 0.8"/>
      </g>
     </g>
     <g id="text_2">
      <text style="font: 14px 'Times New Roman', 'Times', 'DejaVu Serif', serif; text-anchor: middle" x="122.129884" y="345.757812" transform="rotate(-0 122.129884 345.757812)">0.5M</text>
     </g>
    </g>
    <g id="xtick_3">
     <g id="line2d_5">
      <path d="M 166.781643 328.12 
L 166.781643 1.44 
" clip-path="url(#p5edac3f75d)" style="fill: none; stroke: #ffffff; stroke-width: 2; stroke-linecap: square"/>
     </g>
     <g id="line2d_6">
      <g>
       <use xlink:href="#m3421c0d83f" x="166.781643" y="328.12" style="stroke: #000000; stroke-width: 0.8"/>
      </g>
     </g>
     <g id="text_3">
      <text style="font: 14px 'Times New Roman', 'Times', 'DejaVu Serif', serif; text-anchor: middle" x="166.781643" y="345.757812" transform="rotate(-0 166.781643 345.757812)">1.0M</text>
     </g>
    </g>
    <g id="xtick_4">
     <g id="line2d_7">
      <path d="M 211.433402 328.12 
L 211.433402 1.44 
" clip-path="url(#p5edac3f75d)" style="fill: none; stroke: #ffffff; stroke-width: 2; stroke-linecap: square"/>
     </g>
     <g id="line2d_8">
      <g>
       <use xlink:href="#m3421c0d83f" x="211.433402" y="328.12" style="stroke: #000000; stroke-width: 0.8"/>
      </g>
     </g>
     <g id="text_4">
      <text style="font: 14px 'Times New Roman', 'Times', 'DejaVu Serif', serif; text-anchor: middle" x="211.433402" y="345.757812" transform="rotate(-0 211.433402 345.757812)">1.5M</text>
     </g>
    </g>
    <g id="xtick_5">
     <g id="line2d_9">
      <path d="M 256.085161 328.12 
L 256.085161 1.44 
" clip-path="url(#p5edac3f75d)" style="fill: none; stroke: #ffffff; stroke-width: 2; stroke-linecap: square"/>
     </g>
     <g id="line2d_10">
      <g>
       <use xlink:href="#m3421c0d83f" x="256.085161" y="328.12" style="stroke: #000000; stroke-width: 0.8"/>
      </g>
     </g>
     <g id="text_5">
      <text style="font: 14px 'Times New Roman', 'Times', 'DejaVu Serif', serif; text-anchor: middle" x="256.085161" y="345.757812" transform="rotate(-0 256.085161 345.757812)">2.0M</text>
     </g>
    </g>
    <g id="xtick_6">
     <g id="line2d_11">
      <path d="M 300.73692 328.12 
L 300.73692 1.44 
" clip-path="url(#p5edac3f75d)" style="fill: none; stroke: #ffffff; stroke-width: 2; stroke-linecap: square"/>
     </g>
     <g id="line2d_12">
      <g>
       <use xlink:href="#m3421c0d83f" x="300.73692" y="328.12" style="stroke: #000000; stroke-width: 0.8"/>
      </g>
     </g>
     <g id="text_6">
      <text style="font: 14px 'Times New Roman', 'Times', 'DejaVu Serif', serif; text-anchor: middle" x="300.73692" y="345.757812" transform="rotate(-0 300.73692 345.757812)">2.5M</text>
     </g>
    </g>
    <g id="xtick_7">
     <g id="line2d_13">
      <path d="M 345.388679 328.12 
L 345.388679 1.44 
" clip-path="url(#p5edac3f75d)" style="fill: none; stroke: #ffffff; stroke-width: 2; stroke-linecap: square"/>
     </g>
     <g id="line2d_14">
      <g>
       <use xlink:href="#m3421c0d83f" x="345.388679" y="328.12" style="stroke: #000000; stroke-width: 0.8"/>
      </g>
     </g>
     <g id="text_7">
      <text style="font: 14px 'Times New Roman', 'Times', 'DejaVu Serif', serif; text-anchor: middle" x="345.388679" y="345.757812" transform="rotate(-0 345.388679 345.757812)">3.0M</text>
     </g>
    </g>
    <g id="xtick_8">
     <g id="line2d_15">
      <path d="M 390.040438 328.12 
L 390.040438 1.44 
" clip-path="url(#p5edac3f75d)" style="fill: none; stroke: #ffffff; stroke-width: 2; stroke-linecap: square"/>
     </g>
     <g id="line2d_16">
      <g>
       <use xlink:href="#m3421c0d83f" x="390.040438" y="328.12" style="stroke: #000000; stroke-width: 0.8"/>
      </g>
     </g>
     <g id="text_8">
      <text style="font: 14px 'Times New Roman', 'Times', 'DejaVu Serif', serif; text-anchor: middle" x="390.040438" y="345.757812" transform="rotate(-0 390.040438 345.757812)">3.5M</text>
     </g>
    </g>
    <g id="xtick_9">
     <g id="line2d_17">
      <path d="M 434.692197 328.12 
L 434.692197 1.44 
" clip-path="url(#p5edac3f75d)" style="fill: none; stroke: #ffffff; stroke-width: 2; stroke-linecap: square"/>
     </g>
     <g id="line2d_18">
      <g>
       <use xlink:href="#m3421c0d83f" x="434.692197" y="328.12" style="stroke: #000000; stroke-width: 0.8"/>
      </g>
     </g>
     <g id="text_9">
      <text style="font: 14px 'Times New Roman', 'Times', 'DejaVu Serif', serif; text-anchor: middle" x="434.692197" y="345.757812" transform="rotate(-0 434.692197 345.757812)">4.0M</text>
     </g>
    </g>
    <g id="xtick_10">
     <g id="line2d_19">
      <path d="M 479.343955 328.12 
L 479.343955 1.44 
" clip-path="url(#p5edac3f75d)" style="fill: none; stroke: #ffffff; stroke-width: 2; stroke-linecap: square"/>
     </g>
     <g id="line2d_20">
      <g>
       <use xlink:href="#m3421c0d83f" x="479.343955" y="328.12" style="stroke: #000000; stroke-width: 0.8"/>
      </g>
     </g>
     <g id="text_10">
      <text style="font: 14px 'Times New Roman', 'Times', 'DejaVu Serif', serif; text-anchor: middle" x="479.343955" y="345.757812" transform="rotate(-0 479.343955 345.757812)">4.5M</text>
     </g>
    </g>
    <g id="xtick_11">
     <g id="line2d_21">
      <path d="M 523.995714 328.12 
L 523.995714 1.44 
" clip-path="url(#p5edac3f75d)" style="fill: none; stroke: #ffffff; stroke-width: 2; stroke-linecap: square"/>
     </g>
     <g id="line2d_22">
      <g>
       <use xlink:href="#m3421c0d83f" x="523.995714" y="328.12" style="stroke: #000000; stroke-width: 0.8"/>
      </g>
     </g>
     <g id="text_11">
      <text style="font: 14px 'Times New Roman', 'Times', 'DejaVu Serif', serif; text-anchor: middle" x="523.995714" y="345.757812" transform="rotate(-0 523.995714 345.757812)">5.0M</text>
     </g>
    </g>
    <g id="xtick_12">
     <g id="line2d_23">
      <defs>
       <path id="mbb628f7060" d="M 0 0 
L 0 2 
" style="stroke: #000000; stroke-width: 0.6"/>
      </defs>
      <g>
       <use xlink:href="#mbb628f7060" x="86.408477" y="328.12" style="stroke: #000000; stroke-width: 0.6"/>
      </g>
     </g>
    </g>
    <g id="xtick_13">
     <g id="line2d_24">
      <g>
       <use xlink:href="#mbb628f7060" x="95.338829" y="328.12" style="stroke: #000000; stroke-width: 0.6"/>
      </g>
     </g>
    </g>
    <g id="xtick_14">
     <g id="line2d_25">
      <g>
       <use xlink:href="#mbb628f7060" x="104.26918" y="328.12" style="stroke: #000000; stroke-width: 0.6"/>
      </g>
     </g>
    </g>
    <g id="xtick_15">
     <g id="line2d_26">
      <g>
       <use xlink:href="#mbb628f7060" x="113.199532" y="328.12" style="stroke: #000000; stroke-width: 0.6"/>
      </g>
     </g>
    </g>
    <g id="xtick_16">
     <g id="line2d_27">
      <g>
       <use xlink:href="#mbb628f7060" x="131.060236" y="328.12" style="stroke: #000000; stroke-width: 0.6"/>
      </g>
     </g>
    </g>
    <g id="xtick_17">
     <g id="line2d_28">
      <g>
       <use xlink:href="#mbb628f7060" x="139.990588" y="328.12" style="stroke: #000000; stroke-width: 0.6"/>
      </g>
     </g>
    </g>
    <g id="xtick_18">
     <g id="line2d_29">
      <g>
       <use xlink:href="#mbb628f7060" x="148.920939" y="328.12" style="stroke: #000000; stroke-width: 0.6"/>
      </g>
     </g>
    </g>
    <g id="xtick_19">
     <g id="line2d_30">
      <g>
       <use xlink:href="#mbb628f7060" x="157.851291" y="328.12" style="stroke: #000000; stroke-width: 0.6"/>
      </g>
     </g>
    </g>
    <g id="xtick_20">
     <g id="line2d_31">
      <g>
       <use xlink:href="#mbb628f7060" x="175.711995" y="328.12" style="stroke: #000000; stroke-width: 0.6"/>
      </g>
     </g>
    </g>
    <g id="xtick_21">
     <g id="line2d_32">
      <g>
       <use xlink:href="#mbb628f7060" x="184.642346" y="328.12" style="stroke: #000000; stroke-width: 0.6"/>
      </g>
     </g>
    </g>
    <g id="xtick_22">
     <g id="line2d_33">
      <g>
       <use xlink:href="#mbb628f7060" x="193.572698" y="328.12" style="stroke: #000000; stroke-width: 0.6"/>
      </g>
     </g>
    </g>
    <g id="xtick_23">
     <g id="line2d_34">
      <g>
       <use xlink:href="#mbb628f7060" x="202.50305" y="328.12" style="stroke: #000000; stroke-width: 0.6"/>
      </g>
     </g>
    </g>
    <g id="xtick_24">
     <g id="line2d_35">
      <g>
       <use xlink:href="#mbb628f7060" x="220.363754" y="328.12" style="stroke: #000000; stroke-width: 0.6"/>
      </g>
     </g>
    </g>
    <g id="xtick_25">
     <g id="line2d_36">
      <g>
       <use xlink:href="#mbb628f7060" x="229.294105" y="328.12" style="stroke: #000000; stroke-width: 0.6"/>
      </g>
     </g>
    </g>
    <g id="xtick_26">
     <g id="line2d_37">
      <g>
       <use xlink:href="#mbb628f7060" x="238.224457" y="328.12" style="stroke: #000000; stroke-width: 0.6"/>
      </g>
     </g>
    </g>
    <g id="xtick_27">
     <g id="line2d_38">
      <g>
       <use xlink:href="#mbb628f7060" x="247.154809" y="328.12" style="stroke: #000000; stroke-width: 0.6"/>
      </g>
     </g>
    </g>
    <g id="xtick_28">
     <g id="line2d_39">
      <g>
       <use xlink:href="#mbb628f7060" x="265.015513" y="328.12" style="stroke: #000000; stroke-width: 0.6"/>
      </g>
     </g>
    </g>
    <g id="xtick_29">
     <g id="line2d_40">
      <g>
       <use xlink:href="#mbb628f7060" x="273.945864" y="328.12" style="stroke: #000000; stroke-width: 0.6"/>
      </g>
     </g>
    </g>
    <g id="xtick_30">
     <g id="line2d_41">
      <g>
       <use xlink:href="#mbb628f7060" x="282.876216" y="328.12" style="stroke: #000000; stroke-width: 0.6"/>
      </g>
     </g>
    </g>
    <g id="xtick_31">
     <g id="line2d_42">
      <g>
       <use xlink:href="#mbb628f7060" x="291.806568" y="328.12" style="stroke: #000000; stroke-width: 0.6"/>
      </g>
     </g>
    </g>
    <g id="xtick_32">
     <g id="line2d_43">
      <g>
       <use xlink:href="#mbb628f7060" x="309.667271" y="328.12" style="stroke: #000000; stroke-width: 0.6"/>
      </g>
     </g>
    </g>
    <g id="xtick_33">
     <g id="line2d_44">
      <g>
       <use xlink:href="#mbb628f7060" x="318.597623" y="328.12" style="stroke: #000000; stroke-width: 0.6"/>
      </g>
     </g>
    </g>
    <g id="xtick_34">
     <g id="line2d_45">
      <g>
       <use xlink:href="#mbb628f7060" x="327.527975" y="328.12" style="stroke: #000000; stroke-width: 0.6"/>
      </g>
     </g>
    </g>
    <g id="xtick_35">
     <g id="line2d_46">
      <g>
       <use xlink:href="#mbb628f7060" x="336.458327" y="328.12" style="stroke: #000000; stroke-width: 0.6"/>
      </g>
     </g>
    </g>
    <g id="xtick_36">
     <g id="line2d_47">
      <g>
       <use xlink:href="#mbb628f7060" x="354.31903" y="328.12" style="stroke: #000000; stroke-width: 0.6"/>
      </g>
     </g>
    </g>
    <g id="xtick_37">
     <g id="line2d_48">
      <g>
       <use xlink:href="#mbb628f7060" x="363.249382" y="328.12" style="stroke: #000000; stroke-width: 0.6"/>
      </g>
     </g>
    </g>
    <g id="xtick_38">
     <g id="line2d_49">
      <g>
       <use xlink:href="#mbb628f7060" x="372.179734" y="328.12" style="stroke: #000000; stroke-width: 0.6"/>
      </g>
     </g>
    </g>
    <g id="xtick_39">
     <g id="line2d_50">
      <g>
       <use xlink:href="#mbb628f7060" x="381.110086" y="328.12" style="stroke: #000000; stroke-width: 0.6"/>
      </g>
     </g>
    </g>
    <g id="xtick_40">
     <g id="line2d_51">
      <g>
       <use xlink:href="#mbb628f7060" x="398.970789" y="328.12" style="stroke: #000000; stroke-width: 0.6"/>
      </g>
     </g>
    </g>
    <g id="xtick_41">
     <g id="line2d_52">
      <g>
       <use xlink:href="#mbb628f7060" x="407.901141" y="328.12" style="stroke: #000000; stroke-width: 0.6"/>
      </g>
     </g>
    </g>
    <g id="xtick_42">
     <g id="line2d_53">
      <g>
       <use xlink:href="#mbb628f7060" x="416.831493" y="328.12" style="stroke: #000000; stroke-width: 0.6"/>
      </g>
     </g>
    </g>
    <g id="xtick_43">
     <g id="line2d_54">
      <g>
       <use xlink:href="#mbb628f7060" x="425.761845" y="328.12" style="stroke: #000000; stroke-width: 0.6"/>
      </g>
     </g>
    </g>
    <g id="xtick_44">
     <g id="line2d_55">
      <g>
       <use xlink:href="#mbb628f7060" x="443.622548" y="328.12" style="stroke: #000000; stroke-width: 0.6"/>
      </g>
     </g>
    </g>
    <g id="xtick_45">
     <g id="line2d_56">
      <g>
       <use xlink:href="#mbb628f7060" x="452.5529" y="328.12" style="stroke: #000000; stroke-width: 0.6"/>
      </g>
     </g>
    </g>
    <g id="xtick_46">
     <g id="line2d_57">
      <g>
       <use xlink:href="#mbb628f7060" x="461.483252" y="328.12" style="stroke: #000000; stroke-width: 0.6"/>
      </g>
     </g>
    </g>
    <g id="xtick_47">
     <g id="line2d_58">
      <g>
       <use xlink:href="#mbb628f7060" x="470.413604" y="328.12" style="stroke: #000000; stroke-width: 0.6"/>
      </g>
     </g>
    </g>
    <g id="xtick_48">
     <g id="line2d_59">
      <g>
       <use xlink:href="#mbb628f7060" x="488.274307" y="328.12" style="stroke: #000000; stroke-width: 0.6"/>
      </g>
     </g>
    </g>
    <g id="xtick_49">
     <g id="line2d_60">
      <g>
       <use xlink:href="#mbb628f7060" x="497.204659" y="328.12" style="stroke: #000000; stroke-width: 0.6"/>
      </g>
     </g>
    </g>
    <g id="xtick_50">
     <g id="line2d_61">
      <g>
       <use xlink:href="#mbb628f7060" x="506.135011" y="328.12" style="stroke: #000000; stroke-width: 0.6"/>
      </g>
     </g>
    </g>
    <g id="xtick_51">
     <g id="line2d_62">
      <g>
       <use xlink:href="#mbb628f7060" x="515.065363" y="328.12" style="stroke: #000000; stroke-width: 0.6"/>
      </g>
     </g>
    </g>
    <g id="xtick_52">
     <g id="line2d_63">
      <g>
       <use xlink:href="#mbb628f7060" x="532.926066" y="328.12" style="stroke: #000000; stroke-width: 0.6"/>
      </g>
     </g>
    </g>
    <g id="text_12">
     <text style="font: 18px 'Times New Roman', 'Times', 'DejaVu Serif', serif; text-anchor: middle" x="305.202096" y="366.346562" transform="rotate(-0 305.202096 366.346562)">Steps</text>
    </g>
   </g>
   <g id="matplotlib.axis_2">
    <g id="ytick_1">
     <g id="line2d_64">
      <path d="M 77.478125 328.12 
L 532.926066 328.12 
" clip-path="url(#p5edac3f75d)" style="fill: none; stroke: #ffffff; stroke-width: 2; stroke-linecap: square"/>
     </g>
     <g id="line2d_65">
      <defs>
       <path id="ma28c134502" d="M 0 0 
L -3.5 0 
" style="stroke: #000000; stroke-width: 0.8"/>
      </defs>
      <g>
       <use xlink:href="#ma28c134502" x="77.478125" y="328.12" style="stroke: #000000; stroke-width: 0.8"/>
      </g>
     </g>
     <g id="text_13">
      <text style="font: 14px 'Times New Roman', 'Times', 'DejaVu Serif', serif; text-anchor: end" x="70.478125" y="333.438906" transform="rotate(-0 70.478125 333.438906)">−1000</text>
     </g>
    </g>
    <g id="ytick_2">
     <g id="line2d_66">
      <path d="M 77.478125 289.229524 
L 532.926066 289.229524 
" clip-path="url(#p5edac3f75d)" style="fill: none; stroke: #ffffff; stroke-width: 2; stroke-linecap: square"/>
     </g>
     <g id="line2d_67">
      <g>
       <use xlink:href="#ma28c134502" x="77.478125" y="289.229524" style="stroke: #000000; stroke-width: 0.8"/>
      </g>
     </g>
     <g id="text_14">
      <text style="font: 14px 'Times New Roman', 'Times', 'DejaVu Serif', serif; text-anchor: end" x="70.478125" y="294.54843" transform="rotate(-0 70.478125 294.54843)">−750</text>
     </g>
    </g>
    <g id="ytick_3">
     <g id="line2d_68">
      <path d="M 77.478125 250.339048 
L 532.926066 250.339048 
" clip-path="url(#p5edac3f75d)" style="fill: none; stroke: #ffffff; stroke-width: 2; stroke-linecap: square"/>
     </g>
     <g id="line2d_69">
      <g>
       <use xlink:href="#ma28c134502" x="77.478125" y="250.339048" style="stroke: #000000; stroke-width: 0.8"/>
      </g>
     </g>
     <g id="text_15">
      <text style="font: 14px 'Times New Roman', 'Times', 'DejaVu Serif', serif; text-anchor: end" x="70.478125" y="255.657954" transform="rotate(-0 70.478125 255.657954)">−500</text>
     </g>
    </g>
    <g id="ytick_4">
     <g id="line2d_70">
      <path d="M 77.478125 211.448571 
L 532.926066 211.448571 
" clip-path="url(#p5edac3f75d)" style="fill: none; stroke: #ffffff; stroke-width: 2; stroke-linecap: square"/>
     </g>
     <g id="line2d_71">
      <g>
       <use xlink:href="#ma28c134502" x="77.478125" y="211.448571" style="stroke: #000000; stroke-width: 0.8"/>
      </g>
     </g>
     <g id="text_16">
      <text style="font: 14px 'Times New Roman', 'Times', 'DejaVu Serif', serif; text-anchor: end" x="70.478125" y="216.767478" transform="rotate(-0 70.478125 216.767478)">−250</text>
     </g>
    </g>
    <g id="ytick_5">
     <g id="line2d_72">
      <path d="M 77.478125 172.558095 
L 532.926066 172.558095 
" clip-path="url(#p5edac3f75d)" style="fill: none; stroke: #ffffff; stroke-width: 2; stroke-linecap: square"/>
     </g>
     <g id="line2d_73">
      <g>
       <use xlink:href="#ma28c134502" x="77.478125" y="172.558095" style="stroke: #000000; stroke-width: 0.8"/>
      </g>
     </g>
     <g id="text_17">
      <text style="font: 14px 'Times New Roman', 'Times', 'DejaVu Serif', serif; text-anchor: end" x="70.478125" y="177.877001" transform="rotate(-0 70.478125 177.877001)">0</text>
     </g>
    </g>
    <g id="ytick_6">
     <g id="line2d_74">
      <path d="M 77.478125 133.667619 
L 532.926066 133.667619 
" clip-path="url(#p5edac3f75d)" style="fill: none; stroke: #ffffff; stroke-width: 2; stroke-linecap: square"/>
     </g>
     <g id="line2d_75">
      <g>
       <use xlink:href="#ma28c134502" x="77.478125" y="133.667619" style="stroke: #000000; stroke-width: 0.8"/>
      </g>
     </g>
     <g id="text_18">
      <text style="font: 14px 'Times New Roman', 'Times', 'DejaVu Serif', serif; text-anchor: end" x="70.478125" y="138.986525" transform="rotate(-0 70.478125 138.986525)">250</text>
     </g>
    </g>
    <g id="ytick_7">
     <g id="line2d_76">
      <path d="M 77.478125 94.777143 
L 532.926066 94.777143 
" clip-path="url(#p5edac3f75d)" style="fill: none; stroke: #ffffff; stroke-width: 2; stroke-linecap: square"/>
     </g>
     <g id="line2d_77">
      <g>
       <use xlink:href="#ma28c134502" x="77.478125" y="94.777143" style="stroke: #000000; stroke-width: 0.8"/>
      </g>
     </g>
     <g id="text_19">
      <text style="font: 14px 'Times New Roman', 'Times', 'DejaVu Serif', serif; text-anchor: end" x="70.478125" y="100.096049" transform="rotate(-0 70.478125 100.096049)">500</text>
     </g>
    </g>
    <g id="ytick_8">
     <g id="line2d_78">
      <path d="M 77.478125 55.886667 
L 532.926066 55.886667 
" clip-path="url(#p5edac3f75d)" style="fill: none; stroke: #ffffff; stroke-width: 2; stroke-linecap: square"/>
     </g>
     <g id="line2d_79">
      <g>
       <use xlink:href="#ma28c134502" x="77.478125" y="55.886667" style="stroke: #000000; stroke-width: 0.8"/>
      </g>
     </g>
     <g id="text_20">
      <text style="font: 14px 'Times New Roman', 'Times', 'DejaVu Serif', serif; text-anchor: end" x="70.478125" y="61.205573" transform="rotate(-0 70.478125 61.205573)">750</text>
     </g>
    </g>
    <g id="ytick_9">
     <g id="line2d_80">
      <path d="M 77.478125 16.99619 
L 532.926066 16.99619 
" clip-path="url(#p5edac3f75d)" style="fill: none; stroke: #ffffff; stroke-width: 2; stroke-linecap: square"/>
     </g>
     <g id="line2d_81">
      <g>
       <use xlink:href="#ma28c134502" x="77.478125" y="16.99619" style="stroke: #000000; stroke-width: 0.8"/>
      </g>
     </g>
     <g id="text_21">
      <text style="font: 14px 'Times New Roman', 'Times', 'DejaVu Serif', serif; text-anchor: end" x="70.478125" y="22.315097" transform="rotate(-0 70.478125 22.315097)">1000</text>
     </g>
    </g>
    <g id="text_22">
     <text style="font: 18px 'Times New Roman', 'Times', 'DejaVu Serif', serif; text-anchor: middle" x="15.117188" y="164.78" transform="rotate(-90 15.117188 164.78)">Average episode reward</text>
    </g>
   </g>
   <g id="line2d_82">
    <path d="M 78.192553 305.612545 
L 81.764694 312.617436 
L 85.336835 307.097049 
L 88.908975 289.948665 
L 92.481116 278.787972 
L 96.053257 295.706079 
L 99.625397 299.085497 
L 103.197538 288.350681 
L 106.769679 252.492067 
L 110.34182 233.369787 
L 113.91396 225.813086 
L 117.486101 234.783014 
L 121.058242 193.472769 
L 124.630382 187.215186 
L 128.202523 195.991592 
L 131.774664 209.088809 
L 135.346805 182.949448 
L 138.918945 171.546565 
L 142.491086 160.489793 
L 146.063227 171.787609 
L 149.635367 163.577209 
L 153.207508 181.164074 
L 156.779649 164.384957 
L 160.35179 146.338259 
L 163.92393 153.169714 
L 167.496071 157.505639 
L 171.068212 151.093885 
L 174.640352 148.657151 
L 178.212493 143.873181 
L 181.784634 153.364394 
L 185.356775 157.725847 
L 188.928915 145.566766 
L 192.501056 134.618314 
L 196.073197 166.541133 
L 199.645337 156.302073 
L 203.217478 146.188207 
L 206.789619 139.86877 
L 210.36176 139.212064 
L 213.9339 137.315455 
L 217.506041 135.817329 
L 221.078182 135.565519 
L 224.650322 134.699064 
L 228.222463 134.014792 
L 231.794604 137.826429 
L 235.366745 137.562596 
L 238.938885 142.862031 
L 242.511026 127.952533 
L 246.083167 126.494861 
L 249.655307 127.182794 
L 253.227448 138.074486 
L 256.799589 131.803772 
L 260.37173 125.867197 
L 263.94387 127.16962 
L 267.516011 137.370147 
L 271.088152 127.329283 
L 274.660292 120.943735 
L 278.232433 131.593107 
L 281.804574 136.113731 
L 285.376715 128.350956 
L 288.948855 122.786788 
L 292.520996 125.51254 
L 296.093137 123.572497 
L 299.665277 124.331536 
L 303.237418 130.648295 
L 306.809559 123.692193 
L 310.3817 144.60266 
L 313.95384 141.415649 
L 317.525981 156.566888 
L 321.098122 140.67378 
L 324.670262 122.906109 
L 328.242403 120.273183 
L 331.814544 150.400916 
L 335.386685 129.836537 
L 338.958825 132.205257 
L 342.530966 144.421681 
L 346.103107 138.40346 
L 349.675247 131.150344 
L 353.247388 119.125458 
L 356.819529 121.644499 
L 360.39167 130.401104 
L 363.96381 130.485465 
L 367.535951 117.993195 
L 371.108092 139.370856 
L 374.680232 116.406941 
L 378.252373 122.655709 
L 381.824514 122.407302 
L 385.396655 120.405079 
L 388.968795 125.247247 
L 392.540936 124.725273 
L 396.113077 127.738554 
L 399.685218 131.692441 
L 403.257358 123.216198 
L 406.829499 117.085412 
L 410.40164 125.89148 
L 413.97378 140.305255 
L 417.545921 132.327801 
L 421.118062 121.257963 
L 424.690203 121.433445 
L 428.262343 102.293715 
L 431.834484 129.242622 
L 435.406625 116.193571 
L 438.978765 114.752007 
L 442.550906 123.955658 
L 446.123047 105.085749 
L 449.695188 117.716827 
L 453.267328 130.196397 
L 456.839469 116.925084 
L 460.41161 116.342676 
L 463.98375 109.659562 
L 467.555891 123.074185 
L 471.128032 107.560972 
L 474.700173 124.027642 
L 478.272313 119.821921 
L 481.844454 106.821545 
L 485.416595 116.921352 
L 488.988735 113.240752 
L 492.560876 107.005007 
L 496.133017 107.245842 
L 499.705158 118.930023 
L 503.277298 120.678228 
L 506.849439 108.107832 
L 510.42158 104.659331 
L 513.99372 126.609999 
L 517.565861 105.577596 
L 521.138002 109.719726 
" clip-path="url(#p5edac3f75d)" style="fill: none; stroke: #c3e5f8; stroke-linecap: round"/>
   </g>
   <g id="line2d_83">
    <path d="M 78.192553 308.441932 
L 81.764694 304.060563 
L 85.336835 302.428283 
L 88.908975 241.575179 
L 92.481116 235.162429 
L 96.053257 178.612399 
L 99.625397 155.090375 
L 103.197538 128.814703 
L 106.769679 133.34528 
L 110.34182 133.504696 
L 113.91396 105.145799 
L 117.486101 125.358416 
L 121.058242 108.770171 
L 124.630382 87.78037 
L 128.202523 89.986759 
L 131.774664 115.287354 
L 135.346805 131.324344 
L 138.918945 96.922158 
L 142.491086 76.733766 
L 146.063227 86.710198 
L 149.635367 71.559491 
L 153.207508 68.778679 
L 156.779649 78.77319 
L 160.35179 80.641879 
L 163.92393 79.983342 
L 167.496071 85.096225 
L 171.068212 81.668356 
L 174.640352 82.95158 
L 178.212493 67.896589 
L 181.784634 63.476927 
L 185.356775 73.428778 
L 188.928915 79.689157 
L 192.501056 73.292604 
L 196.073197 67.142991 
L 199.645337 62.770376 
L 203.217478 73.299346 
L 206.789619 81.840201 
L 210.36176 80.313513 
L 213.9339 94.44966 
L 217.506041 74.411617 
L 221.078182 50.296417 
L 224.650322 69.427531 
L 228.222463 86.243836 
L 231.794604 75.32654 
L 235.366745 55.054376 
L 238.938885 53.593306 
L 242.511026 48.091728 
L 246.083167 58.85949 
L 249.655307 63.201703 
L 253.227448 53.266573 
L 256.799589 58.325506 
L 260.37173 63.449421 
L 263.94387 56.580296 
L 267.516011 86.104662 
L 271.088152 56.938514 
L 274.660292 63.429007 
L 278.232433 80.710203 
L 281.804574 61.833074 
L 285.376715 55.662866 
L 288.948855 56.234858 
L 292.520996 68.591671 
L 296.093137 66.018718 
L 299.665277 56.213913 
L 303.237418 59.535279 
L 306.809559 60.04865 
L 310.3817 74.767252 
L 313.95384 71.054465 
L 317.525981 66.779418 
L 321.098122 70.831168 
L 324.670262 57.083052 
L 328.242403 51.591358 
L 331.814544 51.01985 
L 335.386685 46.036144 
L 338.958825 59.676665 
L 342.530966 63.761561 
L 346.103107 58.252966 
L 349.675247 63.983235 
L 353.247388 43.293017 
L 356.819529 69.618527 
L 360.39167 57.210785 
L 363.96381 53.764259 
L 367.535951 50.161231 
L 371.108092 59.824669 
L 374.680232 55.356338 
L 378.252373 77.271567 
L 381.824514 85.300704 
L 385.396655 72.00356 
L 388.968795 53.397676 
L 392.540936 61.164131 
L 396.113077 45.800646 
L 399.685218 54.897181 
L 403.257358 57.646138 
L 406.829499 44.952699 
L 410.40164 39.928915 
L 413.97378 43.605983 
L 417.545921 55.772929 
L 421.118062 45.768136 
L 424.690203 53.571107 
L 428.262343 52.085246 
L 431.834484 43.872187 
L 435.406625 91.052221 
L 438.978765 44.615141 
L 442.550906 50.500734 
L 446.123047 52.867727 
L 449.695188 41.941896 
L 453.267328 37.345271 
L 456.839469 46.366153 
L 460.41161 50.156379 
L 463.98375 29.210354 
L 467.555891 42.179113 
L 471.128032 36.389169 
L 474.700173 58.454293 
L 478.272313 32.519311 
L 481.844454 43.997632 
L 485.416595 43.730108 
L 488.988735 34.552981 
L 492.560876 49.729059 
L 496.133017 49.25097 
L 499.705158 57.457477 
L 503.277298 47.081411 
L 506.849439 43.197462 
L 510.42158 37.318591 
L 513.99372 31.255978 
L 517.565861 34.855559 
L 521.138002 38.84791 
" clip-path="url(#p5edac3f75d)" style="fill: none; stroke: #f9dfca; stroke-linecap: round"/>
   </g>
   <g id="line2d_84">
    <path d="M 78.192553 305.842024 
L 81.764694 307.27104 
L 85.336835 295.19512 
L 88.908975 287.93276 
L 92.481116 284.708307 
L 96.053257 270.006615 
L 99.625397 264.119009 
L 103.197538 249.551102 
L 106.769679 239.394982 
L 110.34182 249.584054 
L 113.91396 244.421433 
L 117.486101 233.69314 
L 121.058242 224.47004 
L 124.630382 229.265233 
L 128.202523 228.031927 
L 131.774664 219.008302 
L 135.346805 214.027914 
L 138.918945 226.655479 
L 142.491086 217.582248 
L 146.063227 211.994871 
L 149.635367 203.840893 
L 153.207508 214.938797 
L 156.779649 206.569098 
L 160.35179 208.008025 
L 163.92393 216.4063 
L 167.496071 208.103805 
L 171.068212 221.010435 
L 174.640352 216.74165 
L 178.212493 210.914103 
L 181.784634 208.889598 
L 185.356775 222.705641 
L 188.928915 220.183381 
L 192.501056 226.243673 
L 196.073197 236.202545 
L 199.645337 235.91896 
L 203.217478 230.508332 
L 206.789619 224.352614 
L 210.36176 224.40869 
L 213.9339 230.300791 
L 217.506041 222.534479 
L 221.078182 206.014373 
L 224.650322 206.801053 
L 228.222463 232.999801 
L 231.794604 216.728381 
L 235.366745 209.479461 
L 238.938885 208.131103 
L 242.511026 221.657469 
L 246.083167 204.734453 
L 249.655307 216.658124 
L 253.227448 219.101075 
L 256.799589 210.118602 
L 260.37173 207.092924 
L 263.94387 219.695546 
L 267.516011 214.548103 
L 271.088152 208.852407 
L 274.660292 219.113822 
L 278.232433 212.57254 
L 281.804574 212.045133 
L 285.376715 199.435552 
L 288.948855 214.066937 
L 292.520996 208.765936 
L 296.093137 211.056835 
L 299.665277 220.374767 
L 303.237418 206.7919 
L 306.809559 213.541508 
L 310.3817 216.282061 
L 313.95384 208.822042 
L 317.525981 219.704632 
L 321.098122 211.429197 
L 324.670262 215.65181 
L 328.242403 209.598364 
L 331.814544 198.359059 
L 335.386685 214.616911 
L 338.958825 204.450548 
L 342.530966 196.180565 
L 346.103107 198.87797 
L 349.675247 207.01928 
L 353.247388 207.042041 
L 356.819529 193.054171 
L 360.39167 217.965983 
L 363.96381 199.244819 
L 367.535951 209.173101 
L 371.108092 192.966435 
L 374.680232 206.061602 
L 378.252373 198.817107 
L 381.824514 196.256099 
L 385.396655 199.172842 
L 388.968795 207.234281 
L 392.540936 204.908254 
L 396.113077 198.049288 
L 399.685218 209.442287 
L 403.257358 194.563774 
L 406.829499 209.957087 
L 410.40164 207.880921 
L 413.97378 193.018711 
L 417.545921 192.584288 
L 421.118062 202.425931 
L 424.690203 199.995737 
L 428.262343 189.004702 
L 431.834484 199.76407 
L 435.406625 195.338035 
L 438.978765 199.256849 
L 442.550906 192.996412 
L 446.123047 186.146235 
L 449.695188 192.682661 
L 453.267328 182.67524 
L 456.839469 195.80277 
L 460.41161 190.600544 
L 463.98375 180.947482 
L 467.555891 189.315021 
L 471.128032 185.379047 
L 474.700173 183.832459 
L 478.272313 207.072626 
L 481.844454 190.42563 
L 485.416595 185.803039 
L 488.988735 192.088413 
L 492.560876 186.276511 
L 496.133017 181.339116 
L 499.705158 180.010325 
L 503.277298 182.138796 
L 506.849439 188.118276 
L 510.42158 183.262273 
L 513.99372 184.585103 
L 517.565861 178.178385 
L 521.138002 185.562441 
" clip-path="url(#p5edac3f75d)" style="fill: none; stroke: #c0f8e9; stroke-linecap: round"/>
   </g>
   <g id="line2d_85">
    <path d="M 78.192553 308.517785 
L 81.764694 303.416933 
L 85.336835 286.270714 
L 88.908975 284.553191 
L 92.481116 267.102941 
L 96.053257 260.310382 
L 99.625397 246.75697 
L 103.197538 242.291278 
L 106.769679 219.739364 
L 110.34182 224.398326 
L 113.91396 216.655831 
L 117.486101 228.465267 
L 121.058242 229.601841 
L 124.630382 207.032179 
L 128.202523 211.755057 
L 131.774664 211.206557 
L 135.346805 233.298999 
L 138.918945 205.753939 
L 142.491086 209.44344 
L 146.063227 203.469556 
L 149.635367 205.368882 
L 153.207508 217.420401 
L 156.779649 215.560014 
L 160.35179 199.091745 
L 163.92393 205.134122 
L 167.496071 207.831446 
L 171.068212 229.212703 
L 174.640352 203.589842 
L 178.212493 211.530675 
L 181.784634 213.422728 
L 185.356775 214.164102 
L 188.928915 224.150831 
L 192.501056 214.542838 
L 196.073197 201.718675 
L 199.645337 203.770363 
L 203.217478 204.347345 
L 206.789619 204.538823 
L 210.36176 213.005624 
L 213.9339 198.634549 
L 217.506041 195.446045 
L 221.078182 219.696709 
L 224.650322 195.902744 
L 228.222463 221.067043 
L 231.794604 199.363513 
L 235.366745 194.304594 
L 238.938885 210.922202 
L 242.511026 209.009708 
L 246.083167 196.703173 
L 249.655307 199.270993 
L 253.227448 184.232047 
L 256.799589 222.806765 
L 260.37173 192.997274 
L 263.94387 193.698872 
L 267.516011 205.912786 
L 271.088152 204.119934 
L 274.660292 202.727301 
L 278.232433 193.267891 
L 281.804574 191.38168 
L 285.376715 191.334749 
L 288.948855 207.420946 
L 292.520996 196.350355 
L 296.093137 190.400753 
L 299.665277 191.25146 
L 303.237418 203.356195 
L 306.809559 189.884958 
L 310.3817 192.868706 
L 313.95384 186.793449 
L 317.525981 181.601206 
L 321.098122 190.232379 
L 324.670262 202.83256 
L 328.242403 191.345923 
L 331.814544 200.501007 
L 335.386685 207.722556 
L 338.958825 196.360619 
L 342.530966 194.754125 
L 346.103107 182.619804 
L 349.675247 214.064288 
L 353.247388 209.034532 
L 356.819529 199.694879 
L 360.39167 194.732007 
L 363.96381 189.653334 
L 367.535951 197.69234 
L 371.108092 193.991974 
L 374.680232 196.034081 
L 378.252373 182.407813 
L 381.824514 204.044346 
L 385.396655 194.111252 
L 388.968795 188.958274 
L 392.540936 218.245005 
L 396.113077 185.903851 
L 399.685218 176.293082 
L 403.257358 188.174952 
L 406.829499 183.760022 
L 410.40164 185.512972 
L 413.97378 200.132979 
L 417.545921 184.840358 
L 421.118062 185.322687 
L 424.690203 191.054269 
L 428.262343 192.157519 
L 431.834484 177.172308 
L 435.406625 175.401685 
L 438.978765 202.507866 
L 442.550906 186.488744 
L 446.123047 175.328751 
L 449.695188 177.844509 
L 453.267328 182.258624 
L 456.839469 191.419726 
L 460.41161 182.951859 
L 463.98375 180.595204 
L 467.555891 173.230859 
L 471.128032 176.446528 
L 474.700173 183.323102 
L 478.272313 178.613279 
L 481.844454 177.281075 
L 485.416595 176.088806 
L 488.988735 172.946836 
L 492.560876 177.478128 
L 496.133017 195.707608 
L 499.705158 178.103583 
L 503.277298 194.061129 
L 506.849439 168.650556 
L 510.42158 182.89646 
L 513.99372 186.270331 
L 517.565861 177.099217 
L 521.138002 169.732495 
" clip-path="url(#p5edac3f75d)" style="fill: none; stroke: #f3e6ed; stroke-linecap: round"/>
   </g>
   <g id="line2d_86">
    <path d="M 78.192553 305.612545 
L 81.764694 306.313034 
L 85.336835 306.391436 
L 88.908975 304.747159 
L 92.481116 302.15124 
L 96.053257 301.506724 
L 99.625397 301.264601 
L 103.197538 299.973209 
L 106.769679 295.225095 
L 110.34182 289.039564 
L 113.91396 282.716916 
L 117.486101 277.923526 
L 121.058242 269.47845 
L 124.630382 261.252124 
L 128.202523 254.726071 
L 131.774664 250.162344 
L 135.346805 243.441055 
L 138.918945 236.251606 
L 142.491086 228.675425 
L 146.063227 222.986643 
L 149.635367 217.0457 
L 153.207508 213.457537 
L 156.779649 208.550279 
L 160.35179 202.329077 
L 163.92393 197.413141 
L 167.496071 193.422391 
L 171.068212 189.18954 
L 174.640352 185.136301 
L 178.212493 181.009989 
L 181.784634 178.24543 
L 185.356775 176.193471 
L 188.928915 173.130801 
L 192.501056 169.279552 
L 196.073197 169.00571 
L 199.645337 167.735347 
L 203.217478 165.580633 
L 206.789619 163.009446 
L 210.36176 160.629708 
L 213.9339 158.298283 
L 217.506041 156.050187 
L 221.078182 154.001721 
L 224.650322 152.071455 
L 228.222463 150.265789 
L 231.794604 149.021853 
L 235.366745 147.875927 
L 238.938885 147.374537 
L 242.511026 145.432337 
L 246.083167 143.538589 
L 249.655307 141.90301 
L 253.227448 141.520157 
L 256.799589 140.548519 
L 260.37173 139.080387 
L 263.94387 137.88931 
L 267.516011 137.837394 
L 271.088152 136.786583 
L 274.660292 135.202298 
L 278.232433 134.841379 
L 281.804574 134.968614 
L 285.376715 134.306848 
L 288.948855 133.154842 
L 292.520996 132.390612 
L 296.093137 131.508801 
L 299.665277 130.791074 
L 303.237418 130.776796 
L 306.809559 130.068336 
L 310.3817 131.521768 
L 313.95384 132.511156 
L 317.525981 134.916729 
L 321.098122 135.492434 
L 324.670262 134.233802 
L 328.242403 132.83774 
L 331.814544 134.594058 
L 335.386685 134.118305 
L 338.958825 133.927001 
L 342.530966 134.976469 
L 346.103107 135.319168 
L 349.675247 134.902285 
L 353.247388 133.324603 
L 356.819529 132.156592 
L 360.39167 131.981043 
L 363.96381 131.831486 
L 367.535951 130.447657 
L 371.108092 131.339977 
L 374.680232 129.846673 
L 378.252373 129.127577 
L 381.824514 128.455549 
L 385.396655 127.650502 
L 388.968795 127.410177 
L 392.540936 127.141686 
L 396.113077 127.201373 
L 399.685218 127.65048 
L 403.257358 127.207052 
L 406.829499 126.194888 
L 410.40164 126.164547 
L 413.97378 127.578618 
L 417.545921 128.053536 
L 421.118062 127.373979 
L 424.690203 126.779925 
L 428.262343 124.331304 
L 431.834484 124.822436 
L 435.406625 123.95955 
L 438.978765 123.038795 
L 442.550906 123.130482 
L 446.123047 121.326008 
L 449.695188 120.96509 
L 453.267328 121.888221 
L 456.839469 121.391907 
L 460.41161 120.886984 
L 463.98375 119.764242 
L 467.555891 120.095236 
L 471.128032 118.84181 
L 474.700173 119.360393 
L 478.272313 119.406546 
L 481.844454 118.148046 
L 485.416595 118.025376 
L 488.988735 117.546914 
L 492.560876 116.492723 
L 496.133017 115.568035 
L 499.705158 115.904234 
L 503.277298 116.381633 
L 506.849439 115.554253 
L 510.42158 114.464761 
L 513.99372 115.679285 
L 517.565861 114.669116 
L 521.138002 114.174177 
" clip-path="url(#p5edac3f75d)" style="fill: none; stroke: #0072b2; stroke-width: 2; stroke-linecap: round"/>
    <defs>
     <path id="m175ab048ca" d="M 0 5 
C 1.326016 5 2.597899 4.473168 3.535534 3.535534 
C 4.473168 2.597899 5 1.326016 5 0 
C 5 -1.326016 4.473168 -2.597899 3.535534 -3.535534 
C 2.597899 -4.473168 1.326016 -5 0 -5 
C -1.326016 -5 -2.597899 -4.473168 -3.535534 -3.535534 
C -4.473168 -2.597899 -5 -1.326016 -5 0 
C -5 1.326016 -4.473168 2.597899 -3.535534 3.535534 
C -2.597899 4.473168 -1.326016 5 0 5 
z
" style="stroke: #0072b2"/>
    </defs>
    <g clip-path="url(#p5edac3f75d)">
     <use xlink:href="#m175ab048ca" x="78.192553" y="305.612545" style="fill-opacity: 0; stroke: #0072b2"/>
     <use xlink:href="#m175ab048ca" x="124.630382" y="261.252124" style="fill-opacity: 0; stroke: #0072b2"/>
     <use xlink:href="#m175ab048ca" x="167.496071" y="193.422391" style="fill-opacity: 0; stroke: #0072b2"/>
     <use xlink:href="#m175ab048ca" x="213.9339" y="158.298283" style="fill-opacity: 0; stroke: #0072b2"/>
     <use xlink:href="#m175ab048ca" x="256.799589" y="140.548519" style="fill-opacity: 0; stroke: #0072b2"/>
     <use xlink:href="#m175ab048ca" x="303.237418" y="130.776796" style="fill-opacity: 0; stroke: #0072b2"/>
     <use xlink:href="#m175ab048ca" x="346.103107" y="135.319168" style="fill-opacity: 0; stroke: #0072b2"/>
     <use xlink:href="#m175ab048ca" x="392.540936" y="127.141686" style="fill-opacity: 0; stroke: #0072b2"/>
     <use xlink:href="#m175ab048ca" x="435.406625" y="123.95955" style="fill-opacity: 0; stroke: #0072b2"/>
     <use xlink:href="#m175ab048ca" x="481.844454" y="118.148046" style="fill-opacity: 0; stroke: #0072b2"/>
     <use xlink:href="#m175ab048ca" x="521.138002" y="114.174177" style="fill-opacity: 0; stroke: #0072b2"/>
    </g>
   </g>
   <g id="line2d_87">
    <path d="M 78.192553 308.441932 
L 81.764694 308.003795 
L 85.336835 307.446244 
L 88.908975 300.859137 
L 92.481116 294.289466 
L 96.053257 282.72176 
L 99.625397 269.958621 
L 103.197538 255.844229 
L 106.769679 243.594334 
L 110.34182 232.585371 
L 113.91396 219.841413 
L 117.486101 210.393114 
L 121.058242 200.230819 
L 124.630382 188.985774 
L 128.202523 179.085873 
L 131.774664 172.706021 
L 135.346805 168.567853 
L 138.918945 161.403284 
L 142.491086 152.936332 
L 146.063227 146.313719 
L 149.635367 138.838296 
L 153.207508 131.832334 
L 156.779649 126.52642 
L 160.35179 121.937966 
L 163.92393 117.742503 
L 167.496071 114.477875 
L 171.068212 111.196924 
L 174.640352 108.372389 
L 178.212493 104.324809 
L 181.784634 100.240021 
L 185.356775 97.558897 
L 188.928915 95.771923 
L 192.501056 93.523991 
L 196.073197 90.885891 
L 199.645337 88.074339 
L 203.217478 86.59684 
L 206.789619 86.121176 
L 210.36176 85.54041 
L 213.9339 86.431335 
L 217.506041 85.229363 
L 221.078182 81.736068 
L 224.650322 80.505215 
L 228.222463 81.079077 
L 231.794604 80.503823 
L 235.366745 77.958878 
L 238.938885 75.522321 
L 242.511026 72.779262 
L 246.083167 71.387285 
L 249.655307 70.568727 
L 253.227448 68.838511 
L 256.799589 67.787211 
L 260.37173 67.353432 
L 263.94387 66.276118 
L 267.516011 68.258972 
L 271.088152 67.126927 
L 274.660292 66.757135 
L 278.232433 68.152441 
L 281.804574 67.520505 
L 285.376715 66.334741 
L 288.948855 65.324753 
L 292.520996 65.651444 
L 296.093137 65.688172 
L 299.665277 64.740746 
L 303.237418 64.220199 
L 306.809559 63.803044 
L 310.3817 64.899465 
L 313.95384 65.514965 
L 317.525981 65.64141 
L 321.098122 66.160386 
L 324.670262 65.252653 
L 328.242403 63.886523 
L 331.814544 62.599856 
L 335.386685 60.943485 
L 338.958825 60.816803 
L 342.530966 61.111279 
L 346.103107 60.825447 
L 349.675247 61.141226 
L 353.247388 59.356405 
L 356.819529 60.382617 
L 360.39167 60.065434 
L 363.96381 59.435317 
L 367.535951 58.507908 
L 371.108092 58.639584 
L 374.680232 58.311259 
L 378.252373 60.20729 
L 381.824514 62.716632 
L 385.396655 63.645324 
L 388.968795 62.62056 
L 392.540936 62.474917 
L 396.113077 60.80749 
L 399.685218 60.216459 
L 403.257358 59.959427 
L 406.829499 58.458754 
L 410.40164 56.60577 
L 413.97378 55.305791 
L 417.545921 55.352505 
L 421.118062 54.394068 
L 424.690203 54.311772 
L 428.262343 54.089119 
L 431.834484 53.067426 
L 435.406625 56.865906 
L 438.978765 55.640829 
L 442.550906 55.12682 
L 446.123047 54.900911 
L 449.695188 53.605009 
L 453.267328 51.979035 
L 456.839469 51.417747 
L 460.41161 51.29161 
L 463.98375 49.083485 
L 467.555891 48.393047 
L 471.128032 47.19266 
L 474.700173 48.318823 
L 478.272313 46.738872 
L 481.844454 46.464748 
L 485.416595 46.191284 
L 488.988735 45.027453 
L 492.560876 45.497614 
L 496.133017 45.872949 
L 499.705158 47.031402 
L 503.277298 47.036403 
L 506.849439 46.652509 
L 510.42158 45.719117 
L 513.99372 44.272803 
L 517.565861 43.331079 
L 521.138002 42.882762 
" clip-path="url(#p5edac3f75d)" style="fill: none; stroke: #d55e00; stroke-width: 2; stroke-linecap: round"/>
    <defs>
     <path id="mb51ae814a8" d="M -5 5 
L 5 5 
L 5 -5 
L -5 -5 
z
" style="stroke: #d55e00; stroke-linejoin: miter"/>
    </defs>
    <g clip-path="url(#p5edac3f75d)">
     <use xlink:href="#mb51ae814a8" x="78.192553" y="308.441932" style="fill-opacity: 0; stroke: #d55e00; stroke-linejoin: miter"/>
     <use xlink:href="#mb51ae814a8" x="124.630382" y="188.985774" style="fill-opacity: 0; stroke: #d55e00; stroke-linejoin: miter"/>
     <use xlink:href="#mb51ae814a8" x="167.496071" y="114.477875" style="fill-opacity: 0; stroke: #d55e00; stroke-linejoin: miter"/>
     <use xlink:href="#mb51ae814a8" x="213.9339" y="86.431335" style="fill-opacity: 0; stroke: #d55e00; stroke-linejoin: miter"/>
     <use xlink:href="#mb51ae814a8" x="256.799589" y="67.787211" style="fill-opacity: 0; stroke: #d55e00; stroke-linejoin: miter"/>
     <use xlink:href="#mb51ae814a8" x="303.237418" y="64.220199" style="fill-opacity: 0; stroke: #d55e00; stroke-linejoin: miter"/>
     <use xlink:href="#mb51ae814a8" x="346.103107" y="60.825447" style="fill-opacity: 0; stroke: #d55e00; stroke-linejoin: miter"/>
     <use xlink:href="#mb51ae814a8" x="392.540936" y="62.474917" style="fill-opacity: 0; stroke: #d55e00; stroke-linejoin: miter"/>
     <use xlink:href="#mb51ae814a8" x="435.406625" y="56.865906" style="fill-opacity: 0; stroke: #d55e00; stroke-linejoin: miter"/>
     <use xlink:href="#mb51ae814a8" x="481.844454" y="46.464748" style="fill-opacity: 0; stroke: #d55e00; stroke-linejoin: miter"/>
     <use xlink:href="#mb51ae814a8" x="521.138002" y="42.882762" style="fill-opacity: 0; stroke: #d55e00; stroke-linejoin: miter"/>
    </g>
   </g>
   <g id="line2d_88">
    <path d="M 78.192553 305.842024 
L 81.764694 305.984925 
L 85.336835 304.905945 
L 88.908975 303.208626 
L 92.481116 301.358594 
L 96.053257 298.223396 
L 99.625397 294.812958 
L 103.197538 290.286772 
L 106.769679 285.197593 
L 110.34182 281.636239 
L 113.91396 277.914759 
L 117.486101 273.492597 
L 121.058242 268.590341 
L 124.630382 264.65783 
L 128.202523 260.99524 
L 131.774664 256.796546 
L 135.346805 252.519683 
L 138.918945 249.933262 
L 142.491086 246.698161 
L 146.063227 243.227832 
L 149.635367 239.289138 
L 153.207508 236.854104 
L 156.779649 233.825603 
L 160.35179 231.243846 
L 163.92393 229.760091 
L 167.496071 227.594462 
L 171.068212 226.93606 
L 174.640352 225.916619 
L 178.212493 224.416367 
L 181.784634 222.86369 
L 185.356775 222.847885 
L 188.928915 222.581435 
L 192.501056 222.947659 
L 196.073197 224.273147 
L 199.645337 225.437729 
L 203.217478 225.944789 
L 206.789619 225.785571 
L 210.36176 225.647883 
L 213.9339 226.113174 
L 217.506041 225.755305 
L 221.078182 223.781211 
L 224.650322 222.083196 
L 228.222463 223.174856 
L 231.794604 222.530209 
L 235.366745 221.225134 
L 238.938885 219.915731 
L 242.511026 220.089904 
L 246.083167 218.554359 
L 249.655307 218.364736 
L 253.227448 218.43837 
L 256.799589 217.606393 
L 260.37173 216.555046 
L 263.94387 216.869096 
L 267.516011 216.636997 
L 271.088152 215.858538 
L 274.660292 216.184066 
L 278.232433 215.822913 
L 281.804574 215.445135 
L 285.376715 213.844177 
L 288.948855 213.866453 
L 292.520996 213.356401 
L 296.093137 213.126445 
L 299.665277 213.851277 
L 303.237418 213.145339 
L 306.809559 213.184956 
L 310.3817 213.494667 
L 313.95384 213.027404 
L 317.525981 213.695127 
L 321.098122 213.468534 
L 324.670262 213.686862 
L 328.242403 213.278012 
L 331.814544 211.786116 
L 335.386685 212.069196 
L 338.958825 211.307331 
L 342.530966 209.794655 
L 346.103107 208.702986 
L 349.675247 208.534615 
L 353.247388 208.385358 
L 356.819529 206.852239 
L 360.39167 207.963614 
L 363.96381 207.091734 
L 367.535951 207.299871 
L 371.108092 205.866527 
L 374.680232 205.886035 
L 378.252373 205.179142 
L 381.824514 204.286838 
L 385.396655 203.775438 
L 388.968795 204.121322 
L 392.540936 204.200016 
L 396.113077 203.584943 
L 399.685218 204.170677 
L 403.257358 203.209987 
L 406.829499 203.884697 
L 410.40164 204.284319 
L 413.97378 203.157758 
L 417.545921 202.100411 
L 421.118062 202.132963 
L 424.690203 201.919241 
L 428.262343 200.627787 
L 431.834484 200.541415 
L 435.406625 200.021077 
L 438.978765 199.944654 
L 442.550906 199.24983 
L 446.123047 197.939471 
L 449.695188 197.41379 
L 453.267328 195.939935 
L 456.839469 195.926218 
L 460.41161 195.393651 
L 463.98375 193.949034 
L 467.555891 193.485633 
L 471.128032 192.674974 
L 474.700173 191.790723 
L 478.272313 193.318913 
L 481.844454 193.029585 
L 485.416595 192.30693 
L 488.988735 192.285078 
L 492.560876 191.684222 
L 496.133017 190.649711 
L 499.705158 189.585772 
L 503.277298 188.841075 
L 506.849439 188.768795 
L 510.42158 188.218143 
L 513.99372 187.854839 
L 517.565861 186.887193 
L 521.138002 186.754718 
" clip-path="url(#p5edac3f75d)" style="fill: none; stroke: #009e73; stroke-width: 2; stroke-linecap: round"/>
    <defs>
     <path id="md661cb6010" d="M 0 -5 
L -5 5 
L 5 5 
z
" style="stroke: #009e73; stroke-linejoin: miter"/>
    </defs>
    <g clip-path="url(#p5edac3f75d)">
     <use xlink:href="#md661cb6010" x="78.192553" y="305.842024" style="fill-opacity: 0; stroke: #009e73; stroke-linejoin: miter"/>
     <use xlink:href="#md661cb6010" x="124.630382" y="264.65783" style="fill-opacity: 0; stroke: #009e73; stroke-linejoin: miter"/>
     <use xlink:href="#md661cb6010" x="167.496071" y="227.594462" style="fill-opacity: 0; stroke: #009e73; stroke-linejoin: miter"/>
     <use xlink:href="#md661cb6010" x="213.9339" y="226.113174" style="fill-opacity: 0; stroke: #009e73; stroke-linejoin: miter"/>
     <use xlink:href="#md661cb6010" x="256.799589" y="217.606393" style="fill-opacity: 0; stroke: #009e73; stroke-linejoin: miter"/>
     <use xlink:href="#md661cb6010" x="303.237418" y="213.145339" style="fill-opacity: 0; stroke: #009e73; stroke-linejoin: miter"/>
     <use xlink:href="#md661cb6010" x="346.103107" y="208.702986" style="fill-opacity: 0; stroke: #009e73; stroke-linejoin: miter"/>
     <use xlink:href="#md661cb6010" x="392.540936" y="204.200016" style="fill-opacity: 0; stroke: #009e73; stroke-linejoin: miter"/>
     <use xlink:href="#md661cb6010" x="435.406625" y="200.021077" style="fill-opacity: 0; stroke: #009e73; stroke-linejoin: miter"/>
     <use xlink:href="#md661cb6010" x="481.844454" y="193.029585" style="fill-opacity: 0; stroke: #009e73; stroke-linejoin: miter"/>
     <use xlink:href="#md661cb6010" x="521.138002" y="186.754718" style="fill-opacity: 0; stroke: #009e73; stroke-linejoin: miter"/>
    </g>
   </g>
   <g id="line2d_89">
    <path d="M 78.192553 308.517785 
L 81.764694 308.0077 
L 85.336835 305.834001 
L 88.908975 303.70592 
L 92.481116 300.045622 
L 96.053257 296.072098 
L 99.625397 291.140586 
L 103.197538 286.255655 
L 106.769679 279.604026 
L 110.34182 274.083456 
L 113.91396 268.340693 
L 117.486101 264.353151 
L 121.058242 260.87802 
L 124.630382 255.493436 
L 128.202523 251.119598 
L 131.774664 247.128294 
L 135.346805 245.745364 
L 138.918945 241.746222 
L 142.491086 238.515944 
L 146.063227 235.011305 
L 149.635367 232.047063 
L 153.207508 230.584396 
L 156.779649 229.081958 
L 160.35179 226.082937 
L 163.92393 223.988055 
L 167.496071 222.372394 
L 171.068212 223.056425 
L 174.640352 221.109767 
L 178.212493 220.151858 
L 181.784634 219.478945 
L 185.356775 218.94746 
L 188.928915 219.467798 
L 192.501056 218.975302 
L 196.073197 217.249639 
L 199.645337 215.901711 
L 203.217478 214.746275 
L 206.789619 213.725529 
L 210.36176 213.653539 
L 213.9339 212.15164 
L 217.506041 210.48108 
L 221.078182 211.402643 
L 224.650322 209.852653 
L 228.222463 210.974092 
L 231.794604 209.813034 
L 235.366745 208.26219 
L 238.938885 208.528191 
L 242.511026 208.576343 
L 246.083167 207.389026 
L 249.655307 206.577223 
L 253.227448 204.342705 
L 256.799589 206.189111 
L 260.37173 204.869927 
L 263.94387 203.752822 
L 267.516011 203.968818 
L 271.088152 203.98393 
L 274.660292 203.858267 
L 278.232433 202.799229 
L 281.804574 201.657475 
L 285.376715 200.625202 
L 288.948855 201.304776 
L 292.520996 200.809334 
L 296.093137 199.768476 
L 299.665277 198.916774 
L 303.237418 199.360717 
L 306.809559 198.413141 
L 310.3817 197.858697 
L 313.95384 196.752172 
L 317.525981 195.237076 
L 321.098122 194.736606 
L 324.670262 195.546202 
L 328.242403 195.126174 
L 331.814544 195.663657 
L 335.386685 196.869547 
L 338.958825 196.818654 
L 342.530966 196.612201 
L 346.103107 195.212961 
L 349.675247 197.098094 
L 353.247388 198.291738 
L 356.819529 198.432052 
L 360.39167 198.062048 
L 363.96381 197.221176 
L 367.535951 197.268293 
L 371.108092 196.940661 
L 374.680232 196.850003 
L 378.252373 195.405784 
L 381.824514 196.26964 
L 385.396655 196.053801 
L 388.968795 195.344248 
L 392.540936 197.634324 
L 396.113077 196.461277 
L 399.685218 194.444457 
L 403.257358 193.817507 
L 406.829499 192.811758 
L 410.40164 192.08188 
L 413.97378 192.88699 
L 417.545921 192.082326 
L 421.118062 191.406362 
L 424.690203 191.371153 
L 428.262343 191.44979 
L 431.834484 190.022042 
L 435.406625 188.560006 
L 438.978765 189.954792 
L 442.550906 189.608187 
L 446.123047 188.180244 
L 449.695188 187.14667 
L 453.267328 186.657865 
L 456.839469 187.134051 
L 460.41161 186.715832 
L 463.98375 186.103769 
L 467.555891 184.816478 
L 471.128032 183.979483 
L 474.700173 183.913845 
L 478.272313 183.383788 
L 481.844454 182.773517 
L 485.416595 182.105046 
L 488.988735 181.189225 
L 492.560876 180.818115 
L 496.133017 182.307065 
L 499.705158 181.886716 
L 503.277298 183.104158 
L 506.849439 181.658798 
L 510.42158 181.782564 
L 513.99372 182.231341 
L 517.565861 181.718128 
L 521.138002 180.519565 
" clip-path="url(#p5edac3f75d)" style="fill: none; stroke: #cc79a7; stroke-width: 2; stroke-linecap: round"/>
    <defs>
     <path id="m781736059f" d="M -0 7.071068 
L 7.071068 0 
L 0 -7.071068 
L -7.071068 -0 
z
" style="stroke: #cc79a7; stroke-linejoin: miter"/>
    </defs>
    <g clip-path="url(#p5edac3f75d)">
     <use xlink:href="#m781736059f" x="78.192553" y="308.517785" style="fill-opacity: 0; stroke: #cc79a7; stroke-linejoin: miter"/>
     <use xlink:href="#m781736059f" x="124.630382" y="255.493436" style="fill-opacity: 0; stroke: #cc79a7; stroke-linejoin: miter"/>
     <use xlink:href="#m781736059f" x="167.496071" y="222.372394" style="fill-opacity: 0; stroke: #cc79a7; stroke-linejoin: miter"/>
     <use xlink:href="#m781736059f" x="213.9339" y="212.15164" style="fill-opacity: 0; stroke: #cc79a7; stroke-linejoin: miter"/>
     <use xlink:href="#m781736059f" x="256.799589" y="206.189111" style="fill-opacity: 0; stroke: #cc79a7; stroke-linejoin: miter"/>
     <use xlink:href="#m781736059f" x="303.237418" y="199.360717" style="fill-opacity: 0; stroke: #cc79a7; stroke-linejoin: miter"/>
     <use xlink:href="#m781736059f" x="346.103107" y="195.212961" style="fill-opacity: 0; stroke: #cc79a7; stroke-linejoin: miter"/>
     <use xlink:href="#m781736059f" x="392.540936" y="197.634324" style="fill-opacity: 0; stroke: #cc79a7; stroke-linejoin: miter"/>
     <use xlink:href="#m781736059f" x="435.406625" y="188.560006" style="fill-opacity: 0; stroke: #cc79a7; stroke-linejoin: miter"/>
     <use xlink:href="#m781736059f" x="481.844454" y="182.773517" style="fill-opacity: 0; stroke: #cc79a7; stroke-linejoin: miter"/>
     <use xlink:href="#m781736059f" x="521.138002" y="180.519565" style="fill-opacity: 0; stroke: #cc79a7; stroke-linejoin: miter"/>
    </g>
   </g>
   <g id="patch_3">
    <path d="M 77.478125 328.12 
L 77.478125 1.44 
" style="fill: none; stroke: #000000; stroke-linejoin: miter; stroke-linecap: square"/>
   </g>
   <g id="patch_4">
    <path d="M 77.478125 328.12 
L 532.926066 328.12 
" style="fill: none; stroke: #000000; stroke-linejoin: miter; stroke-linecap: square"/>
   </g>
   <g id="legend_1">
    <g id="patch_5">
     <path d="M 235.907316 321.12 
L 525.926066 321.12 
L 525.926066 231.9225 
L 235.907316 231.9225 
z
" style="fill: #f7f9fc; opacity: 0.8; stroke: #c7ced8; stroke-width: 0.6; stroke-linejoin: miter"/>
    </g>
    <g id="line2d_90">
     <path d="M 242.907316 244.660312 
L 256.907316 244.660312 
L 270.907316 244.660312 
" style="fill: none; stroke: #0072b2; stroke-width: 2; stroke-linecap: round"/>
     <g>
      <use xlink:href="#m175ab048ca" x="256.907316" y="244.660312" style="fill-opacity: 0; stroke: #0072b2"/>
     </g>
    </g>
    <g id="text_23">
     <text style="font: 14px 'Times New Roman', 'Times', 'DejaVu Serif', serif; text-anchor: start" x="282.107316" y="249.560312" transform="rotate(-0 282.107316 249.560312)">HO-MAPPO with SC (k=3,M=20)</text>
    </g>
    <g id="line2d_91">
     <path d="M 242.907316 265.209687 
L 256.907316 265.209687 
L 270.907316 265.209687 
" style="fill: none; stroke: #d55e00; stroke-width: 2; stroke-linecap: round"/>
     <g>
      <use xlink:href="#mb51ae814a8" x="256.907316" y="265.209687" style="fill-opacity: 0; stroke: #d55e00; stroke-linejoin: miter"/>
     </g>
    </g>
    <g id="text_24">
     <text style="font: 14px 'Times New Roman', 'Times', 'DejaVu Serif', serif; text-anchor: start" x="282.107316" y="270.109687" transform="rotate(-0 282.107316 270.109687)">DH-MAPPO with SC (k=3,M=20)</text>
    </g>
    <g id="line2d_92">
     <path d="M 242.907316 285.759062 
L 256.907316 285.759062 
L 270.907316 285.759062 
" style="fill: none; stroke: #009e73; stroke-width: 2; stroke-linecap: round"/>
     <g>
      <use xlink:href="#md661cb6010" x="256.907316" y="285.759062" style="fill-opacity: 0; stroke: #009e73; stroke-linejoin: miter"/>
     </g>
    </g>
    <g id="text_25">
     <text style="font: 14px 'Times New Roman', 'Times', 'DejaVu Serif', serif; text-anchor: start" x="282.107316" y="290.659062" transform="rotate(-0 282.107316 290.659062)">HO-MAPPO with TC (k=3,M=20)</text>
    </g>
    <g id="line2d_93">
     <path d="M 242.907316 306.308437 
L 256.907316 306.308437 
L 270.907316 306.308437 
" style="fill: none; stroke: #cc79a7; stroke-width: 2; stroke-linecap: round"/>
     <g>
      <use xlink:href="#m781736059f" x="256.907316" y="306.308437" style="fill-opacity: 0; stroke: #cc79a7; stroke-linejoin: miter"/>
     </g>
    </g>
    <g id="text_26">
     <text style="font: 14px 'Times New Roman', 'Times', 'DejaVu Serif', serif; text-anchor: start" x="282.107316" y="311.208437" transform="rotate(-0 282.107316 311.208437)">DH-MAPPO with TC (k=3,M=20)</text>
    </g>
   </g>
  </g>
 </g>
 <defs>
  <clipPath id="p5edac3f75d">
   <rect x="77.478125" y="1.44" width="455.447941" height="326.68"/>
  </clipPath>
 </defs>
</svg>
