<?xml version="1.0" encoding="utf-8" standalone="no"?>
<!DOCTYPE svg PUBLIC "-//W3C//DTD SVG 1.1//EN"
  "http://www.w3.org/Graphics/SVG/1.1/DTD/svg11.dtd">
<svg xmlns:xlink="http://www.w3.org/1999/xlink" width="543.735246pt" height="371.808906pt" viewBox="0 0 543.735246 371.808906" xmlns="http://www.w3.org/2000/svg" version="1.1">
 <metadata>
  <rdf:RDF xmlns:dc="http://purl.org/dc/elements/1.1/" xmlns:cc="http://creativecommons.org/ns#" xmlns:rdf="http://www.w3.org/1999/02/22-rdf-syntax-ns#">
   <cc:Work>
    <dc:type rdf:resource="http://purl.org/dc/dcmitype/StillImage"/>
    <dc:date>2026-02-04T12:23:28.019658</dc:date>
    <dc:format>image/svg+xml</dc:format>
    <dc:creator>
     <cc:Agent>
      <dc:title>Matplotlib v3.9.4, https://matplotlib.org/</dc:title>
     </cc:Agent>
    </dc:creator>
   </cc:Work>
  </rdf:RDF>
 </metadata>
 <defs>
  <style type="text/css">*{stroke-linejoin: round; stroke-linecap: butt}</style>
 </defs>
 <g id="figure_1">
  <g id="patch_1">
   <path d="M 0 371.808906 
L 543.735246 371.808906 
L 543.735246 0 
L 0 0 
z
" style="fill: #ffffff"/>
  </g>
  <g id="axes_1">
   <g id="patch_2">
    <path d="M 77.478125 328.398906 
L 532.926066 328.398906 
L 532.926066 6.758906 
L 77.478125 6.758906 
z
" style="fill: #f3f4f6"/>
   </g>
   <g id="matplotlib.axis_1">
    <g id="xtick_1">
     <g id="line2d_1">
      <path d="M 77.478125 328.398906 
L 77.478125 6.758906 
" clip-path="url(#pb3c3110a7f)" style="fill: none; stroke: #ffffff; stroke-width: 2; stroke-linecap: square"/>
     </g>
     <g id="line2d_2">
      <defs>
       <path id="m571ca0ff57" d="M 0 0 
L 0 3.5 
" style="stroke: #000000; stroke-width: 0.8"/>
      </defs>
      <g>
       <use xlink:href="#m571ca0ff57" x="77.478125" y="328.398906" style="stroke: #000000; stroke-width: 0.8"/>
      </g>
     </g>
     <g id="text_1">
      <text style="font: 14px 'Times New Roman', 'Times', 'DejaVu Serif', serif; text-anchor: middle" x="77.478125" y="346.036719" transform="rotate(-0 77.478125 346.036719)">0.0M</text>
     </g>
    </g>
    <g id="xtick_2">
     <g id="line2d_3">
      <path d="M 122.129884 328.398906 
L 122.129884 6.758906 
" clip-path="url(#pb3c3110a7f)" style="fill: none; stroke: #ffffff; stroke-width: 2; stroke-linecap: square"/>
     </g>
     <g id="line2d_4">
      <g>
       <use xlink:href="#m571ca0ff57" x="122.129884" y="328.398906" style="stroke: #000000; stroke-width: 0.8"/>
      </g>
     </g>
     <g id="text_2">
      <text style="font: 14px 'Times New Roman', 'Times', 'DejaVu Serif', serif; text-anchor: middle" x="122.129884" y="346.036719" transform="rotate(-0 122.129884 346.036719)">0.5M</text>
     </g>
    </g>
    <g id="xtick_3">
     <g id="line2d_5">
      <path d="M 166.781643 328.398906 
L 166.781643 6.758906 
" clip-path="url(#pb3c3110a7f)" style="fill: none; stroke: #ffffff; stroke-width: 2; stroke-linecap: square"/>
     </g>
     <g id="line2d_6">
      <g>
       <use xlink:href="#m571ca0ff57" x="166.781643" y="328.398906" style="stroke: #000000; stroke-width: 0.8"/>
      </g>
     </g>
     <g id="text_3">
      <text style="font: 14px 'Times New Roman', 'Times', 'DejaVu Serif', serif; text-anchor: middle" x="166.781643" y="346.036719" transform="rotate(-0 166.781643 346.036719)">1.0M</text>
     </g>
    </g>
    <g id="xtick_4">
     <g id="line2d_7">
      <path d="M 211.433402 328.398906 
L 211.433402 6.758906 
" clip-path="url(#pb3c3110a7f)" style="fill: none; stroke: #ffffff; stroke-width: 2; stroke-linecap: square"/>
     </g>
     <g id="line2d_8">
      <g>
       <use xlink:href="#m571ca0ff57" x="211.433402" y="328.398906" style="stroke: #000000; stroke-width: 0.8"/>
      </g>
     </g>
     <g id="text_4">
      <text style="font: 14px 'Times New Roman', 'Times', 'DejaVu Serif', serif; text-anchor: middle" x="211.433402" y="346.036719" transform="rotate(-0 211.433402 346.036719)">1.5M</text>
     </g>
    </g>
    <g id="xtick_5">
     <g id="line2d_9">
      <path d="M 256.085161 328.398906 
L 256.085161 6.758906 
" clip-path="url(#pb3c3110a7f)" style="fill: none; stroke: #ffffff; stroke-width: 2; stroke-linecap: square"/>
     </g>
     <g id="line2d_10">
      <g>
       <use xlink:href="#m571ca0ff57" x="256.085161" y="328.398906" style="stroke: #000000; stroke-width: 0.8"/>
      </g>
     </g>
     <g id="text_5">
      <text style="font: 14px 'Times New Roman', 'Times', 'DejaVu Serif', serif; text-anchor: middle" x="256.085161" y="346.036719" transform="rotate(-0 256.085161 346.036719)">2.0M</text>
     </g>
    </g>
    <g id="xtick_6">
     <g id="line2d_11">
      <path d="M 300.73692 328.398906 
L 300.73692 6.758906 
" clip-path="url(#pb3c3110a7f)" style="fill: none; stroke: #ffffff; stroke-width: 2; stroke-linecap: square"/>
     </g>
     <g id="line2d_12">
      <g>
       <use xlink:href="#m571ca0ff57" x="300.73692" y="328.398906" style="stroke: #000000; stroke-width: 0.8"/>
      </g>
     </g>
     <g id="text_6">
      <text style="font: 14px 'Times New Roman', 'Times', 'DejaVu Serif', serif; text-anchor: middle" x="300.73692" y="346.036719" transform="rotate(-0 300.73692 346.036719)">2.5M</text>
     </g>
    </g>
    <g id="xtick_7">
     <g id="line2d_13">
      <path d="M 345.388679 328.398906 
L 345.388679 6.758906 
" clip-path="url(#pb3c3110a7f)" style="fill: none; stroke: #ffffff; stroke-width: 2; stroke-linecap: square"/>
     </g>
     <g id="line2d_14">
      <g>
       <use xlink:href="#m571ca0ff57" x="345.388679" y="328.398906" style="stroke: #000000; stroke-width: 0.8"/>
      </g>
     </g>
     <g id="text_7">
      <text style="font: 14px 'Times New Roman', 'Times', 'DejaVu Serif', serif; text-anchor: middle" x="345.388679" y="346.036719" transform="rotate(-0 345.388679 346.036719)">3.0M</text>
     </g>
    </g>
    <g id="xtick_8">
     <g id="line2d_15">
      <path d="M 390.040438 328.398906 
L 390.040438 6.758906 
" clip-path="url(#pb3c3110a7f)" style="fill: none; stroke: #ffffff; stroke-width: 2; stroke-linecap: square"/>
     </g>
     <g id="line2d_16">
      <g>
       <use xlink:href="#m571ca0ff57" x="390.040438" y="328.398906" style="stroke: #000000; stroke-width: 0.8"/>
      </g>
     </g>
     <g id="text_8">
      <text style="font: 14px 'Times New Roman', 'Times', 'DejaVu Serif', serif; text-anchor: middle" x="390.040438" y="346.036719" transform="rotate(-0 390.040438 346.036719)">3.5M</text>
     </g>
    </g>
    <g id="xtick_9">
     <g id="line2d_17">
      <path d="M 434.692197 328.398906 
L 434.692197 6.758906 
" clip-path="url(#pb3c3110a7f)" style="fill: none; stroke: #ffffff; stroke-width: 2; stroke-linecap: square"/>
     </g>
     <g id="line2d_18">
      <g>
       <use xlink:href="#m571ca0ff57" x="434.692197" y="328.398906" style="stroke: #000000; stroke-width: 0.8"/>
      </g>
     </g>
     <g id="text_9">
      <text style="font: 14px 'Times New Roman', 'Times', 'DejaVu Serif', serif; text-anchor: middle" x="434.692197" y="346.036719" transform="rotate(-0 434.692197 346.036719)">4.0M</text>
     </g>
    </g>
    <g id="xtick_10">
     <g id="line2d_19">
      <path d="M 479.343955 328.398906 
L 479.343955 6.758906 
" clip-path="url(#pb3c3110a7f)" style="fill: none; stroke: #ffffff; stroke-width: 2; stroke-linecap: square"/>
     </g>
     <g id="line2d_20">
      <g>
       <use xlink:href="#m571ca0ff57" x="479.343955" y="328.398906" style="stroke: #000000; stroke-width: 0.8"/>
      </g>
     </g>
     <g id="text_10">
      <text style="font: 14px 'Times New Roman', 'Times', 'DejaVu Serif', serif; text-anchor: middle" x="479.343955" y="346.036719" transform="rotate(-0 479.343955 346.036719)">4.5M</text>
     </g>
    </g>
    <g id="xtick_11">
     <g id="line2d_21">
      <path d="M 523.995714 328.398906 
L 523.995714 6.758906 
" clip-path="url(#pb3c3110a7f)" style="fill: none; stroke: #ffffff; stroke-width: 2; stroke-linecap: square"/>
     </g>
     <g id="line2d_22">
      <g>
       <use xlink:href="#m571ca0ff57" x="523.995714" y="328.398906" style="stroke: #000000; stroke-width: 0.8"/>
      </g>
     </g>
     <g id="text_11">
      <text style="font: 14px 'Times New Roman', 'Times', 'DejaVu Serif', serif; text-anchor: middle" x="523.995714" y="346.036719" transform="rotate(-0 523.995714 346.036719)">5.0M</text>
     </g>
    </g>
    <g id="xtick_12">
     <g id="line2d_23">
      <defs>
       <path id="m60bd5f97d8" d="M 0 0 
L 0 2 
" style="stroke: #000000; stroke-width: 0.6"/>
      </defs>
      <g>
       <use xlink:href="#m60bd5f97d8" x="86.408477" y="328.398906" style="stroke: #000000; stroke-width: 0.6"/>
      </g>
     </g>
    </g>
    <g id="xtick_13">
     <g id="line2d_24">
      <g>
       <use xlink:href="#m60bd5f97d8" x="95.338829" y="328.398906" style="stroke: #000000; stroke-width: 0.6"/>
      </g>
     </g>
    </g>
    <g id="xtick_14">
     <g id="line2d_25">
      <g>
       <use xlink:href="#m60bd5f97d8" x="104.26918" y="328.398906" style="stroke: #000000; stroke-width: 0.6"/>
      </g>
     </g>
    </g>
    <g id="xtick_15">
     <g id="line2d_26">
      <g>
       <use xlink:href="#m60bd5f97d8" x="113.199532" y="328.398906" style="stroke: #000000; stroke-width: 0.6"/>
      </g>
     </g>
    </g>
    <g id="xtick_16">
     <g id="line2d_27">
      <g>
       <use xlink:href="#m60bd5f97d8" x="131.060236" y="328.398906" style="stroke: #000000; stroke-width: 0.6"/>
      </g>
     </g>
    </g>
    <g id="xtick_17">
     <g id="line2d_28">
      <g>
       <use xlink:href="#m60bd5f97d8" x="139.990588" y="328.398906" style="stroke: #000000; stroke-width: 0.6"/>
      </g>
     </g>
    </g>
    <g id="xtick_18">
     <g id="line2d_29">
      <g>
       <use xlink:href="#m60bd5f97d8" x="148.920939" y="328.398906" style="stroke: #000000; stroke-width: 0.6"/>
      </g>
     </g>
    </g>
    <g id="xtick_19">
     <g id="line2d_30">
      <g>
       <use xlink:href="#m60bd5f97d8" x="157.851291" y="328.398906" style="stroke: #000000; stroke-width: 0.6"/>
      </g>
     </g>
    </g>
    <g id="xtick_20">
     <g id="line2d_31">
      <g>
       <use xlink:href="#m60bd5f97d8" x="175.711995" y="328.398906" style="stroke: #000000; stroke-width: 0.6"/>
      </g>
     </g>
    </g>
    <g id="xtick_21">
     <g id="line2d_32">
      <g>
       <use xlink:href="#m60bd5f97d8" x="184.642346" y="328.398906" style="stroke: #000000; stroke-width: 0.6"/>
      </g>
     </g>
    </g>
    <g id="xtick_22">
     <g id="line2d_33">
      <g>
       <use xlink:href="#m60bd5f97d8" x="193.572698" y="328.398906" style="stroke: #000000; stroke-width: 0.6"/>
      </g>
     </g>
    </g>
    <g id="xtick_23">
     <g id="line2d_34">
      <g>
       <use xlink:href="#m60bd5f97d8" x="202.50305" y="328.398906" style="stroke: #000000; stroke-width: 0.6"/>
      </g>
     </g>
    </g>
    <g id="xtick_24">
     <g id="line2d_35">
      <g>
       <use xlink:href="#m60bd5f97d8" x="220.363754" y="328.398906" style="stroke: #000000; stroke-width: 0.6"/>
      </g>
     </g>
    </g>
    <g id="xtick_25">
     <g id="line2d_36">
      <g>
       <use xlink:href="#m60bd5f97d8" x="229.294105" y="328.398906" style="stroke: #000000; stroke-width: 0.6"/>
      </g>
     </g>
    </g>
    <g id="xtick_26">
     <g id="line2d_37">
      <g>
       <use xlink:href="#m60bd5f97d8" x="238.224457" y="328.398906" style="stroke: #000000; stroke-width: 0.6"/>
      </g>
     </g>
    </g>
    <g id="xtick_27">
     <g id="line2d_38">
      <g>
       <use xlink:href="#m60bd5f97d8" x="247.154809" y="328.398906" style="stroke: #000000; stroke-width: 0.6"/>
      </g>
     </g>
    </g>
    <g id="xtick_28">
     <g id="line2d_39">
      <g>
       <use xlink:href="#m60bd5f97d8" x="265.015513" y="328.398906" style="stroke: #000000; stroke-width: 0.6"/>
      </g>
     </g>
    </g>
    <g id="xtick_29">
     <g id="line2d_40">
      <g>
       <use xlink:href="#m60bd5f97d8" x="273.945864" y="328.398906" style="stroke: #000000; stroke-width: 0.6"/>
      </g>
     </g>
    </g>
    <g id="xtick_30">
     <g id="line2d_41">
      <g>
       <use xlink:href="#m60bd5f97d8" x="282.876216" y="328.398906" style="stroke: #000000; stroke-width: 0.6"/>
      </g>
     </g>
    </g>
    <g id="xtick_31">
     <g id="line2d_42">
      <g>
       <use xlink:href="#m60bd5f97d8" x="291.806568" y="328.398906" style="stroke: #000000; stroke-width: 0.6"/>
      </g>
     </g>
    </g>
    <g id="xtick_32">
     <g id="line2d_43">
      <g>
       <use xlink:href="#m60bd5f97d8" x="309.667271" y="328.398906" style="stroke: #000000; stroke-width: 0.6"/>
      </g>
     </g>
    </g>
    <g id="xtick_33">
     <g id="line2d_44">
      <g>
       <use xlink:href="#m60bd5f97d8" x="318.597623" y="328.398906" style="stroke: #000000; stroke-width: 0.6"/>
      </g>
     </g>
    </g>
    <g id="xtick_34">
     <g id="line2d_45">
      <g>
       <use xlink:href="#m60bd5f97d8" x="327.527975" y="328.398906" style="stroke: #000000; stroke-width: 0.6"/>
      </g>
     </g>
    </g>
    <g id="xtick_35">
     <g id="line2d_46">
      <g>
       <use xlink:href="#m60bd5f97d8" x="336.458327" y="328.398906" style="stroke: #000000; stroke-width: 0.6"/>
      </g>
     </g>
    </g>
    <g id="xtick_36">
     <g id="line2d_47">
      <g>
       <use xlink:href="#m60bd5f97d8" x="354.31903" y="328.398906" style="stroke: #000000; stroke-width: 0.6"/>
      </g>
     </g>
    </g>
    <g id="xtick_37">
     <g id="line2d_48">
      <g>
       <use xlink:href="#m60bd5f97d8" x="363.249382" y="328.398906" style="stroke: #000000; stroke-width: 0.6"/>
      </g>
     </g>
    </g>
    <g id="xtick_38">
     <g id="line2d_49">
      <g>
       <use xlink:href="#m60bd5f97d8" x="372.179734" y="328.398906" style="stroke: #000000; stroke-width: 0.6"/>
      </g>
     </g>
    </g>
    <g id="xtick_39">
     <g id="line2d_50">
      <g>
       <use xlink:href="#m60bd5f97d8" x="381.110086" y="328.398906" style="stroke: #000000; stroke-width: 0.6"/>
      </g>
     </g>
    </g>
    <g id="xtick_40">
     <g id="line2d_51">
      <g>
       <use xlink:href="#m60bd5f97d8" x="398.970789" y="328.398906" style="stroke: #000000; stroke-width: 0.6"/>
      </g>
     </g>
    </g>
    <g id="xtick_41">
     <g id="line2d_52">
      <g>
       <use xlink:href="#m60bd5f97d8" x="407.901141" y="328.398906" style="stroke: #000000; stroke-width: 0.6"/>
      </g>
     </g>
    </g>
    <g id="xtick_42">
     <g id="line2d_53">
      <g>
       <use xlink:href="#m60bd5f97d8" x="416.831493" y="328.398906" style="stroke: #000000; stroke-width: 0.6"/>
      </g>
     </g>
    </g>
    <g id="xtick_43">
     <g id="line2d_54">
      <g>
       <use xlink:href="#m60bd5f97d8" x="425.761845" y="328.398906" style="stroke: #000000; stroke-width: 0.6"/>
      </g>
     </g>
    </g>
    <g id="xtick_44">
     <g id="line2d_55">
      <g>
       <use xlink:href="#m60bd5f97d8" x="443.622548" y="328.398906" style="stroke: #000000; stroke-width: 0.6"/>
      </g>
     </g>
    </g>
    <g id="xtick_45">
     <g id="line2d_56">
      <g>
       <use xlink:href="#m60bd5f97d8" x="452.5529" y="328.398906" style="stroke: #000000; stroke-width: 0.6"/>
      </g>
     </g>
    </g>
    <g id="xtick_46">
     <g id="line2d_57">
      <g>
       <use xlink:href="#m60bd5f97d8" x="461.483252" y="328.398906" style="stroke: #000000; stroke-width: 0.6"/>
      </g>
     </g>
    </g>
    <g id="xtick_47">
     <g id="line2d_58">
      <g>
       <use xlink:href="#m60bd5f97d8" x="470.413604" y="328.398906" style="stroke: #000000; stroke-width: 0.6"/>
      </g>
     </g>
    </g>
    <g id="xtick_48">
     <g id="line2d_59">
      <g>
       <use xlink:href="#m60bd5f97d8" x="488.274307" y="328.398906" style="stroke: #000000; stroke-width: 0.6"/>
      </g>
     </g>
    </g>
    <g id="xtick_49">
     <g id="line2d_60">
      <g>
       <use xlink:href="#m60bd5f97d8" x="497.204659" y="328.398906" style="stroke: #000000; stroke-width: 0.6"/>
      </g>
     </g>
    </g>
    <g id="xtick_50">
     <g id="line2d_61">
      <g>
       <use xlink:href="#m60bd5f97d8" x="506.135011" y="328.398906" style="stroke: #000000; stroke-width: 0.6"/>
      </g>
     </g>
    </g>
    <g id="xtick_51">
     <g id="line2d_62">
      <g>
       <use xlink:href="#m60bd5f97d8" x="515.065363" y="328.398906" style="stroke: #000000; stroke-width: 0.6"/>
      </g>
     </g>
    </g>
    <g id="xtick_52">
     <g id="line2d_63">
      <g>
       <use xlink:href="#m60bd5f97d8" x="532.926066" y="328.398906" style="stroke: #000000; stroke-width: 0.6"/>
      </g>
     </g>
    </g>
    <g id="text_12">
     <text style="font: 18px 'Times New Roman', 'Times', 'DejaVu Serif', serif; text-anchor: middle" x="305.202096" y="366.625469" transform="rotate(-0 305.202096 366.625469)">Steps</text>
    </g>
   </g>
   <g id="matplotlib.axis_2">
    <g id="ytick_1">
     <g id="line2d_64">
      <path d="M 77.478125 328.398906 
L 532.926066 328.398906 
" clip-path="url(#pb3c3110a7f)" style="fill: none; stroke: #ffffff; stroke-width: 2; stroke-linecap: square"/>
     </g>
     <g id="line2d_65">
      <defs>
       <path id="m902bb62d1a" d="M 0 0 
L -3.5 0 
" style="stroke: #000000; stroke-width: 0.8"/>
      </defs>
      <g>
       <use xlink:href="#m902bb62d1a" x="77.478125" y="328.398906" style="stroke: #000000; stroke-width: 0.8"/>
      </g>
     </g>
     <g id="text_13">
      <text style="font: 14px 'Times New Roman', 'Times', 'DejaVu Serif', serif; text-anchor: end" x="70.478125" y="333.717812" transform="rotate(-0 70.478125 333.717812)">−1000</text>
     </g>
    </g>
    <g id="ytick_2">
     <g id="line2d_66">
      <path d="M 77.478125 282.450335 
L 532.926066 282.450335 
" clip-path="url(#pb3c3110a7f)" style="fill: none; stroke: #ffffff; stroke-width: 2; stroke-linecap: square"/>
     </g>
     <g id="line2d_67">
      <g>
       <use xlink:href="#m902bb62d1a" x="77.478125" y="282.450335" style="stroke: #000000; stroke-width: 0.8"/>
      </g>
     </g>
     <g id="text_14">
      <text style="font: 14px 'Times New Roman', 'Times', 'DejaVu Serif', serif; text-anchor: end" x="70.478125" y="287.769241" transform="rotate(-0 70.478125 287.769241)">−750</text>
     </g>
    </g>
    <g id="ytick_3">
     <g id="line2d_68">
      <path d="M 77.478125 236.501763 
L 532.926066 236.501763 
" clip-path="url(#pb3c3110a7f)" style="fill: none; stroke: #ffffff; stroke-width: 2; stroke-linecap: square"/>
     </g>
     <g id="line2d_69">
      <g>
       <use xlink:href="#m902bb62d1a" x="77.478125" y="236.501763" style="stroke: #000000; stroke-width: 0.8"/>
      </g>
     </g>
     <g id="text_15">
      <text style="font: 14px 'Times New Roman', 'Times', 'DejaVu Serif', serif; text-anchor: end" x="70.478125" y="241.82067" transform="rotate(-0 70.478125 241.82067)">−500</text>
     </g>
    </g>
    <g id="ytick_4">
     <g id="line2d_70">
      <path d="M 77.478125 190.553192 
L 532.926066 190.553192 
" clip-path="url(#pb3c3110a7f)" style="fill: none; stroke: #ffffff; stroke-width: 2; stroke-linecap: square"/>
     </g>
     <g id="line2d_71">
      <g>
       <use xlink:href="#m902bb62d1a" x="77.478125" y="190.553192" style="stroke: #000000; stroke-width: 0.8"/>
      </g>
     </g>
     <g id="text_16">
      <text style="font: 14px 'Times New Roman', 'Times', 'DejaVu Serif', serif; text-anchor: end" x="70.478125" y="195.872098" transform="rotate(-0 70.478125 195.872098)">−250</text>
     </g>
    </g>
    <g id="ytick_5">
     <g id="line2d_72">
      <path d="M 77.478125 144.604621 
L 532.926066 144.604621 
" clip-path="url(#pb3c3110a7f)" style="fill: none; stroke: #ffffff; stroke-width: 2; stroke-linecap: square"/>
     </g>
     <g id="line2d_73">
      <g>
       <use xlink:href="#m902bb62d1a" x="77.478125" y="144.604621" style="stroke: #000000; stroke-width: 0.8"/>
      </g>
     </g>
     <g id="text_17">
      <text style="font: 14px 'Times New Roman', 'Times', 'DejaVu Serif', serif; text-anchor: end" x="70.478125" y="149.923527" transform="rotate(-0 70.478125 149.923527)">0</text>
     </g>
    </g>
    <g id="ytick_6">
     <g id="line2d_74">
      <path d="M 77.478125 98.656049 
L 532.926066 98.656049 
" clip-path="url(#pb3c3110a7f)" style="fill: none; stroke: #ffffff; stroke-width: 2; stroke-linecap: square"/>
     </g>
     <g id="line2d_75">
      <g>
       <use xlink:href="#m902bb62d1a" x="77.478125" y="98.656049" style="stroke: #000000; stroke-width: 0.8"/>
      </g>
     </g>
     <g id="text_18">
      <text style="font: 14px 'Times New Roman', 'Times', 'DejaVu Serif', serif; text-anchor: end" x="70.478125" y="103.974955" transform="rotate(-0 70.478125 103.974955)">250</text>
     </g>
    </g>
    <g id="ytick_7">
     <g id="line2d_76">
      <path d="M 77.478125 52.707478 
L 532.926066 52.707478 
" clip-path="url(#pb3c3110a7f)" style="fill: none; stroke: #ffffff; stroke-width: 2; stroke-linecap: square"/>
     </g>
     <g id="line2d_77">
      <g>
       <use xlink:href="#m902bb62d1a" x="77.478125" y="52.707478" style="stroke: #000000; stroke-width: 0.8"/>
      </g>
     </g>
     <g id="text_19">
      <text style="font: 14px 'Times New Roman', 'Times', 'DejaVu Serif', serif; text-anchor: end" x="70.478125" y="58.026384" transform="rotate(-0 70.478125 58.026384)">500</text>
     </g>
    </g>
    <g id="ytick_8">
     <g id="line2d_78">
      <path d="M 77.478125 6.758906 
L 532.926066 6.758906 
" clip-path="url(#pb3c3110a7f)" style="fill: none; stroke: #ffffff; stroke-width: 2; stroke-linecap: square"/>
     </g>
     <g id="line2d_79">
      <g>
       <use xlink:href="#m902bb62d1a" x="77.478125" y="6.758906" style="stroke: #000000; stroke-width: 0.8"/>
      </g>
     </g>
     <g id="text_20">
      <text style="font: 14px 'Times New Roman', 'Times', 'DejaVu Serif', serif; text-anchor: end" x="70.478125" y="12.077812" transform="rotate(-0 70.478125 12.077812)">750</text>
     </g>
    </g>
    <g id="text_21">
     <text style="font: 18px 'Times New Roman', 'Times', 'DejaVu Serif', serif; text-anchor: middle" x="15.117188" y="167.578906" transform="rotate(-90 15.117188 167.578906)">Average episode reward</text>
    </g>
   </g>
   <g id="line2d_80">
    <path d="M 78.192553 305.090114 
L 81.764694 310.528648 
L 85.336835 288.68699 
L 88.908975 284.8882 
L 92.481116 282.781409 
L 96.053257 286.655594 
L 99.625397 245.480357 
L 103.197538 249.668901 
L 106.769679 212.237569 
L 110.34182 203.860705 
L 113.91396 204.872454 
L 117.486101 179.793306 
L 121.058242 184.262094 
L 124.630382 165.143241 
L 128.202523 187.955468 
L 131.774664 171.359977 
L 135.346805 184.270591 
L 138.918945 174.110502 
L 142.491086 154.288487 
L 146.063227 165.64964 
L 149.635367 156.041105 
L 153.207508 155.57173 
L 156.779649 164.214468 
L 160.35179 165.644794 
L 163.92393 178.350896 
L 167.496071 172.83992 
L 171.068212 159.490128 
L 174.640352 175.200651 
L 178.212493 158.23659 
L 181.784634 150.217321 
L 185.356775 149.257564 
L 188.928915 146.992152 
L 192.501056 146.709251 
L 196.073197 160.55359 
L 199.645337 152.350233 
L 203.217478 156.638129 
L 206.789619 147.848101 
L 210.36176 156.491163 
L 213.9339 160.091073 
L 217.506041 146.28208 
L 221.078182 148.354713 
L 224.650322 137.9198 
L 228.222463 149.991851 
L 231.794604 139.465348 
L 235.366745 148.821109 
L 238.938885 152.014311 
L 242.511026 181.565574 
L 246.083167 156.601717 
L 249.655307 157.771859 
L 253.227448 139.008888 
L 256.799589 137.78816 
L 260.37173 142.921446 
L 263.94387 149.207489 
L 267.516011 142.253213 
L 271.088152 144.092417 
L 274.660292 141.824423 
L 278.232433 140.731044 
L 281.804574 137.48463 
L 285.376715 146.086038 
L 288.948855 144.431229 
L 292.520996 169.181506 
L 296.093137 150.195593 
L 299.665277 140.395256 
L 303.237418 150.444612 
L 306.809559 135.083199 
L 310.3817 134.483144 
L 313.95384 134.411754 
L 317.525981 132.874474 
L 321.098122 150.327962 
L 324.670262 140.244068 
L 328.242403 129.443298 
L 331.814544 149.918342 
L 335.386685 142.34961 
L 338.958825 135.365785 
L 342.530966 133.496812 
L 346.103107 140.457082 
L 349.675247 150.508648 
L 353.247388 130.773533 
L 356.819529 134.326658 
L 360.39167 152.28763 
L 363.96381 138.0079 
L 367.535951 175.117748 
L 371.108092 148.518223 
L 374.680232 143.673397 
L 378.252373 145.744325 
L 381.824514 150.871638 
L 385.396655 136.000121 
L 388.968795 148.300279 
L 392.540936 149.56185 
L 396.113077 140.023086 
L 399.685218 143.424048 
L 403.257358 144.762582 
L 406.829499 159.95313 
L 410.40164 143.470439 
L 413.97378 135.303572 
L 417.545921 126.848827 
L 421.118062 146.866561 
L 424.690203 131.320374 
L 428.262343 125.116068 
L 431.834484 139.137603 
L 435.406625 143.828468 
L 438.978765 132.355924 
L 442.550906 126.648371 
L 446.123047 128.38861 
L 449.695188 147.688416 
L 453.267328 125.360977 
L 456.839469 137.749146 
L 460.41161 141.707883 
L 463.98375 128.265167 
L 467.555891 128.701496 
L 471.128032 147.776348 
L 474.700173 124.718845 
L 478.272313 132.034355 
L 481.844454 141.153716 
L 485.416595 115.591847 
L 488.988735 128.131336 
L 492.560876 125.7013 
L 496.133017 119.735663 
L 499.705158 141.870057 
L 503.277298 117.091435 
L 506.849439 121.993675 
L 510.42158 129.579555 
L 513.99372 123.224271 
L 517.565861 132.412167 
L 521.138002 125.545921 
" clip-path="url(#pb3c3110a7f)" style="fill: none; stroke: #c3e5f8; stroke-linecap: round"/>
   </g>
   <g id="line2d_81">
    <path d="M 78.192553 300.640282 
L 81.764694 303.667806 
L 85.336835 296.041666 
L 88.908975 274.105172 
L 92.481116 272.033134 
L 96.053257 266.791385 
L 99.625397 268.901755 
L 103.197538 258.726636 
L 106.769679 257.781494 
L 110.34182 251.096347 
L 113.91396 229.132313 
L 117.486101 205.268261 
L 121.058242 183.328766 
L 124.630382 188.631056 
L 128.202523 172.752826 
L 131.774664 178.752135 
L 135.346805 164.569095 
L 138.918945 155.826446 
L 142.491086 176.413837 
L 146.063227 154.248096 
L 149.635367 124.944039 
L 153.207508 119.288985 
L 156.779649 133.555343 
L 160.35179 119.428452 
L 163.92393 106.765156 
L 167.496071 102.776344 
L 171.068212 128.263978 
L 174.640352 98.502709 
L 178.212493 114.353597 
L 181.784634 96.921064 
L 185.356775 96.026099 
L 188.928915 106.444584 
L 192.501056 103.539737 
L 196.073197 101.123945 
L 199.645337 115.342633 
L 203.217478 88.086717 
L 206.789619 126.183739 
L 210.36176 102.575795 
L 213.9339 106.222352 
L 217.506041 83.340216 
L 221.078182 92.356978 
L 224.650322 88.242853 
L 228.222463 101.791919 
L 231.794604 107.186178 
L 235.366745 104.804534 
L 238.938885 114.845912 
L 242.511026 112.640863 
L 246.083167 109.855099 
L 249.655307 90.214822 
L 253.227448 83.531823 
L 256.799589 88.390705 
L 260.37173 100.866634 
L 263.94387 93.900877 
L 267.516011 84.977296 
L 271.088152 93.778534 
L 274.660292 77.309864 
L 278.232433 112.046664 
L 281.804574 87.790115 
L 285.376715 91.939778 
L 288.948855 75.468472 
L 292.520996 108.335027 
L 296.093137 92.543487 
L 299.665277 87.751548 
L 303.237418 66.93887 
L 306.809559 95.142105 
L 310.3817 85.084366 
L 313.95384 112.004894 
L 317.525981 110.833021 
L 321.098122 86.450629 
L 324.670262 79.519883 
L 328.242403 86.954678 
L 331.814544 77.599903 
L 335.386685 93.616323 
L 338.958825 95.011714 
L 342.530966 95.058543 
L 346.103107 89.32785 
L 349.675247 75.764316 
L 353.247388 73.28891 
L 356.819529 88.284561 
L 360.39167 83.892025 
L 363.96381 87.888232 
L 367.535951 74.616163 
L 371.108092 66.092153 
L 374.680232 71.127134 
L 378.252373 71.32071 
L 381.824514 76.081962 
L 385.396655 75.435536 
L 388.968795 62.298586 
L 392.540936 97.12537 
L 396.113077 73.108284 
L 399.685218 78.575385 
L 403.257358 80.826265 
L 406.829499 68.895072 
L 410.40164 78.868537 
L 413.97378 71.312532 
L 417.545921 45.132862 
L 421.118062 67.846842 
L 424.690203 67.70677 
L 428.262343 62.951255 
L 431.834484 71.682022 
L 435.406625 73.413507 
L 438.978765 65.142568 
L 442.550906 60.300137 
L 446.123047 74.665965 
L 449.695188 71.898421 
L 453.267328 63.437024 
L 456.839469 60.954197 
L 460.41161 57.542297 
L 463.98375 60.40503 
L 467.555891 44.925881 
L 471.128032 49.562951 
L 474.700173 60.839539 
L 478.272313 64.194458 
L 481.844454 44.113906 
L 485.416595 72.02464 
L 488.988735 48.630933 
L 492.560876 42.509161 
L 496.133017 56.963767 
L 499.705158 48.074143 
L 503.277298 59.210872 
L 506.849439 67.363215 
L 510.42158 44.154739 
L 513.99372 53.748051 
L 517.565861 62.051808 
L 521.138002 52.364602 
" clip-path="url(#pb3c3110a7f)" style="fill: none; stroke: #f9dfca; stroke-linecap: round"/>
   </g>
   <g id="line2d_82">
    <path d="M 78.192553 305.101769 
L 81.764694 307.463173 
L 85.336835 278.529371 
L 88.908975 281.743943 
L 92.481116 269.048429 
L 96.053257 268.511035 
L 99.625397 267.456091 
L 103.197538 259.404916 
L 106.769679 259.64876 
L 110.34182 250.19593 
L 113.91396 245.219865 
L 117.486101 237.663625 
L 121.058242 233.369487 
L 124.630382 228.467197 
L 128.202523 225.568191 
L 131.774664 223.269781 
L 135.346805 216.537563 
L 138.918945 223.529459 
L 142.491086 208.415245 
L 146.063227 209.353528 
L 149.635367 205.476084 
L 153.207508 215.193282 
L 156.779649 210.089148 
L 160.35179 199.251853 
L 163.92393 201.119832 
L 167.496071 194.977189 
L 171.068212 201.14537 
L 174.640352 198.67325 
L 178.212493 201.450873 
L 181.784634 198.106695 
L 185.356775 194.700286 
L 188.928915 197.716772 
L 192.501056 200.345493 
L 196.073197 208.67812 
L 199.645337 195.571643 
L 203.217478 202.248612 
L 206.789619 205.99102 
L 210.36176 194.088422 
L 213.9339 194.708307 
L 217.506041 205.247929 
L 221.078182 205.858105 
L 224.650322 197.927696 
L 228.222463 197.130322 
L 231.794604 208.027077 
L 235.366745 196.885272 
L 238.938885 198.344599 
L 242.511026 217.085648 
L 246.083167 193.283273 
L 249.655307 200.563424 
L 253.227448 198.335787 
L 256.799589 200.115986 
L 260.37173 193.612429 
L 263.94387 194.668556 
L 267.516011 198.892594 
L 271.088152 186.570025 
L 274.660292 198.237165 
L 278.232433 188.845248 
L 281.804574 198.722923 
L 285.376715 199.631019 
L 288.948855 210.931282 
L 292.520996 199.627502 
L 296.093137 199.316934 
L 299.665277 201.005645 
L 303.237418 204.100325 
L 306.809559 209.844828 
L 310.3817 187.790181 
L 313.95384 189.882767 
L 317.525981 193.849593 
L 321.098122 184.660164 
L 324.670262 206.978275 
L 328.242403 197.534122 
L 331.814544 190.851232 
L 335.386685 186.021208 
L 338.958825 201.166162 
L 342.530966 205.348082 
L 346.103107 189.970632 
L 349.675247 204.280631 
L 353.247388 186.292365 
L 356.819529 190.963061 
L 360.39167 193.672664 
L 363.96381 191.428627 
L 367.535951 187.742802 
L 371.108092 188.509925 
L 374.680232 183.199056 
L 378.252373 192.999454 
L 381.824514 189.333331 
L 385.396655 181.940224 
L 388.968795 206.60883 
L 392.540936 205.917459 
L 396.113077 197.344191 
L 399.685218 184.036342 
L 403.257358 205.547985 
L 406.829499 195.130689 
L 410.40164 190.49296 
L 413.97378 184.76471 
L 417.545921 191.644398 
L 421.118062 202.267969 
L 424.690203 186.875711 
L 428.262343 186.83023 
L 431.834484 188.893698 
L 435.406625 181.822417 
L 438.978765 191.665319 
L 442.550906 182.222503 
L 446.123047 185.060136 
L 449.695188 184.832407 
L 453.267328 187.497993 
L 456.839469 189.711787 
L 460.41161 201.079969 
L 463.98375 191.995042 
L 467.555891 176.235327 
L 471.128032 184.827639 
L 474.700173 183.665921 
L 478.272313 177.304943 
L 481.844454 177.67797 
L 485.416595 177.385129 
L 488.988735 193.465575 
L 492.560876 182.259335 
L 496.133017 185.260956 
L 499.705158 189.921966 
L 503.277298 194.004893 
L 506.849439 185.777109 
L 510.42158 173.914293 
L 513.99372 184.636466 
L 517.565861 184.480866 
L 521.138002 185.212879 
" clip-path="url(#pb3c3110a7f)" style="fill: none; stroke: #c0f8e9; stroke-linecap: round"/>
   </g>
   <g id="line2d_83">
    <path d="M 78.192553 300.586716 
L 81.764694 303.497417 
L 85.336835 277.433325 
L 88.908975 270.753484 
L 92.481116 265.353002 
L 96.053257 257.351399 
L 99.625397 269.758455 
L 103.197538 261.040421 
L 106.769679 247.825147 
L 110.34182 256.725529 
L 113.91396 232.096102 
L 117.486101 225.299617 
L 121.058242 228.455884 
L 124.630382 226.758737 
L 128.202523 221.057289 
L 131.774664 210.468319 
L 135.346805 225.874406 
L 138.918945 210.413576 
L 142.491086 209.080035 
L 146.063227 210.684578 
L 149.635367 207.286678 
L 153.207508 207.246428 
L 156.779649 230.0845 
L 160.35179 210.929863 
L 163.92393 219.249028 
L 167.496071 224.789466 
L 171.068212 207.119525 
L 174.640352 210.901662 
L 178.212493 205.251171 
L 181.784634 217.743422 
L 185.356775 208.125581 
L 188.928915 216.738583 
L 192.501056 209.016508 
L 196.073197 212.169359 
L 199.645337 193.761515 
L 203.217478 220.381858 
L 206.789619 209.289608 
L 210.36176 212.519694 
L 213.9339 211.492963 
L 217.506041 208.263046 
L 221.078182 218.997927 
L 224.650322 208.468165 
L 228.222463 206.873875 
L 231.794604 206.289355 
L 235.366745 222.246971 
L 238.938885 203.827236 
L 242.511026 229.004799 
L 246.083167 202.492047 
L 249.655307 208.719211 
L 253.227448 211.180191 
L 256.799589 216.607928 
L 260.37173 203.981157 
L 263.94387 200.303965 
L 267.516011 212.582985 
L 271.088152 202.132423 
L 274.660292 199.955273 
L 278.232433 211.934029 
L 281.804574 200.657015 
L 285.376715 211.952449 
L 288.948855 194.949817 
L 292.520996 202.00547 
L 296.093137 210.478505 
L 299.665277 197.850523 
L 303.237418 209.039135 
L 306.809559 198.208464 
L 310.3817 198.792536 
L 313.95384 203.83653 
L 317.525981 182.431092 
L 321.098122 199.854822 
L 324.670262 193.080728 
L 328.242403 197.803615 
L 331.814544 200.89456 
L 335.386685 193.199077 
L 338.958825 186.991922 
L 342.530966 200.505808 
L 346.103107 188.263131 
L 349.675247 193.088945 
L 353.247388 195.727415 
L 356.819529 197.722885 
L 360.39167 212.691816 
L 363.96381 178.877229 
L 367.535951 203.256407 
L 371.108092 205.043073 
L 374.680232 198.803956 
L 378.252373 189.882086 
L 381.824514 201.38513 
L 385.396655 201.777791 
L 388.968795 195.939013 
L 392.540936 200.240499 
L 396.113077 188.204399 
L 399.685218 181.993291 
L 403.257358 180.920353 
L 406.829499 178.3945 
L 410.40164 191.548686 
L 413.97378 178.534943 
L 417.545921 184.128962 
L 421.118062 183.269252 
L 424.690203 188.895737 
L 428.262343 198.650803 
L 431.834484 179.174375 
L 435.406625 175.619553 
L 438.978765 198.522801 
L 442.550906 179.990391 
L 446.123047 180.901978 
L 449.695188 176.757246 
L 453.267328 182.460208 
L 456.839469 180.792281 
L 460.41161 188.127161 
L 463.98375 170.844183 
L 467.555891 175.995992 
L 471.128032 202.560908 
L 474.700173 190.685361 
L 478.272313 187.23965 
L 481.844454 180.796421 
L 485.416595 173.045233 
L 488.988735 186.830999 
L 492.560876 171.928383 
L 496.133017 173.854193 
L 499.705158 177.780684 
L 503.277298 184.50709 
L 506.849439 172.827731 
L 510.42158 171.981146 
L 513.99372 167.304655 
L 517.565861 169.201608 
L 521.138002 176.16681 
" clip-path="url(#pb3c3110a7f)" style="fill: none; stroke: #f3e6ed; stroke-linecap: round"/>
   </g>
   <g id="line2d_84">
    <path d="M 78.192553 305.090114 
L 81.764694 305.633967 
L 85.336835 303.939269 
L 88.908975 302.034162 
L 92.481116 300.108887 
L 96.053257 298.763558 
L 99.625397 293.435238 
L 103.197538 289.058604 
L 106.769679 281.3765 
L 110.34182 273.624921 
L 113.91396 266.749674 
L 117.486101 258.054037 
L 121.058242 250.674843 
L 124.630382 242.121683 
L 128.202523 236.705061 
L 131.774664 230.170553 
L 135.346805 225.580557 
L 138.918945 220.433551 
L 142.491086 213.819045 
L 146.063227 209.002104 
L 149.635367 203.706005 
L 153.207508 198.892577 
L 156.779649 195.424766 
L 160.35179 192.446769 
L 163.92393 191.037182 
L 167.496071 189.217455 
L 171.068212 186.244723 
L 174.640352 185.140315 
L 178.212493 182.449943 
L 181.784634 179.226681 
L 185.356775 176.229769 
L 188.928915 173.306007 
L 192.501056 170.646332 
L 196.073197 169.637058 
L 199.645337 167.908375 
L 203.217478 166.78135 
L 206.789619 164.888025 
L 210.36176 164.048339 
L 213.9339 163.652613 
L 217.506041 161.915559 
L 221.078182 160.559475 
L 224.650322 158.295507 
L 228.222463 157.465142 
L 231.794604 155.665162 
L 235.366745 154.980757 
L 238.938885 154.684112 
L 242.511026 157.372258 
L 246.083167 157.295204 
L 249.655307 157.34287 
L 253.227448 155.509472 
L 256.799589 153.73734 
L 260.37173 152.655751 
L 263.94387 152.310925 
L 267.516011 151.305154 
L 271.088152 150.58388 
L 274.660292 149.707934 
L 278.232433 148.810245 
L 281.804574 147.677684 
L 285.376715 147.518519 
L 288.948855 147.20979 
L 292.520996 149.406962 
L 296.093137 149.485825 
L 299.665277 148.576768 
L 303.237418 148.763552 
L 306.809559 147.395517 
L 310.3817 146.10428 
L 313.95384 144.935027 
L 317.525981 143.728972 
L 321.098122 144.388871 
L 324.670262 143.974391 
L 328.242403 142.521281 
L 331.814544 143.260987 
L 335.386685 143.16985 
L 338.958825 142.389443 
L 342.530966 141.50018 
L 346.103107 141.39587 
L 349.675247 142.307148 
L 353.247388 141.153786 
L 356.819529 140.471074 
L 360.39167 141.652729 
L 363.96381 141.288246 
L 367.535951 144.671197 
L 371.108092 145.055899 
L 374.680232 144.917649 
L 378.252373 145.000316 
L 381.824514 145.587449 
L 385.396655 144.628716 
L 388.968795 144.995872 
L 392.540936 145.45247 
L 396.113077 144.909532 
L 399.685218 144.760983 
L 403.257358 144.761143 
L 406.829499 146.280342 
L 410.40164 145.999352 
L 413.97378 144.929774 
L 417.545921 143.121679 
L 421.118062 143.496167 
L 424.690203 142.278588 
L 428.262343 140.562336 
L 431.834484 140.419862 
L 435.406625 140.760723 
L 438.978765 139.920243 
L 442.550906 138.593056 
L 446.123047 137.572611 
L 449.695188 138.584192 
L 453.267328 137.26187 
L 456.839469 137.310598 
L 460.41161 137.750326 
L 463.98375 136.80181 
L 467.555891 135.991779 
L 471.128032 137.170236 
L 474.700173 135.925097 
L 478.272313 135.536023 
L 481.844454 136.097792 
L 485.416595 134.047197 
L 488.988735 133.455611 
L 492.560876 132.68018 
L 496.133017 131.385728 
L 499.705158 132.434161 
L 503.277298 130.899889 
L 506.849439 130.009267 
L 510.42158 129.966296 
L 513.99372 129.292094 
L 517.565861 129.604101 
L 521.138002 129.198283 
" clip-path="url(#pb3c3110a7f)" style="fill: none; stroke: #0072b2; stroke-width: 2; stroke-linecap: round"/>
    <defs>
     <path id="mab16e2922f" d="M 0 5 
C 1.326016 5 2.597899 4.473168 3.535534 3.535534 
C 4.473168 2.597899 5 1.326016 5 0 
C 5 -1.326016 4.473168 -2.597899 3.535534 -3.535534 
C 2.597899 -4.473168 1.326016 -5 0 -5 
C -1.326016 -5 -2.597899 -4.473168 -3.535534 -3.535534 
C -4.473168 -2.597899 -5 -1.326016 -5 0 
C -5 1.326016 -4.473168 2.597899 -3.535534 3.535534 
C -2.597899 4.473168 -1.326016 5 0 5 
z
" style="stroke: #0072b2"/>
    </defs>
    <g clip-path="url(#pb3c3110a7f)">
     <use xlink:href="#mab16e2922f" x="78.192553" y="305.090114" style="fill-opacity: 0; stroke: #0072b2"/>
     <use xlink:href="#mab16e2922f" x="124.630382" y="242.121683" style="fill-opacity: 0; stroke: #0072b2"/>
     <use xlink:href="#mab16e2922f" x="167.496071" y="189.217455" style="fill-opacity: 0; stroke: #0072b2"/>
     <use xlink:href="#mab16e2922f" x="213.9339" y="163.652613" style="fill-opacity: 0; stroke: #0072b2"/>
     <use xlink:href="#mab16e2922f" x="256.799589" y="153.73734" style="fill-opacity: 0; stroke: #0072b2"/>
     <use xlink:href="#mab16e2922f" x="303.237418" y="148.763552" style="fill-opacity: 0; stroke: #0072b2"/>
     <use xlink:href="#mab16e2922f" x="346.103107" y="141.39587" style="fill-opacity: 0; stroke: #0072b2"/>
     <use xlink:href="#mab16e2922f" x="392.540936" y="145.45247" style="fill-opacity: 0; stroke: #0072b2"/>
     <use xlink:href="#mab16e2922f" x="435.406625" y="140.760723" style="fill-opacity: 0; stroke: #0072b2"/>
     <use xlink:href="#mab16e2922f" x="481.844454" y="136.097792" style="fill-opacity: 0; stroke: #0072b2"/>
     <use xlink:href="#mab16e2922f" x="521.138002" y="129.198283" style="fill-opacity: 0; stroke: #0072b2"/>
    </g>
   </g>
   <g id="line2d_85">
    <path d="M 78.192553 300.640282 
L 81.764694 300.943034 
L 85.336835 300.452897 
L 88.908975 297.818125 
L 92.481116 295.239626 
L 96.053257 292.394802 
L 99.625397 290.045497 
L 103.197538 286.913611 
L 106.769679 284.000399 
L 110.34182 280.709994 
L 113.91396 275.552226 
L 117.486101 268.523829 
L 121.058242 260.004323 
L 124.630382 252.866996 
L 128.202523 244.855579 
L 131.774664 238.245235 
L 135.346805 230.877621 
L 138.918945 223.372504 
L 142.491086 218.676637 
L 146.063227 212.233783 
L 149.635367 203.504808 
L 153.207508 195.083226 
L 156.779649 188.930438 
L 160.35179 181.980239 
L 163.92393 174.458731 
L 167.496071 167.290492 
L 171.068212 163.387841 
L 174.640352 156.899327 
L 178.212493 152.644754 
L 181.784634 147.072385 
L 185.356775 141.967757 
L 188.928915 138.41544 
L 192.501056 134.927869 
L 196.073197 131.547477 
L 199.645337 129.926992 
L 203.217478 125.742965 
L 206.789619 125.787042 
L 210.36176 123.465918 
L 213.9339 121.741561 
L 217.506041 117.901427 
L 221.078182 115.346982 
L 224.650322 112.636569 
L 228.222463 111.552104 
L 231.794604 111.115511 
L 235.366745 110.484413 
L 238.938885 110.920563 
L 242.511026 111.092593 
L 246.083167 110.968844 
L 249.655307 108.893442 
L 253.227448 106.35728 
L 256.799589 104.560622 
L 260.37173 104.191224 
L 263.94387 103.162189 
L 267.516011 101.3437 
L 271.088152 100.587183 
L 274.660292 98.259451 
L 278.232433 99.638172 
L 281.804574 98.453367 
L 285.376715 97.802008 
L 288.948855 95.568654 
L 292.520996 96.845292 
L 296.093137 96.415111 
L 299.665277 95.548755 
L 303.237418 92.687766 
L 306.809559 92.9332 
L 310.3817 92.148317 
L 313.95384 94.133974 
L 317.525981 95.803879 
L 321.098122 94.868554 
L 324.670262 93.333687 
L 328.242403 92.695786 
L 331.814544 91.186198 
L 335.386685 91.42921 
L 338.958825 91.787461 
L 342.530966 92.114569 
L 346.103107 91.835897 
L 349.675247 90.228739 
L 353.247388 88.534756 
L 356.819529 88.509736 
L 360.39167 88.047965 
L 363.96381 88.031992 
L 367.535951 86.690409 
L 371.108092 84.630583 
L 374.680232 83.280238 
L 378.252373 82.084286 
L 381.824514 81.484053 
L 385.396655 80.879202 
L 388.968795 79.02114 
L 392.540936 80.831563 
L 396.113077 80.059235 
L 399.685218 79.91085 
L 403.257358 80.002392 
L 406.829499 78.89166 
L 410.40164 78.889347 
L 413.97378 78.131666 
L 417.545921 74.831785 
L 421.118062 74.133291 
L 424.690203 73.490639 
L 428.262343 72.436701 
L 431.834484 72.361233 
L 435.406625 72.46646 
L 438.978765 71.734071 
L 442.550906 70.590678 
L 446.123047 70.998206 
L 449.695188 71.088228 
L 453.267328 70.323107 
L 456.839469 69.386216 
L 460.41161 68.201824 
L 463.98375 67.422145 
L 467.555891 65.172519 
L 471.128032 63.611562 
L 474.700173 63.33436 
L 478.272313 63.420369 
L 481.844454 61.489723 
L 485.416595 62.543215 
L 488.988735 61.151987 
L 492.560876 59.287704 
L 496.133017 59.05531 
L 499.705158 57.957194 
L 503.277298 58.082561 
L 506.849439 59.010627 
L 510.42158 57.525038 
L 513.99372 57.147339 
L 517.565861 57.637786 
L 521.138002 57.110468 
" clip-path="url(#pb3c3110a7f)" style="fill: none; stroke: #d55e00; stroke-width: 2; stroke-linecap: round"/>
    <defs>
     <path id="mf060c76264" d="M -5 5 
L 5 5 
L 5 -5 
L -5 -5 
z
" style="stroke: #d55e00; stroke-linejoin: miter"/>
    </defs>
    <g clip-path="url(#pb3c3110a7f)">
     <use xlink:href="#mf060c76264" x="78.192553" y="300.640282" style="fill-opacity: 0; stroke: #d55e00; stroke-linejoin: miter"/>
     <use xlink:href="#mf060c76264" x="124.630382" y="252.866996" style="fill-opacity: 0; stroke: #d55e00; stroke-linejoin: miter"/>
     <use xlink:href="#mf060c76264" x="167.496071" y="167.290492" style="fill-opacity: 0; stroke: #d55e00; stroke-linejoin: miter"/>
     <use xlink:href="#mf060c76264" x="213.9339" y="121.741561" style="fill-opacity: 0; stroke: #d55e00; stroke-linejoin: miter"/>
     <use xlink:href="#mf060c76264" x="256.799589" y="104.560622" style="fill-opacity: 0; stroke: #d55e00; stroke-linejoin: miter"/>
     <use xlink:href="#mf060c76264" x="303.237418" y="92.687766" style="fill-opacity: 0; stroke: #d55e00; stroke-linejoin: miter"/>
     <use xlink:href="#mf060c76264" x="346.103107" y="91.835897" style="fill-opacity: 0; stroke: #d55e00; stroke-linejoin: miter"/>
     <use xlink:href="#mf060c76264" x="392.540936" y="80.831563" style="fill-opacity: 0; stroke: #d55e00; stroke-linejoin: miter"/>
     <use xlink:href="#mf060c76264" x="435.406625" y="72.46646" style="fill-opacity: 0; stroke: #d55e00; stroke-linejoin: miter"/>
     <use xlink:href="#mf060c76264" x="481.844454" y="61.489723" style="fill-opacity: 0; stroke: #d55e00; stroke-linejoin: miter"/>
     <use xlink:href="#mf060c76264" x="521.138002" y="57.110468" style="fill-opacity: 0; stroke: #d55e00; stroke-linejoin: miter"/>
    </g>
   </g>
   <g id="line2d_86">
    <path d="M 78.192553 305.101769 
L 81.764694 305.337909 
L 85.336835 302.657056 
L 88.908975 300.565744 
L 92.481116 297.414013 
L 96.053257 294.523715 
L 99.625397 291.816953 
L 103.197538 288.575749 
L 106.769679 285.68305 
L 110.34182 282.134338 
L 113.91396 278.442891 
L 117.486101 274.364964 
L 121.058242 270.265416 
L 124.630382 266.085594 
L 128.202523 262.033854 
L 131.774664 258.157447 
L 135.346805 253.995458 
L 138.918945 250.948858 
L 142.491086 246.695497 
L 146.063227 242.9613 
L 149.635367 239.212779 
L 153.207508 236.810829 
L 156.779649 234.138661 
L 160.35179 230.64998 
L 163.92393 227.696965 
L 167.496071 224.424988 
L 171.068212 222.097026 
L 174.640352 219.754648 
L 178.212493 217.924271 
L 181.784634 215.942513 
L 185.356775 213.81829 
L 188.928915 212.208139 
L 192.501056 211.021874 
L 196.073197 210.787499 
L 199.645337 209.265913 
L 203.217478 208.564183 
L 206.789619 208.306867 
L 210.36176 206.885022 
L 213.9339 205.667351 
L 217.506041 205.625408 
L 221.078182 205.648678 
L 224.650322 204.87658 
L 228.222463 204.101954 
L 231.794604 204.494466 
L 235.366745 203.733547 
L 238.938885 203.194652 
L 242.511026 204.583752 
L 246.083167 203.453704 
L 249.655307 203.164676 
L 253.227448 202.681787 
L 256.799589 202.425207 
L 260.37173 201.543929 
L 263.94387 200.856392 
L 267.516011 200.660012 
L 271.088152 199.251013 
L 274.660292 199.149629 
L 278.232433 198.11919 
L 281.804574 198.179564 
L 285.376715 198.324709 
L 288.948855 199.585367 
L 292.520996 199.58958 
L 296.093137 199.562315 
L 299.665277 199.706648 
L 303.237418 200.146016 
L 306.809559 201.115897 
L 310.3817 199.783326 
L 313.95384 198.79327 
L 317.525981 198.298902 
L 321.098122 196.935028 
L 324.670262 197.939353 
L 328.242403 197.89883 
L 331.814544 197.19407 
L 335.386685 196.076784 
L 338.958825 196.585722 
L 342.530966 197.461958 
L 346.103107 196.712825 
L 349.675247 197.469606 
L 353.247388 196.351882 
L 356.819529 195.813 
L 360.39167 195.598966 
L 363.96381 195.181932 
L 367.535951 194.438019 
L 371.108092 193.84521 
L 374.680232 192.780594 
L 378.252373 192.80248 
L 381.824514 192.455565 
L 385.396655 191.404031 
L 388.968795 192.924511 
L 392.540936 194.223806 
L 396.113077 194.535844 
L 399.685218 193.485894 
L 403.257358 194.692103 
L 406.829499 194.735962 
L 410.40164 194.311662 
L 413.97378 193.356966 
L 417.545921 193.18571 
L 421.118062 194.093936 
L 424.690203 193.372113 
L 428.262343 192.717925 
L 431.834484 192.335502 
L 435.406625 191.284194 
L 438.978765 191.322306 
L 442.550906 190.412326 
L 446.123047 189.877107 
L 449.695188 189.372637 
L 453.267328 189.185172 
L 456.839469 189.237834 
L 460.41161 190.422047 
L 463.98375 190.579347 
L 467.555891 189.144945 
L 471.128032 188.713214 
L 474.700173 188.208485 
L 478.272313 187.118131 
L 481.844454 186.174115 
L 485.416595 185.295216 
L 488.988735 186.112252 
L 492.560876 185.72696 
L 496.133017 185.68036 
L 499.705158 186.10452 
L 503.277298 186.894558 
L 506.849439 186.782813 
L 510.42158 185.495961 
L 513.99372 185.410011 
L 517.565861 185.317097 
L 521.138002 185.306675 
" clip-path="url(#pb3c3110a7f)" style="fill: none; stroke: #009e73; stroke-width: 2; stroke-linecap: round"/>
    <defs>
     <path id="mf4312bfdc6" d="M 0 -5 
L -5 5 
L 5 5 
z
" style="stroke: #009e73; stroke-linejoin: miter"/>
    </defs>
    <g clip-path="url(#pb3c3110a7f)">
     <use xlink:href="#mf4312bfdc6" x="78.192553" y="305.101769" style="fill-opacity: 0; stroke: #009e73; stroke-linejoin: miter"/>
     <use xlink:href="#mf4312bfdc6" x="124.630382" y="266.085594" style="fill-opacity: 0; stroke: #009e73; stroke-linejoin: miter"/>
     <use xlink:href="#mf4312bfdc6" x="167.496071" y="224.424988" style="fill-opacity: 0; stroke: #009e73; stroke-linejoin: miter"/>
     <use xlink:href="#mf4312bfdc6" x="213.9339" y="205.667351" style="fill-opacity: 0; stroke: #009e73; stroke-linejoin: miter"/>
     <use xlink:href="#mf4312bfdc6" x="256.799589" y="202.425207" style="fill-opacity: 0; stroke: #009e73; stroke-linejoin: miter"/>
     <use xlink:href="#mf4312bfdc6" x="303.237418" y="200.146016" style="fill-opacity: 0; stroke: #009e73; stroke-linejoin: miter"/>
     <use xlink:href="#mf4312bfdc6" x="346.103107" y="196.712825" style="fill-opacity: 0; stroke: #009e73; stroke-linejoin: miter"/>
     <use xlink:href="#mf4312bfdc6" x="392.540936" y="194.223806" style="fill-opacity: 0; stroke: #009e73; stroke-linejoin: miter"/>
     <use xlink:href="#mf4312bfdc6" x="435.406625" y="191.284194" style="fill-opacity: 0; stroke: #009e73; stroke-linejoin: miter"/>
     <use xlink:href="#mf4312bfdc6" x="481.844454" y="186.174115" style="fill-opacity: 0; stroke: #009e73; stroke-linejoin: miter"/>
     <use xlink:href="#mf4312bfdc6" x="521.138002" y="185.306675" style="fill-opacity: 0; stroke: #009e73; stroke-linejoin: miter"/>
    </g>
   </g>
   <g id="line2d_87">
    <path d="M 78.192553 300.586716 
L 81.764694 300.877786 
L 85.336835 298.53334 
L 88.908975 295.755354 
L 92.481116 292.715119 
L 96.053257 289.178747 
L 99.625397 287.236718 
L 103.197538 284.617088 
L 106.769679 280.937894 
L 110.34182 278.516658 
L 113.91396 273.874602 
L 117.486101 269.017104 
L 121.058242 264.960982 
L 124.630382 261.140757 
L 128.202523 257.13241 
L 131.774664 252.466001 
L 135.346805 249.806842 
L 138.918945 245.867515 
L 142.491086 242.188767 
L 146.063227 239.038348 
L 149.635367 235.863181 
L 153.207508 233.001506 
L 156.779649 232.709805 
L 160.35179 230.531811 
L 163.92393 229.403533 
L 167.496071 228.942126 
L 171.068212 226.759866 
L 174.640352 225.174046 
L 178.212493 223.181758 
L 181.784634 222.637924 
L 185.356775 221.18669 
L 188.928915 220.741879 
L 192.501056 219.569342 
L 196.073197 218.829344 
L 199.645337 216.322561 
L 203.217478 216.728491 
L 206.789619 215.984602 
L 210.36176 215.638112 
L 213.9339 215.223597 
L 217.506041 214.527542 
L 221.078182 214.97458 
L 224.650322 214.323939 
L 228.222463 213.578932 
L 231.794604 212.849975 
L 235.366745 213.789674 
L 238.938885 212.79343 
L 242.511026 214.414567 
L 246.083167 213.222315 
L 249.655307 212.772005 
L 253.227448 212.612823 
L 256.799589 213.012334 
L 260.37173 212.109216 
L 263.94387 210.928691 
L 267.516011 211.09412 
L 271.088152 210.197951 
L 274.660292 209.173683 
L 278.232433 209.449717 
L 281.804574 208.570447 
L 285.376715 208.908647 
L 288.948855 207.512764 
L 292.520996 206.962035 
L 296.093137 207.313682 
L 299.665277 206.367366 
L 303.237418 206.634543 
L 306.809559 205.791935 
L 310.3817 205.091995 
L 313.95384 204.966449 
L 317.525981 202.712913 
L 321.098122 202.427104 
L 324.670262 201.492466 
L 328.242403 201.123581 
L 331.814544 201.100679 
L 335.386685 200.310519 
L 338.958825 198.978659 
L 342.530966 199.131374 
L 346.103107 198.04455 
L 349.675247 197.548989 
L 353.247388 197.366832 
L 356.819529 197.402437 
L 360.39167 198.931375 
L 363.96381 196.925961 
L 367.535951 197.559005 
L 371.108092 198.307412 
L 374.680232 198.357066 
L 378.252373 197.509568 
L 381.824514 197.897124 
L 385.396655 198.285191 
L 388.968795 198.050573 
L 392.540936 198.269566 
L 396.113077 197.263049 
L 399.685218 195.736073 
L 403.257358 194.254501 
L 406.829499 192.668501 
L 410.40164 192.55652 
L 413.97378 191.154362 
L 417.545921 190.451822 
L 421.118062 189.733565 
L 424.690203 189.649782 
L 428.262343 190.549884 
L 431.834484 189.412333 
L 435.406625 188.033055 
L 438.978765 189.08203 
L 442.550906 188.172866 
L 446.123047 187.445777 
L 449.695188 186.376924 
L 453.267328 185.985253 
L 456.839469 185.465955 
L 460.41161 185.732076 
L 463.98375 184.243287 
L 467.555891 183.418557 
L 471.128032 185.332792 
L 474.700173 185.868049 
L 478.272313 186.005209 
L 481.844454 185.48433 
L 485.416595 184.240421 
L 488.988735 184.499478 
L 492.560876 183.242369 
L 496.133017 182.303551 
L 499.705158 181.851265 
L 503.277298 182.116847 
L 506.849439 181.187936 
L 510.42158 180.267257 
L 513.99372 178.970996 
L 517.565861 177.994058 
L 521.138002 177.811333 
" clip-path="url(#pb3c3110a7f)" style="fill: none; stroke: #cc79a7; stroke-width: 2; stroke-linecap: round"/>
    <defs>
     <path id="ma1dfe3781c" d="M -0 7.071068 
L 7.071068 0 
L 0 -7.071068 
L -7.071068 -0 
z
" style="stroke: #cc79a7; stroke-linejoin: miter"/>
    </defs>
    <g clip-path="url(#pb3c3110a7f)">
     <use xlink:href="#ma1dfe3781c" x="78.192553" y="300.586716" style="fill-opacity: 0; stroke: #cc79a7; stroke-linejoin: miter"/>
     <use xlink:href="#ma1dfe3781c" x="124.630382" y="261.140757" style="fill-opacity: 0; stroke: #cc79a7; stroke-linejoin: miter"/>
     <use xlink:href="#ma1dfe3781c" x="167.496071" y="228.942126" style="fill-opacity: 0; stroke: #cc79a7; stroke-linejoin: miter"/>
     <use xlink:href="#ma1dfe3781c" x="213.9339" y="215.223597" style="fill-opacity: 0; stroke: #cc79a7; stroke-linejoin: miter"/>
     <use xlink:href="#ma1dfe3781c" x="256.799589" y="213.012334" style="fill-opacity: 0; stroke: #cc79a7; stroke-linejoin: miter"/>
     <use xlink:href="#ma1dfe3781c" x="303.237418" y="206.634543" style="fill-opacity: 0; stroke: #cc79a7; stroke-linejoin: miter"/>
     <use xlink:href="#ma1dfe3781c" x="346.103107" y="198.04455" style="fill-opacity: 0; stroke: #cc79a7; stroke-linejoin: miter"/>
     <use xlink:href="#ma1dfe3781c" x="392.540936" y="198.269566" style="fill-opacity: 0; stroke: #cc79a7; stroke-linejoin: miter"/>
     <use xlink:href="#ma1dfe3781c" x="435.406625" y="188.033055" style="fill-opacity: 0; stroke: #cc79a7; stroke-linejoin: miter"/>
     <use xlink:href="#ma1dfe3781c" x="481.844454" y="185.48433" style="fill-opacity: 0; stroke: #cc79a7; stroke-linejoin: miter"/>
     <use xlink:href="#ma1dfe3781c" x="521.138002" y="177.811333" style="fill-opacity: 0; stroke: #cc79a7; stroke-linejoin: miter"/>
    </g>
   </g>
   <g id="patch_3">
    <path d="M 77.478125 328.398906 
L 77.478125 6.758906 
" style="fill: none; stroke: #000000; stroke-linejoin: miter; stroke-linecap: square"/>
   </g>
   <g id="patch_4">
    <path d="M 77.478125 328.398906 
L 532.926066 328.398906 
" style="fill: none; stroke: #000000; stroke-linejoin: miter; stroke-linecap: square"/>
   </g>
   <g id="legend_1">
    <g id="patch_5">
     <path d="M 235.907316 321.398906 
L 525.926066 321.398906 
L 525.926066 232.201406 
L 235.907316 232.201406 
z
" style="fill: #f7f9fc; opacity: 0.8; stroke: #c7ced8; stroke-width: 0.6; stroke-linejoin: miter"/>
    </g>
    <g id="line2d_88">
     <path d="M 242.907316 244.939219 
L 256.907316 244.939219 
L 270.907316 244.939219 
" style="fill: none; stroke: #0072b2; stroke-width: 2; stroke-linecap: round"/>
     <g>
      <use xlink:href="#mab16e2922f" x="256.907316" y="244.939219" style="fill-opacity: 0; stroke: #0072b2"/>
     </g>
    </g>
    <g id="text_22">
     <text style="font: 14px 'Times New Roman', 'Times', 'DejaVu Serif', serif; text-anchor: start" x="282.107316" y="249.839219" transform="rotate(-0 282.107316 249.839219)">HO-MAPPO with SC (k=3,M=30)</text>
    </g>
    <g id="line2d_89">
     <path d="M 242.907316 265.488594 
L 256.907316 265.488594 
L 270.907316 265.488594 
" style="fill: none; stroke: #d55e00; stroke-width: 2; stroke-linecap: round"/>
     <g>
      <use xlink:href="#mf060c76264" x="256.907316" y="265.488594" style="fill-opacity: 0; stroke: #d55e00; stroke-linejoin: miter"/>
     </g>
    </g>
    <g id="text_23">
     <text style="font: 14px 'Times New Roman', 'Times', 'DejaVu Serif', serif; text-anchor: start" x="282.107316" y="270.388594" transform="rotate(-0 282.107316 270.388594)">DH-MAPPO with SC (k=3,M=30)</text>
    </g>
    <g id="line2d_90">
     <path d="M 242.907316 286.037969 
L 256.907316 286.037969 
L 270.907316 286.037969 
" style="fill: none; stroke: #009e73; stroke-width: 2; stroke-linecap: round"/>
     <g>
      <use xlink:href="#mf4312bfdc6" x="256.907316" y="286.037969" style="fill-opacity: 0; stroke: #009e73; stroke-linejoin: miter"/>
     </g>
    </g>
    <g id="text_24">
     <text style="font: 14px 'Times New Roman', 'Times', 'DejaVu Serif', serif; text-anchor: start" x="282.107316" y="290.937969" transform="rotate(-0 282.107316 290.937969)">HO-MAPPO with TC (k=3,M=30)</text>
    </g>
    <g id="line2d_91">
     <path d="M 242.907316 306.587344 
L 256.907316 306.587344 
L 270.907316 306.587344 
" style="fill: none; stroke: #cc79a7; stroke-width: 2; stroke-linecap: round"/>
     <g>
      <use xlink:href="#ma1dfe3781c" x="256.907316" y="306.587344" style="fill-opacity: 0; stroke: #cc79a7; stroke-linejoin: miter"/>
     </g>
    </g>
    <g id="text_25">
     <text style="font: 14px 'Times New Roman', 'Times', 'DejaVu Serif', serif; text-anchor: start" x="282.107316" y="311.487344" transform="rotate(-0 282.107316 311.487344)">DH-MAPPO with TC (k=3,M=30)</text>
    </g>
   </g>
  </g>
 </g>
 <defs>
  <clipPath id="pb3c3110a7f">
   <rect x="77.478125" y="6.758906" width="455.447941" height="321.64"/>
  </clipPath>
 </defs>
</svg>
