<?xml version="1.0" encoding="utf-8" standalone="no"?>
<!DOCTYPE svg PUBLIC "-//W3C//DTD SVG 1.1//EN"
  "http://www.w3.org/Graphics/SVG/1.1/DTD/svg11.dtd">
<svg xmlns:xlink="http://www.w3.org/1999/xlink" width="543.735246pt" height="371.53pt" viewBox="0 0 543.735246 371.53" xmlns="http://www.w3.org/2000/svg" version="1.1">
 <metadata>
  <rdf:RDF xmlns:dc="http://purl.org/dc/elements/1.1/" xmlns:cc="http://creativecommons.org/ns#" xmlns:rdf="http://www.w3.org/1999/02/22-rdf-syntax-ns#">
   <cc:Work>
    <dc:type rdf:resource="http://purl.org/dc/dcmitype/StillImage"/>
    <dc:date>2026-02-04T12:23:28.777163</dc:date>
    <dc:format>image/svg+xml</dc:format>
    <dc:creator>
     <cc:Agent>
      <dc:title>Matplotlib v3.9.4, https://matplotlib.org/</dc:title>
     </cc:Agent>
    </dc:creator>
   </cc:Work>
  </rdf:RDF>
 </metadata>
 <defs>
  <style type="text/css">*{stroke-linejoin: round; stroke-linecap: butt}</style>
 </defs>
 <g id="figure_1">
  <g id="patch_1">
   <path d="M 0 371.53 
L 543.735246 371.53 
L 543.735246 0 
L 0 0 
z
" style="fill: #ffffff"/>
  </g>
  <g id="axes_1">
   <g id="patch_2">
    <path d="M 77.478125 328.12 
L 532.926066 328.12 
L 532.926066 1.44 
L 77.478125 1.44 
z
" style="fill: #f3f4f6"/>
   </g>
   <g id="matplotlib.axis_1">
    <g id="xtick_1">
     <g id="line2d_1">
      <path d="M 77.478125 328.12 
L 77.478125 1.44 
" clip-path="url(#p0346823cbc)" style="fill: none; stroke: #ffffff; stroke-width: 2; stroke-linecap: square"/>
     </g>
     <g id="line2d_2">
      <defs>
       <path id="mbb54775a59" d="M 0 0 
L 0 3.5 
" style="stroke: #000000; stroke-width: 0.8"/>
      </defs>
      <g>
       <use xlink:href="#mbb54775a59" x="77.478125" y="328.12" style="stroke: #000000; stroke-width: 0.8"/>
      </g>
     </g>
     <g id="text_1">
      <text style="font: 14px 'Times New Roman', 'Times', 'DejaVu Serif', serif; text-anchor: middle" x="77.478125" y="345.757812" transform="rotate(-0 77.478125 345.757812)">0.0M</text>
     </g>
    </g>
    <g id="xtick_2">
     <g id="line2d_3">
      <path d="M 122.129884 328.12 
L 122.129884 1.44 
" clip-path="url(#p0346823cbc)" style="fill: none; stroke: #ffffff; stroke-width: 2; stroke-linecap: square"/>
     </g>
     <g id="line2d_4">
      <g>
       <use xlink:href="#mbb54775a59" x="122.129884" y="328.12" style="stroke: #000000; stroke-width: 0.8"/>
      </g>
     </g>
     <g id="text_2">
      <text style="font: 14px 'Times New Roman', 'Times', 'DejaVu Serif', serif; text-anchor: middle" x="122.129884" y="345.757812" transform="rotate(-0 122.129884 345.757812)">0.5M</text>
     </g>
    </g>
    <g id="xtick_3">
     <g id="line2d_5">
      <path d="M 166.781643 328.12 
L 166.781643 1.44 
" clip-path="url(#p0346823cbc)" style="fill: none; stroke: #ffffff; stroke-width: 2; stroke-linecap: square"/>
     </g>
     <g id="line2d_6">
      <g>
       <use xlink:href="#mbb54775a59" x="166.781643" y="328.12" style="stroke: #000000; stroke-width: 0.8"/>
      </g>
     </g>
     <g id="text_3">
      <text style="font: 14px 'Times New Roman', 'Times', 'DejaVu Serif', serif; text-anchor: middle" x="166.781643" y="345.757812" transform="rotate(-0 166.781643 345.757812)">1.0M</text>
     </g>
    </g>
    <g id="xtick_4">
     <g id="line2d_7">
      <path d="M 211.433402 328.12 
L 211.433402 1.44 
" clip-path="url(#p0346823cbc)" style="fill: none; stroke: #ffffff; stroke-width: 2; stroke-linecap: square"/>
     </g>
     <g id="line2d_8">
      <g>
       <use xlink:href="#mbb54775a59" x="211.433402" y="328.12" style="stroke: #000000; stroke-width: 0.8"/>
      </g>
     </g>
     <g id="text_4">
      <text style="font: 14px 'Times New Roman', 'Times', 'DejaVu Serif', serif; text-anchor: middle" x="211.433402" y="345.757812" transform="rotate(-0 211.433402 345.757812)">1.5M</text>
     </g>
    </g>
    <g id="xtick_5">
     <g id="line2d_9">
      <path d="M 256.085161 328.12 
L 256.085161 1.44 
" clip-path="url(#p0346823cbc)" style="fill: none; stroke: #ffffff; stroke-width: 2; stroke-linecap: square"/>
     </g>
     <g id="line2d_10">
      <g>
       <use xlink:href="#mbb54775a59" x="256.085161" y="328.12" style="stroke: #000000; stroke-width: 0.8"/>
      </g>
     </g>
     <g id="text_5">
      <text style="font: 14px 'Times New Roman', 'Times', 'DejaVu Serif', serif; text-anchor: middle" x="256.085161" y="345.757812" transform="rotate(-0 256.085161 345.757812)">2.0M</text>
     </g>
    </g>
    <g id="xtick_6">
     <g id="line2d_11">
      <path d="M 300.73692 328.12 
L 300.73692 1.44 
" clip-path="url(#p0346823cbc)" style="fill: none; stroke: #ffffff; stroke-width: 2; stroke-linecap: square"/>
     </g>
     <g id="line2d_12">
      <g>
       <use xlink:href="#mbb54775a59" x="300.73692" y="328.12" style="stroke: #000000; stroke-width: 0.8"/>
      </g>
     </g>
     <g id="text_6">
      <text style="font: 14px 'Times New Roman', 'Times', 'DejaVu Serif', serif; text-anchor: middle" x="300.73692" y="345.757812" transform="rotate(-0 300.73692 345.757812)">2.5M</text>
     </g>
    </g>
    <g id="xtick_7">
     <g id="line2d_13">
      <path d="M 345.388679 328.12 
L 345.388679 1.44 
" clip-path="url(#p0346823cbc)" style="fill: none; stroke: #ffffff; stroke-width: 2; stroke-linecap: square"/>
     </g>
     <g id="line2d_14">
      <g>
       <use xlink:href="#mbb54775a59" x="345.388679" y="328.12" style="stroke: #000000; stroke-width: 0.8"/>
      </g>
     </g>
     <g id="text_7">
      <text style="font: 14px 'Times New Roman', 'Times', 'DejaVu Serif', serif; text-anchor: middle" x="345.388679" y="345.757812" transform="rotate(-0 345.388679 345.757812)">3.0M</text>
     </g>
    </g>
    <g id="xtick_8">
     <g id="line2d_15">
      <path d="M 390.040438 328.12 
L 390.040438 1.44 
" clip-path="url(#p0346823cbc)" style="fill: none; stroke: #ffffff; stroke-width: 2; stroke-linecap: square"/>
     </g>
     <g id="line2d_16">
      <g>
       <use xlink:href="#mbb54775a59" x="390.040438" y="328.12" style="stroke: #000000; stroke-width: 0.8"/>
      </g>
     </g>
     <g id="text_8">
      <text style="font: 14px 'Times New Roman', 'Times', 'DejaVu Serif', serif; text-anchor: middle" x="390.040438" y="345.757812" transform="rotate(-0 390.040438 345.757812)">3.5M</text>
     </g>
    </g>
    <g id="xtick_9">
     <g id="line2d_17">
      <path d="M 434.692197 328.12 
L 434.692197 1.44 
" clip-path="url(#p0346823cbc)" style="fill: none; stroke: #ffffff; stroke-width: 2; stroke-linecap: square"/>
     </g>
     <g id="line2d_18">
      <g>
       <use xlink:href="#mbb54775a59" x="434.692197" y="328.12" style="stroke: #000000; stroke-width: 0.8"/>
      </g>
     </g>
     <g id="text_9">
      <text style="font: 14px 'Times New Roman', 'Times', 'DejaVu Serif', serif; text-anchor: middle" x="434.692197" y="345.757812" transform="rotate(-0 434.692197 345.757812)">4.0M</text>
     </g>
    </g>
    <g id="xtick_10">
     <g id="line2d_19">
      <path d="M 479.343955 328.12 
L 479.343955 1.44 
" clip-path="url(#p0346823cbc)" style="fill: none; stroke: #ffffff; stroke-width: 2; stroke-linecap: square"/>
     </g>
     <g id="line2d_20">
      <g>
       <use xlink:href="#mbb54775a59" x="479.343955" y="328.12" style="stroke: #000000; stroke-width: 0.8"/>
      </g>
     </g>
     <g id="text_10">
      <text style="font: 14px 'Times New Roman', 'Times', 'DejaVu Serif', serif; text-anchor: middle" x="479.343955" y="345.757812" transform="rotate(-0 479.343955 345.757812)">4.5M</text>
     </g>
    </g>
    <g id="xtick_11">
     <g id="line2d_21">
      <path d="M 523.995714 328.12 
L 523.995714 1.44 
" clip-path="url(#p0346823cbc)" style="fill: none; stroke: #ffffff; stroke-width: 2; stroke-linecap: square"/>
     </g>
     <g id="line2d_22">
      <g>
       <use xlink:href="#mbb54775a59" x="523.995714" y="328.12" style="stroke: #000000; stroke-width: 0.8"/>
      </g>
     </g>
     <g id="text_11">
      <text style="font: 14px 'Times New Roman', 'Times', 'DejaVu Serif', serif; text-anchor: middle" x="523.995714" y="345.757812" transform="rotate(-0 523.995714 345.757812)">5.0M</text>
     </g>
    </g>
    <g id="xtick_12">
     <g id="line2d_23">
      <defs>
       <path id="mdb074845d4" d="M 0 0 
L 0 2 
" style="stroke: #000000; stroke-width: 0.6"/>
      </defs>
      <g>
       <use xlink:href="#mdb074845d4" x="86.408477" y="328.12" style="stroke: #000000; stroke-width: 0.6"/>
      </g>
     </g>
    </g>
    <g id="xtick_13">
     <g id="line2d_24">
      <g>
       <use xlink:href="#mdb074845d4" x="95.338829" y="328.12" style="stroke: #000000; stroke-width: 0.6"/>
      </g>
     </g>
    </g>
    <g id="xtick_14">
     <g id="line2d_25">
      <g>
       <use xlink:href="#mdb074845d4" x="104.26918" y="328.12" style="stroke: #000000; stroke-width: 0.6"/>
      </g>
     </g>
    </g>
    <g id="xtick_15">
     <g id="line2d_26">
      <g>
       <use xlink:href="#mdb074845d4" x="113.199532" y="328.12" style="stroke: #000000; stroke-width: 0.6"/>
      </g>
     </g>
    </g>
    <g id="xtick_16">
     <g id="line2d_27">
      <g>
       <use xlink:href="#mdb074845d4" x="131.060236" y="328.12" style="stroke: #000000; stroke-width: 0.6"/>
      </g>
     </g>
    </g>
    <g id="xtick_17">
     <g id="line2d_28">
      <g>
       <use xlink:href="#mdb074845d4" x="139.990588" y="328.12" style="stroke: #000000; stroke-width: 0.6"/>
      </g>
     </g>
    </g>
    <g id="xtick_18">
     <g id="line2d_29">
      <g>
       <use xlink:href="#mdb074845d4" x="148.920939" y="328.12" style="stroke: #000000; stroke-width: 0.6"/>
      </g>
     </g>
    </g>
    <g id="xtick_19">
     <g id="line2d_30">
      <g>
       <use xlink:href="#mdb074845d4" x="157.851291" y="328.12" style="stroke: #000000; stroke-width: 0.6"/>
      </g>
     </g>
    </g>
    <g id="xtick_20">
     <g id="line2d_31">
      <g>
       <use xlink:href="#mdb074845d4" x="175.711995" y="328.12" style="stroke: #000000; stroke-width: 0.6"/>
      </g>
     </g>
    </g>
    <g id="xtick_21">
     <g id="line2d_32">
      <g>
       <use xlink:href="#mdb074845d4" x="184.642346" y="328.12" style="stroke: #000000; stroke-width: 0.6"/>
      </g>
     </g>
    </g>
    <g id="xtick_22">
     <g id="line2d_33">
      <g>
       <use xlink:href="#mdb074845d4" x="193.572698" y="328.12" style="stroke: #000000; stroke-width: 0.6"/>
      </g>
     </g>
    </g>
    <g id="xtick_23">
     <g id="line2d_34">
      <g>
       <use xlink:href="#mdb074845d4" x="202.50305" y="328.12" style="stroke: #000000; stroke-width: 0.6"/>
      </g>
     </g>
    </g>
    <g id="xtick_24">
     <g id="line2d_35">
      <g>
       <use xlink:href="#mdb074845d4" x="220.363754" y="328.12" style="stroke: #000000; stroke-width: 0.6"/>
      </g>
     </g>
    </g>
    <g id="xtick_25">
     <g id="line2d_36">
      <g>
       <use xlink:href="#mdb074845d4" x="229.294105" y="328.12" style="stroke: #000000; stroke-width: 0.6"/>
      </g>
     </g>
    </g>
    <g id="xtick_26">
     <g id="line2d_37">
      <g>
       <use xlink:href="#mdb074845d4" x="238.224457" y="328.12" style="stroke: #000000; stroke-width: 0.6"/>
      </g>
     </g>
    </g>
    <g id="xtick_27">
     <g id="line2d_38">
      <g>
       <use xlink:href="#mdb074845d4" x="247.154809" y="328.12" style="stroke: #000000; stroke-width: 0.6"/>
      </g>
     </g>
    </g>
    <g id="xtick_28">
     <g id="line2d_39">
      <g>
       <use xlink:href="#mdb074845d4" x="265.015513" y="328.12" style="stroke: #000000; stroke-width: 0.6"/>
      </g>
     </g>
    </g>
    <g id="xtick_29">
     <g id="line2d_40">
      <g>
       <use xlink:href="#mdb074845d4" x="273.945864" y="328.12" style="stroke: #000000; stroke-width: 0.6"/>
      </g>
     </g>
    </g>
    <g id="xtick_30">
     <g id="line2d_41">
      <g>
       <use xlink:href="#mdb074845d4" x="282.876216" y="328.12" style="stroke: #000000; stroke-width: 0.6"/>
      </g>
     </g>
    </g>
    <g id="xtick_31">
     <g id="line2d_42">
      <g>
       <use xlink:href="#mdb074845d4" x="291.806568" y="328.12" style="stroke: #000000; stroke-width: 0.6"/>
      </g>
     </g>
    </g>
    <g id="xtick_32">
     <g id="line2d_43">
      <g>
       <use xlink:href="#mdb074845d4" x="309.667271" y="328.12" style="stroke: #000000; stroke-width: 0.6"/>
      </g>
     </g>
    </g>
    <g id="xtick_33">
     <g id="line2d_44">
      <g>
       <use xlink:href="#mdb074845d4" x="318.597623" y="328.12" style="stroke: #000000; stroke-width: 0.6"/>
      </g>
     </g>
    </g>
    <g id="xtick_34">
     <g id="line2d_45">
      <g>
       <use xlink:href="#mdb074845d4" x="327.527975" y="328.12" style="stroke: #000000; stroke-width: 0.6"/>
      </g>
     </g>
    </g>
    <g id="xtick_35">
     <g id="line2d_46">
      <g>
       <use xlink:href="#mdb074845d4" x="336.458327" y="328.12" style="stroke: #000000; stroke-width: 0.6"/>
      </g>
     </g>
    </g>
    <g id="xtick_36">
     <g id="line2d_47">
      <g>
       <use xlink:href="#mdb074845d4" x="354.31903" y="328.12" style="stroke: #000000; stroke-width: 0.6"/>
      </g>
     </g>
    </g>
    <g id="xtick_37">
     <g id="line2d_48">
      <g>
       <use xlink:href="#mdb074845d4" x="363.249382" y="328.12" style="stroke: #000000; stroke-width: 0.6"/>
      </g>
     </g>
    </g>
    <g id="xtick_38">
     <g id="line2d_49">
      <g>
       <use xlink:href="#mdb074845d4" x="372.179734" y="328.12" style="stroke: #000000; stroke-width: 0.6"/>
      </g>
     </g>
    </g>
    <g id="xtick_39">
     <g id="line2d_50">
      <g>
       <use xlink:href="#mdb074845d4" x="381.110086" y="328.12" style="stroke: #000000; stroke-width: 0.6"/>
      </g>
     </g>
    </g>
    <g id="xtick_40">
     <g id="line2d_51">
      <g>
       <use xlink:href="#mdb074845d4" x="398.970789" y="328.12" style="stroke: #000000; stroke-width: 0.6"/>
      </g>
     </g>
    </g>
    <g id="xtick_41">
     <g id="line2d_52">
      <g>
       <use xlink:href="#mdb074845d4" x="407.901141" y="328.12" style="stroke: #000000; stroke-width: 0.6"/>
      </g>
     </g>
    </g>
    <g id="xtick_42">
     <g id="line2d_53">
      <g>
       <use xlink:href="#mdb074845d4" x="416.831493" y="328.12" style="stroke: #000000; stroke-width: 0.6"/>
      </g>
     </g>
    </g>
    <g id="xtick_43">
     <g id="line2d_54">
      <g>
       <use xlink:href="#mdb074845d4" x="425.761845" y="328.12" style="stroke: #000000; stroke-width: 0.6"/>
      </g>
     </g>
    </g>
    <g id="xtick_44">
     <g id="line2d_55">
      <g>
       <use xlink:href="#mdb074845d4" x="443.622548" y="328.12" style="stroke: #000000; stroke-width: 0.6"/>
      </g>
     </g>
    </g>
    <g id="xtick_45">
     <g id="line2d_56">
      <g>
       <use xlink:href="#mdb074845d4" x="452.5529" y="328.12" style="stroke: #000000; stroke-width: 0.6"/>
      </g>
     </g>
    </g>
    <g id="xtick_46">
     <g id="line2d_57">
      <g>
       <use xlink:href="#mdb074845d4" x="461.483252" y="328.12" style="stroke: #000000; stroke-width: 0.6"/>
      </g>
     </g>
    </g>
    <g id="xtick_47">
     <g id="line2d_58">
      <g>
       <use xlink:href="#mdb074845d4" x="470.413604" y="328.12" style="stroke: #000000; stroke-width: 0.6"/>
      </g>
     </g>
    </g>
    <g id="xtick_48">
     <g id="line2d_59">
      <g>
       <use xlink:href="#mdb074845d4" x="488.274307" y="328.12" style="stroke: #000000; stroke-width: 0.6"/>
      </g>
     </g>
    </g>
    <g id="xtick_49">
     <g id="line2d_60">
      <g>
       <use xlink:href="#mdb074845d4" x="497.204659" y="328.12" style="stroke: #000000; stroke-width: 0.6"/>
      </g>
     </g>
    </g>
    <g id="xtick_50">
     <g id="line2d_61">
      <g>
       <use xlink:href="#mdb074845d4" x="506.135011" y="328.12" style="stroke: #000000; stroke-width: 0.6"/>
      </g>
     </g>
    </g>
    <g id="xtick_51">
     <g id="line2d_62">
      <g>
       <use xlink:href="#mdb074845d4" x="515.065363" y="328.12" style="stroke: #000000; stroke-width: 0.6"/>
      </g>
     </g>
    </g>
    <g id="xtick_52">
     <g id="line2d_63">
      <g>
       <use xlink:href="#mdb074845d4" x="532.926066" y="328.12" style="stroke: #000000; stroke-width: 0.6"/>
      </g>
     </g>
    </g>
    <g id="text_12">
     <text style="font: 18px 'Times New Roman', 'Times', 'DejaVu Serif', serif; text-anchor: middle" x="305.202096" y="366.346562" transform="rotate(-0 305.202096 366.346562)">Steps</text>
    </g>
   </g>
   <g id="matplotlib.axis_2">
    <g id="ytick_1">
     <g id="line2d_64">
      <path d="M 77.478125 328.12 
L 532.926066 328.12 
" clip-path="url(#p0346823cbc)" style="fill: none; stroke: #ffffff; stroke-width: 2; stroke-linecap: square"/>
     </g>
     <g id="line2d_65">
      <defs>
       <path id="mee99cd2278" d="M 0 0 
L -3.5 0 
" style="stroke: #000000; stroke-width: 0.8"/>
      </defs>
      <g>
       <use xlink:href="#mee99cd2278" x="77.478125" y="328.12" style="stroke: #000000; stroke-width: 0.8"/>
      </g>
     </g>
     <g id="text_13">
      <text style="font: 14px 'Times New Roman', 'Times', 'DejaVu Serif', serif; text-anchor: end" x="70.478125" y="333.438906" transform="rotate(-0 70.478125 333.438906)">−1000</text>
     </g>
    </g>
    <g id="ytick_2">
     <g id="line2d_66">
      <path d="M 77.478125 289.229524 
L 532.926066 289.229524 
" clip-path="url(#p0346823cbc)" style="fill: none; stroke: #ffffff; stroke-width: 2; stroke-linecap: square"/>
     </g>
     <g id="line2d_67">
      <g>
       <use xlink:href="#mee99cd2278" x="77.478125" y="289.229524" style="stroke: #000000; stroke-width: 0.8"/>
      </g>
     </g>
     <g id="text_14">
      <text style="font: 14px 'Times New Roman', 'Times', 'DejaVu Serif', serif; text-anchor: end" x="70.478125" y="294.54843" transform="rotate(-0 70.478125 294.54843)">−750</text>
     </g>
    </g>
    <g id="ytick_3">
     <g id="line2d_68">
      <path d="M 77.478125 250.339048 
L 532.926066 250.339048 
" clip-path="url(#p0346823cbc)" style="fill: none; stroke: #ffffff; stroke-width: 2; stroke-linecap: square"/>
     </g>
     <g id="line2d_69">
      <g>
       <use xlink:href="#mee99cd2278" x="77.478125" y="250.339048" style="stroke: #000000; stroke-width: 0.8"/>
      </g>
     </g>
     <g id="text_15">
      <text style="font: 14px 'Times New Roman', 'Times', 'DejaVu Serif', serif; text-anchor: end" x="70.478125" y="255.657954" transform="rotate(-0 70.478125 255.657954)">−500</text>
     </g>
    </g>
    <g id="ytick_4">
     <g id="line2d_70">
      <path d="M 77.478125 211.448571 
L 532.926066 211.448571 
" clip-path="url(#p0346823cbc)" style="fill: none; stroke: #ffffff; stroke-width: 2; stroke-linecap: square"/>
     </g>
     <g id="line2d_71">
      <g>
       <use xlink:href="#mee99cd2278" x="77.478125" y="211.448571" style="stroke: #000000; stroke-width: 0.8"/>
      </g>
     </g>
     <g id="text_16">
      <text style="font: 14px 'Times New Roman', 'Times', 'DejaVu Serif', serif; text-anchor: end" x="70.478125" y="216.767478" transform="rotate(-0 70.478125 216.767478)">−250</text>
     </g>
    </g>
    <g id="ytick_5">
     <g id="line2d_72">
      <path d="M 77.478125 172.558095 
L 532.926066 172.558095 
" clip-path="url(#p0346823cbc)" style="fill: none; stroke: #ffffff; stroke-width: 2; stroke-linecap: square"/>
     </g>
     <g id="line2d_73">
      <g>
       <use xlink:href="#mee99cd2278" x="77.478125" y="172.558095" style="stroke: #000000; stroke-width: 0.8"/>
      </g>
     </g>
     <g id="text_17">
      <text style="font: 14px 'Times New Roman', 'Times', 'DejaVu Serif', serif; text-anchor: end" x="70.478125" y="177.877001" transform="rotate(-0 70.478125 177.877001)">0</text>
     </g>
    </g>
    <g id="ytick_6">
     <g id="line2d_74">
      <path d="M 77.478125 133.667619 
L 532.926066 133.667619 
" clip-path="url(#p0346823cbc)" style="fill: none; stroke: #ffffff; stroke-width: 2; stroke-linecap: square"/>
     </g>
     <g id="line2d_75">
      <g>
       <use xlink:href="#mee99cd2278" x="77.478125" y="133.667619" style="stroke: #000000; stroke-width: 0.8"/>
      </g>
     </g>
     <g id="text_18">
      <text style="font: 14px 'Times New Roman', 'Times', 'DejaVu Serif', serif; text-anchor: end" x="70.478125" y="138.986525" transform="rotate(-0 70.478125 138.986525)">250</text>
     </g>
    </g>
    <g id="ytick_7">
     <g id="line2d_76">
      <path d="M 77.478125 94.777143 
L 532.926066 94.777143 
" clip-path="url(#p0346823cbc)" style="fill: none; stroke: #ffffff; stroke-width: 2; stroke-linecap: square"/>
     </g>
     <g id="line2d_77">
      <g>
       <use xlink:href="#mee99cd2278" x="77.478125" y="94.777143" style="stroke: #000000; stroke-width: 0.8"/>
      </g>
     </g>
     <g id="text_19">
      <text style="font: 14px 'Times New Roman', 'Times', 'DejaVu Serif', serif; text-anchor: end" x="70.478125" y="100.096049" transform="rotate(-0 70.478125 100.096049)">500</text>
     </g>
    </g>
    <g id="ytick_8">
     <g id="line2d_78">
      <path d="M 77.478125 55.886667 
L 532.926066 55.886667 
" clip-path="url(#p0346823cbc)" style="fill: none; stroke: #ffffff; stroke-width: 2; stroke-linecap: square"/>
     </g>
     <g id="line2d_79">
      <g>
       <use xlink:href="#mee99cd2278" x="77.478125" y="55.886667" style="stroke: #000000; stroke-width: 0.8"/>
      </g>
     </g>
     <g id="text_20">
      <text style="font: 14px 'Times New Roman', 'Times', 'DejaVu Serif', serif; text-anchor: end" x="70.478125" y="61.205573" transform="rotate(-0 70.478125 61.205573)">750</text>
     </g>
    </g>
    <g id="ytick_9">
     <g id="line2d_80">
      <path d="M 77.478125 16.99619 
L 532.926066 16.99619 
" clip-path="url(#p0346823cbc)" style="fill: none; stroke: #ffffff; stroke-width: 2; stroke-linecap: square"/>
     </g>
     <g id="line2d_81">
      <g>
       <use xlink:href="#mee99cd2278" x="77.478125" y="16.99619" style="stroke: #000000; stroke-width: 0.8"/>
      </g>
     </g>
     <g id="text_21">
      <text style="font: 14px 'Times New Roman', 'Times', 'DejaVu Serif', serif; text-anchor: end" x="70.478125" y="22.315097" transform="rotate(-0 70.478125 22.315097)">1000</text>
     </g>
    </g>
    <g id="text_22">
     <text style="font: 18px 'Times New Roman', 'Times', 'DejaVu Serif', serif; text-anchor: middle" x="15.117188" y="164.78" transform="rotate(-90 15.117188 164.78)">Average episode reward</text>
    </g>
   </g>
   <g id="line2d_82">
    <path d="M 78.192553 305.045889 
L 81.764694 321.803459 
L 85.336835 273.362428 
L 88.908975 236.164286 
L 92.481116 243.007656 
L 96.053257 234.493481 
L 99.625397 217.081994 
L 103.197538 230.852593 
L 106.769679 219.931803 
L 110.34182 227.045119 
L 113.91396 189.461868 
L 117.486101 196.071414 
L 121.058242 204.589693 
L 124.630382 186.250243 
L 128.202523 199.092186 
L 131.774664 201.242276 
L 135.346805 188.948876 
L 138.918945 184.908086 
L 142.491086 183.92616 
L 146.063227 194.003931 
L 149.635367 191.804524 
L 153.207508 178.764947 
L 156.779649 189.084975 
L 160.35179 191.72009 
L 163.92393 162.768269 
L 167.496071 190.105918 
L 171.068212 173.848229 
L 174.640352 192.71585 
L 178.212493 178.919561 
L 181.784634 187.916393 
L 185.356775 162.413661 
L 188.928915 187.174383 
L 192.501056 164.702983 
L 196.073197 169.70159 
L 199.645337 178.923706 
L 203.217478 195.073056 
L 206.789619 175.927744 
L 210.36176 174.867418 
L 213.9339 177.42191 
L 217.506041 183.16028 
L 221.078182 180.190975 
L 224.650322 170.978311 
L 228.222463 172.917822 
L 231.794604 153.412422 
L 235.366745 161.430782 
L 238.938885 163.352137 
L 242.511026 155.775292 
L 246.083167 166.891363 
L 249.655307 155.289965 
L 253.227448 158.301362 
L 256.799589 165.325236 
L 260.37173 161.697219 
L 263.94387 158.044031 
L 267.516011 154.59166 
L 271.088152 164.652373 
L 274.660292 150.59021 
L 278.232433 175.639239 
L 281.804574 182.79703 
L 285.376715 157.543892 
L 288.948855 162.299684 
L 292.520996 164.890791 
L 296.093137 172.003901 
L 299.665277 174.855269 
L 303.237418 154.253974 
L 306.809559 152.561846 
L 310.3817 147.494541 
L 313.95384 159.427636 
L 317.525981 176.059585 
L 321.098122 156.458277 
L 324.670262 150.178423 
L 328.242403 150.661369 
L 331.814544 155.690097 
L 335.386685 157.277239 
L 338.958825 162.911789 
L 342.530966 160.358453 
L 346.103107 152.454897 
L 349.675247 153.183808 
L 353.247388 148.150614 
L 356.819529 160.991927 
L 360.39167 150.214123 
L 363.96381 145.970388 
L 367.535951 155.669525 
L 371.108092 145.223863 
L 374.680232 149.290389 
L 378.252373 144.653502 
L 381.824514 146.036146 
L 385.396655 141.03124 
L 388.968795 149.737404 
L 392.540936 151.767547 
L 396.113077 149.321119 
L 399.685218 163.391107 
L 403.257358 159.982108 
L 406.829499 146.818057 
L 410.40164 155.449952 
L 413.97378 140.446221 
L 417.545921 136.755977 
L 421.118062 140.477229 
L 424.690203 162.806206 
L 428.262343 143.452082 
L 431.834484 149.12885 
L 435.406625 160.731375 
L 438.978765 138.140344 
L 442.550906 160.886724 
L 446.123047 154.428838 
L 449.695188 146.805515 
L 453.267328 138.288469 
L 456.839469 142.586021 
L 460.41161 128.454458 
L 463.98375 139.75855 
L 467.555891 144.935225 
L 471.128032 139.906557 
L 474.700173 136.467316 
L 478.272313 142.22177 
L 481.844454 147.621999 
L 485.416595 139.79115 
L 488.988735 135.766907 
L 492.560876 161.562926 
L 496.133017 136.550501 
L 499.705158 152.023252 
L 503.277298 155.230228 
L 506.849439 132.299877 
L 510.42158 151.413834 
L 513.99372 136.005823 
L 517.565861 141.569545 
L 521.138002 144.718819 
" clip-path="url(#p0346823cbc)" style="fill: none; stroke: #c3e5f8; stroke-linecap: round"/>
   </g>
   <g id="line2d_83">
    <path d="M 78.192553 305.612545 
L 81.764694 312.617436 
L 85.336835 307.097049 
L 88.908975 289.948665 
L 92.481116 278.787972 
L 96.053257 295.706079 
L 99.625397 299.085497 
L 103.197538 288.350681 
L 106.769679 252.492067 
L 110.34182 233.369787 
L 113.91396 225.813086 
L 117.486101 234.783014 
L 121.058242 193.472769 
L 124.630382 187.215186 
L 128.202523 195.991592 
L 131.774664 209.088809 
L 135.346805 182.949448 
L 138.918945 171.546565 
L 142.491086 160.489793 
L 146.063227 171.787609 
L 149.635367 163.577209 
L 153.207508 181.164074 
L 156.779649 164.384957 
L 160.35179 146.338259 
L 163.92393 153.169714 
L 167.496071 157.505639 
L 171.068212 151.093885 
L 174.640352 148.657151 
L 178.212493 143.873181 
L 181.784634 153.364394 
L 185.356775 157.725847 
L 188.928915 145.566766 
L 192.501056 134.618314 
L 196.073197 166.541133 
L 199.645337 156.302073 
L 203.217478 146.188207 
L 206.789619 139.86877 
L 210.36176 139.212064 
L 213.9339 137.315455 
L 217.506041 135.817329 
L 221.078182 135.565519 
L 224.650322 134.699064 
L 228.222463 134.014792 
L 231.794604 137.826429 
L 235.366745 137.562596 
L 238.938885 142.862031 
L 242.511026 127.952533 
L 246.083167 126.494861 
L 249.655307 127.182794 
L 253.227448 138.074486 
L 256.799589 131.803772 
L 260.37173 125.867197 
L 263.94387 127.16962 
L 267.516011 137.370147 
L 271.088152 127.329283 
L 274.660292 120.943735 
L 278.232433 131.593107 
L 281.804574 136.113731 
L 285.376715 128.350956 
L 288.948855 122.786788 
L 292.520996 125.51254 
L 296.093137 123.572497 
L 299.665277 124.331536 
L 303.237418 130.648295 
L 306.809559 123.692193 
L 310.3817 144.60266 
L 313.95384 141.415649 
L 317.525981 156.566888 
L 321.098122 140.67378 
L 324.670262 122.906109 
L 328.242403 120.273183 
L 331.814544 150.400916 
L 335.386685 129.836537 
L 338.958825 132.205257 
L 342.530966 144.421681 
L 346.103107 138.40346 
L 349.675247 131.150344 
L 353.247388 119.125458 
L 356.819529 121.644499 
L 360.39167 130.401104 
L 363.96381 130.485465 
L 367.535951 117.993195 
L 371.108092 139.370856 
L 374.680232 116.406941 
L 378.252373 122.655709 
L 381.824514 122.407302 
L 385.396655 120.405079 
L 388.968795 125.247247 
L 392.540936 124.725273 
L 396.113077 127.738554 
L 399.685218 131.692441 
L 403.257358 123.216198 
L 406.829499 117.085412 
L 410.40164 125.89148 
L 413.97378 140.305255 
L 417.545921 132.327801 
L 421.118062 121.257963 
L 424.690203 121.433445 
L 428.262343 102.293715 
L 431.834484 129.242622 
L 435.406625 116.193571 
L 438.978765 114.752007 
L 442.550906 123.955658 
L 446.123047 105.085749 
L 449.695188 117.716827 
L 453.267328 130.196397 
L 456.839469 116.925084 
L 460.41161 116.342676 
L 463.98375 109.659562 
L 467.555891 123.074185 
L 471.128032 107.560972 
L 474.700173 124.027642 
L 478.272313 119.821921 
L 481.844454 106.821545 
L 485.416595 116.921352 
L 488.988735 113.240752 
L 492.560876 107.005007 
L 496.133017 107.245842 
L 499.705158 118.930023 
L 503.277298 120.678228 
L 506.849439 108.107832 
L 510.42158 104.659331 
L 513.99372 126.609999 
L 517.565861 105.577596 
L 521.138002 109.719726 
" clip-path="url(#p0346823cbc)" style="fill: none; stroke: #f9dfca; stroke-linecap: round"/>
   </g>
   <g id="line2d_84">
    <path d="M 78.192553 310.620045 
L 81.764694 303.316697 
L 85.336835 282.977187 
L 88.908975 250.057471 
L 92.481116 231.040318 
L 96.053257 218.123567 
L 99.625397 195.616509 
L 103.197538 204.074525 
L 106.769679 191.122874 
L 110.34182 186.085472 
L 113.91396 174.731872 
L 117.486101 171.994525 
L 121.058242 173.581053 
L 124.630382 168.092512 
L 128.202523 151.031706 
L 131.774664 160.346137 
L 135.346805 173.151702 
L 138.918945 158.281443 
L 142.491086 149.659557 
L 146.063227 145.692187 
L 149.635367 162.553995 
L 153.207508 169.77355 
L 156.779649 148.380508 
L 160.35179 163.119092 
L 163.92393 142.081544 
L 167.496071 151.37572 
L 171.068212 150.948967 
L 174.640352 152.981887 
L 178.212493 139.529022 
L 181.784634 136.706794 
L 185.356775 143.944743 
L 188.928915 142.84533 
L 192.501056 139.414691 
L 196.073197 151.713531 
L 199.645337 136.112682 
L 203.217478 142.403822 
L 206.789619 137.906833 
L 210.36176 140.715628 
L 213.9339 145.866662 
L 217.506041 146.532918 
L 221.078182 142.632133 
L 224.650322 137.685757 
L 228.222463 125.791837 
L 231.794604 126.914273 
L 235.366745 133.968702 
L 238.938885 131.025383 
L 242.511026 131.867045 
L 246.083167 129.411899 
L 249.655307 132.985054 
L 253.227448 137.023114 
L 256.799589 128.859224 
L 260.37173 148.92905 
L 263.94387 132.019521 
L 267.516011 128.019784 
L 271.088152 130.317693 
L 274.660292 145.18469 
L 278.232433 123.073368 
L 281.804574 124.168801 
L 285.376715 120.553833 
L 288.948855 122.648535 
L 292.520996 129.764135 
L 296.093137 124.908911 
L 299.665277 125.550599 
L 303.237418 115.258243 
L 306.809559 117.389614 
L 310.3817 136.108348 
L 313.95384 106.429037 
L 317.525981 112.971866 
L 321.098122 116.32588 
L 324.670262 113.06998 
L 328.242403 117.422067 
L 331.814544 124.292778 
L 335.386685 116.711333 
L 338.958825 109.874091 
L 342.530966 119.462555 
L 346.103107 127.170052 
L 349.675247 120.671914 
L 353.247388 126.180049 
L 356.819529 117.971946 
L 360.39167 132.348723 
L 363.96381 130.149498 
L 367.535951 116.026724 
L 371.108092 139.671151 
L 374.680232 114.839862 
L 378.252373 126.398623 
L 381.824514 124.675492 
L 385.396655 110.416963 
L 388.968795 111.255178 
L 392.540936 126.65547 
L 396.113077 108.309234 
L 399.685218 135.474187 
L 403.257358 107.217419 
L 406.829499 124.524849 
L 410.40164 123.967963 
L 413.97378 114.795949 
L 417.545921 124.684384 
L 421.118062 119.258963 
L 424.690203 107.927631 
L 428.262343 112.961768 
L 431.834484 103.569571 
L 435.406625 120.989124 
L 438.978765 130.699785 
L 442.550906 118.487449 
L 446.123047 106.883812 
L 449.695188 110.037259 
L 453.267328 115.163908 
L 456.839469 106.666947 
L 460.41161 91.546651 
L 463.98375 117.523889 
L 467.555891 112.191023 
L 471.128032 114.231899 
L 474.700173 108.127543 
L 478.272313 107.437265 
L 481.844454 108.160879 
L 485.416595 121.600377 
L 488.988735 111.611943 
L 492.560876 113.114771 
L 496.133017 113.410903 
L 499.705158 96.560982 
L 503.277298 99.879249 
L 506.849439 105.765198 
L 510.42158 100.07476 
L 513.99372 108.154906 
L 517.565861 117.372348 
L 521.138002 94.691785 
" clip-path="url(#p0346823cbc)" style="fill: none; stroke: #c0f8e9; stroke-linecap: round"/>
   </g>
   <g id="line2d_85">
    <path d="M 78.192553 300.997235 
L 81.764694 296.008848 
L 85.336835 281.57919 
L 88.908975 284.723764 
L 92.481116 249.017821 
L 96.053257 230.652083 
L 99.625397 184.845808 
L 103.197538 156.166616 
L 106.769679 156.7134 
L 110.34182 148.663527 
L 113.91396 122.534399 
L 117.486101 122.752788 
L 121.058242 122.619486 
L 124.630382 129.156257 
L 128.202523 114.827396 
L 131.774664 99.695259 
L 135.346805 107.494756 
L 138.918945 104.814864 
L 142.491086 109.20532 
L 146.063227 92.698943 
L 149.635367 106.21636 
L 153.207508 106.638102 
L 156.779649 99.291847 
L 160.35179 96.198003 
L 163.92393 116.43723 
L 167.496071 89.253926 
L 171.068212 100.709146 
L 174.640352 93.549434 
L 178.212493 97.162968 
L 181.784634 123.853191 
L 185.356775 94.370777 
L 188.928915 87.173352 
L 192.501056 87.37128 
L 196.073197 112.57848 
L 199.645337 113.077343 
L 203.217478 102.173184 
L 206.789619 95.773711 
L 210.36176 79.41098 
L 213.9339 89.060566 
L 217.506041 89.799637 
L 221.078182 111.626779 
L 224.650322 88.435603 
L 228.222463 93.249804 
L 231.794604 103.492612 
L 235.366745 105.318579 
L 238.938885 118.142296 
L 242.511026 103.992348 
L 246.083167 81.596747 
L 249.655307 88.070416 
L 253.227448 89.651898 
L 256.799589 87.279276 
L 260.37173 85.798475 
L 263.94387 75.120694 
L 267.516011 76.030813 
L 271.088152 121.115965 
L 274.660292 106.981926 
L 278.232433 123.484234 
L 281.804574 103.246745 
L 285.376715 81.250264 
L 288.948855 81.586673 
L 292.520996 80.563234 
L 296.093137 87.613804 
L 299.665277 93.824848 
L 303.237418 81.871097 
L 306.809559 110.492442 
L 310.3817 91.678485 
L 313.95384 98.951783 
L 317.525981 82.083789 
L 321.098122 83.358857 
L 324.670262 93.853921 
L 328.242403 92.667705 
L 331.814544 100.388917 
L 335.386685 94.819233 
L 338.958825 75.951769 
L 342.530966 81.480094 
L 346.103107 91.894671 
L 349.675247 84.370912 
L 353.247388 103.471623 
L 356.819529 82.689003 
L 360.39167 78.131734 
L 363.96381 78.945766 
L 367.535951 98.648972 
L 371.108092 69.833099 
L 374.680232 67.644902 
L 378.252373 77.771437 
L 381.824514 77.82419 
L 385.396655 81.030015 
L 388.968795 69.855697 
L 392.540936 64.879425 
L 396.113077 80.092409 
L 399.685218 81.349522 
L 403.257358 78.426109 
L 406.829499 63.541577 
L 410.40164 98.519796 
L 413.97378 78.65724 
L 417.545921 87.49623 
L 421.118062 77.85726 
L 424.690203 66.459236 
L 428.262343 99.985566 
L 431.834484 72.079708 
L 435.406625 82.300905 
L 438.978765 77.148079 
L 442.550906 71.367364 
L 446.123047 64.184305 
L 449.695188 77.832118 
L 453.267328 80.342614 
L 456.839469 70.211142 
L 460.41161 66.443361 
L 463.98375 67.937606 
L 467.555891 60.401314 
L 471.128032 64.784933 
L 474.700173 91.154632 
L 478.272313 61.817711 
L 481.844454 108.585564 
L 485.416595 85.377962 
L 488.988735 73.805121 
L 492.560876 64.582192 
L 496.133017 72.832489 
L 499.705158 67.02838 
L 503.277298 68.054116 
L 506.849439 72.555138 
L 510.42158 71.444538 
L 513.99372 63.071198 
L 517.565861 65.376332 
L 521.138002 59.776531 
" clip-path="url(#p0346823cbc)" style="fill: none; stroke: #f3e6ed; stroke-linecap: round"/>
   </g>
   <g id="line2d_86">
    <path d="M 78.192553 308.441932 
L 81.764694 304.060563 
L 85.336835 302.428283 
L 88.908975 241.575179 
L 92.481116 235.162429 
L 96.053257 178.612399 
L 99.625397 155.090375 
L 103.197538 128.814703 
L 106.769679 133.34528 
L 110.34182 133.504696 
L 113.91396 105.145799 
L 117.486101 125.358416 
L 121.058242 108.770171 
L 124.630382 87.78037 
L 128.202523 89.986759 
L 131.774664 115.287354 
L 135.346805 131.324344 
L 138.918945 96.922158 
L 142.491086 76.733766 
L 146.063227 86.710198 
L 149.635367 71.559491 
L 153.207508 68.778679 
L 156.779649 78.77319 
L 160.35179 80.641879 
L 163.92393 79.983342 
L 167.496071 85.096225 
L 171.068212 81.668356 
L 174.640352 82.95158 
L 178.212493 67.896589 
L 181.784634 63.476927 
L 185.356775 73.428778 
L 188.928915 79.689157 
L 192.501056 73.292604 
L 196.073197 67.142991 
L 199.645337 62.770376 
L 203.217478 73.299346 
L 206.789619 81.840201 
L 210.36176 80.313513 
L 213.9339 94.44966 
L 217.506041 74.411617 
L 221.078182 50.296417 
L 224.650322 69.427531 
L 228.222463 86.243836 
L 231.794604 75.32654 
L 235.366745 55.054376 
L 238.938885 53.593306 
L 242.511026 48.091728 
L 246.083167 58.85949 
L 249.655307 63.201703 
L 253.227448 53.266573 
L 256.799589 58.325506 
L 260.37173 63.449421 
L 263.94387 56.580296 
L 267.516011 86.104662 
L 271.088152 56.938514 
L 274.660292 63.429007 
L 278.232433 80.710203 
L 281.804574 61.833074 
L 285.376715 55.662866 
L 288.948855 56.234858 
L 292.520996 68.591671 
L 296.093137 66.018718 
L 299.665277 56.213913 
L 303.237418 59.535279 
L 306.809559 60.04865 
L 310.3817 74.767252 
L 313.95384 71.054465 
L 317.525981 66.779418 
L 321.098122 70.831168 
L 324.670262 57.083052 
L 328.242403 51.591358 
L 331.814544 51.01985 
L 335.386685 46.036144 
L 338.958825 59.676665 
L 342.530966 63.761561 
L 346.103107 58.252966 
L 349.675247 63.983235 
L 353.247388 43.293017 
L 356.819529 69.618527 
L 360.39167 57.210785 
L 363.96381 53.764259 
L 367.535951 50.161231 
L 371.108092 59.824669 
L 374.680232 55.356338 
L 378.252373 77.271567 
L 381.824514 85.300704 
L 385.396655 72.00356 
L 388.968795 53.397676 
L 392.540936 61.164131 
L 396.113077 45.800646 
L 399.685218 54.897181 
L 403.257358 57.646138 
L 406.829499 44.952699 
L 410.40164 39.928915 
L 413.97378 43.605983 
L 417.545921 55.772929 
L 421.118062 45.768136 
L 424.690203 53.571107 
L 428.262343 52.085246 
L 431.834484 43.872187 
L 435.406625 91.052221 
L 438.978765 44.615141 
L 442.550906 50.500734 
L 446.123047 52.867727 
L 449.695188 41.941896 
L 453.267328 37.345271 
L 456.839469 46.366153 
L 460.41161 50.156379 
L 463.98375 29.210354 
L 467.555891 42.179113 
L 471.128032 36.389169 
L 474.700173 58.454293 
L 478.272313 32.519311 
L 481.844454 43.997632 
L 485.416595 43.730108 
L 488.988735 34.552981 
L 492.560876 49.729059 
L 496.133017 49.25097 
L 499.705158 57.457477 
L 503.277298 47.081411 
L 506.849439 43.197462 
L 510.42158 37.318591 
L 513.99372 31.255978 
L 517.565861 34.855559 
L 521.138002 38.84791 
" clip-path="url(#p0346823cbc)" style="fill: none; stroke: #f9eccd; stroke-linecap: round"/>
   </g>
   <g id="line2d_87">
    <path d="M 78.192553 300.004787 
L 81.764694 272.368129 
L 85.336835 254.002861 
L 88.908975 208.632323 
L 92.481116 163.395184 
L 96.053257 163.233523 
L 99.625397 140.060749 
L 103.197538 116.889621 
L 106.769679 114.364622 
L 110.34182 106.170334 
L 113.91396 107.47729 
L 117.486101 91.459204 
L 121.058242 85.074197 
L 124.630382 80.533174 
L 128.202523 93.119071 
L 131.774664 83.935435 
L 135.346805 72.713966 
L 138.918945 61.593151 
L 142.491086 83.049015 
L 146.063227 79.084883 
L 149.635367 81.871638 
L 153.207508 92.533933 
L 156.779649 72.734161 
L 160.35179 90.050982 
L 163.92393 81.811736 
L 167.496071 70.084349 
L 171.068212 73.088202 
L 174.640352 68.282522 
L 178.212493 50.229745 
L 181.784634 58.776231 
L 185.356775 88.437017 
L 188.928915 79.210033 
L 192.501056 71.953551 
L 196.073197 61.812242 
L 199.645337 64.916378 
L 203.217478 48.412166 
L 206.789619 50.16951 
L 210.36176 57.808384 
L 213.9339 64.593709 
L 217.506041 40.593595 
L 221.078182 65.883741 
L 224.650322 49.80496 
L 228.222463 49.030274 
L 231.794604 53.529815 
L 235.366745 48.350184 
L 238.938885 55.085756 
L 242.511026 56.898085 
L 246.083167 47.034355 
L 249.655307 38.40724 
L 253.227448 47.373507 
L 256.799589 45.893324 
L 260.37173 49.418599 
L 263.94387 36.785955 
L 267.516011 37.344702 
L 271.088152 38.114631 
L 274.660292 39.371488 
L 278.232433 38.158078 
L 281.804574 35.388927 
L 285.376715 35.096156 
L 288.948855 38.846258 
L 292.520996 29.352747 
L 296.093137 28.278787 
L 299.665277 33.962949 
L 303.237418 32.630618 
L 306.809559 31.563304 
L 310.3817 32.100146 
L 313.95384 41.084758 
L 317.525981 33.142669 
L 321.098122 39.378647 
L 324.670262 38.357516 
L 328.242403 30.476545 
L 331.814544 45.352617 
L 335.386685 45.108289 
L 338.958825 28.572611 
L 342.530966 24.367246 
L 346.103107 55.304962 
L 349.675247 36.452765 
L 353.247388 39.407483 
L 356.819529 21.826528 
L 360.39167 30.464752 
L 363.96381 34.862358 
L 367.535951 47.437464 
L 371.108092 47.451212 
L 374.680232 24.445008 
L 378.252373 32.311993 
L 381.824514 24.342968 
L 385.396655 18.25545 
L 388.968795 13.647888 
L 392.540936 30.509615 
L 396.113077 25.676818 
L 399.685218 44.074425 
L 403.257358 24.586613 
L 406.829499 18.222712 
L 410.40164 23.945328 
L 413.97378 11.806458 
L 417.545921 8.074282 
L 421.118062 11.128153 
L 424.690203 16.638761 
L 428.262343 16.879842 
L 431.834484 6.495591 
L 435.406625 16.484129 
L 438.978765 17.480983 
L 442.550906 21.085311 
L 446.123047 21.18737 
L 449.695188 21.187247 
L 453.267328 22.056377 
L 456.839469 33.79173 
L 460.41161 12.166479 
L 463.98375 17.387906 
L 467.555891 3.626507 
L 471.128032 14.479608 
L 474.700173 17.073924 
L 478.272313 12.999871 
L 481.844454 14.667528 
L 485.416595 19.707947 
L 488.988735 10.298768 
L 492.560876 20.782486 
L 496.133017 15.856261 
L 499.705158 13.201502 
L 503.277298 4.294994 
L 506.849439 16.143088 
L 510.42158 18.956039 
L 513.99372 11.26577 
L 517.565861 4.653193 
L 521.138002 10.554765 
" clip-path="url(#p0346823cbc)" style="fill: none; stroke: #e0eff8; stroke-linecap: round"/>
   </g>
   <g id="line2d_88">
    <path d="M 78.192553 305.045889 
L 81.764694 306.721646 
L 85.336835 303.385724 
L 88.908975 296.663581 
L 92.481116 291.297988 
L 96.053257 285.617537 
L 99.625397 278.763983 
L 103.197538 273.972844 
L 106.769679 268.56874 
L 110.34182 264.416378 
L 113.91396 256.920927 
L 117.486101 250.835976 
L 121.058242 246.211347 
L 124.630382 240.215237 
L 128.202523 236.102932 
L 131.774664 232.616866 
L 135.346805 228.250067 
L 138.918945 223.915869 
L 142.491086 219.916898 
L 146.063227 217.325601 
L 149.635367 214.773494 
L 153.207508 211.172639 
L 156.779649 208.963873 
L 160.35179 207.239494 
L 163.92393 202.792372 
L 167.496071 201.523726 
L 171.068212 198.756177 
L 174.640352 198.152144 
L 178.212493 196.228886 
L 181.784634 195.397636 
L 185.356775 192.099239 
L 188.928915 191.606753 
L 192.501056 188.916376 
L 196.073197 186.994898 
L 199.645337 186.187778 
L 203.217478 187.076306 
L 206.789619 185.96145 
L 210.36176 184.852047 
L 213.9339 184.109033 
L 217.506041 184.014158 
L 221.078182 183.63184 
L 224.650322 182.366487 
L 228.222463 181.42162 
L 231.794604 178.6207 
L 235.366745 176.901709 
L 238.938885 175.546751 
L 242.511026 173.569605 
L 246.083167 172.901781 
L 249.655307 171.1406 
L 253.227448 169.856676 
L 256.799589 169.403532 
L 260.37173 168.6329 
L 263.94387 167.574014 
L 267.516011 166.275778 
L 271.088152 166.113438 
L 274.660292 164.561115 
L 278.232433 165.668927 
L 281.804574 167.381738 
L 285.376715 166.397953 
L 288.948855 165.988126 
L 292.520996 165.878393 
L 296.093137 166.490944 
L 299.665277 167.327376 
L 303.237418 166.020036 
L 306.809559 164.674217 
L 310.3817 162.956249 
L 313.95384 162.603388 
L 317.525981 163.949008 
L 321.098122 163.199935 
L 324.670262 161.897783 
L 328.242403 160.774142 
L 331.814544 160.265737 
L 335.386685 159.966888 
L 338.958825 160.261378 
L 342.530966 160.271085 
L 346.103107 159.489466 
L 349.675247 158.858901 
L 353.247388 157.788072 
L 356.819529 158.108457 
L 360.39167 157.319024 
L 363.96381 156.18416 
L 367.535951 156.132697 
L 371.108092 155.041813 
L 374.680232 154.466671 
L 378.252373 153.485354 
L 381.824514 152.740433 
L 385.396655 151.569514 
L 388.968795 151.386303 
L 392.540936 151.424427 
L 396.113077 151.214096 
L 399.685218 152.431798 
L 403.257358 153.186829 
L 406.829499 152.549951 
L 410.40164 152.839952 
L 413.97378 151.600578 
L 417.545921 150.116118 
L 421.118062 149.152229 
L 424.690203 150.517627 
L 428.262343 149.811073 
L 431.834484 149.74285 
L 435.406625 150.841703 
L 438.978765 149.571567 
L 442.550906 150.703083 
L 446.123047 151.075658 
L 449.695188 150.648644 
L 453.267328 149.412626 
L 456.839469 148.729966 
L 460.41161 146.702415 
L 463.98375 146.008029 
L 467.555891 145.900748 
L 471.128032 145.301329 
L 474.700173 144.417928 
L 478.272313 144.198312 
L 481.844454 144.540681 
L 485.416595 144.065728 
L 488.988735 143.235846 
L 492.560876 145.068554 
L 496.133017 144.216748 
L 499.705158 144.997399 
L 503.277298 146.020682 
L 506.849439 144.648601 
L 510.42158 145.325125 
L 513.99372 144.393194 
L 517.565861 144.110829 
L 521.138002 144.171628 
" clip-path="url(#p0346823cbc)" style="fill: none; stroke: #0072b2; stroke-width: 2; stroke-linecap: round"/>
    <defs>
     <path id="mcd8686ea63" d="M 0 5 
C 1.326016 5 2.597899 4.473168 3.535534 3.535534 
C 4.473168 2.597899 5 1.326016 5 0 
C 5 -1.326016 4.473168 -2.597899 3.535534 -3.535534 
C 2.597899 -4.473168 1.326016 -5 0 -5 
C -1.326016 -5 -2.597899 -4.473168 -3.535534 -3.535534 
C -4.473168 -2.597899 -5 -1.326016 -5 0 
C -5 1.326016 -4.473168 2.597899 -3.535534 3.535534 
C -2.597899 4.473168 -1.326016 5 0 5 
z
" style="stroke: #0072b2"/>
    </defs>
    <g clip-path="url(#p0346823cbc)">
     <use xlink:href="#mcd8686ea63" x="78.192553" y="305.045889" style="fill-opacity: 0; stroke: #0072b2"/>
     <use xlink:href="#mcd8686ea63" x="124.630382" y="240.215237" style="fill-opacity: 0; stroke: #0072b2"/>
     <use xlink:href="#mcd8686ea63" x="167.496071" y="201.523726" style="fill-opacity: 0; stroke: #0072b2"/>
     <use xlink:href="#mcd8686ea63" x="213.9339" y="184.109033" style="fill-opacity: 0; stroke: #0072b2"/>
     <use xlink:href="#mcd8686ea63" x="256.799589" y="169.403532" style="fill-opacity: 0; stroke: #0072b2"/>
     <use xlink:href="#mcd8686ea63" x="303.237418" y="166.020036" style="fill-opacity: 0; stroke: #0072b2"/>
     <use xlink:href="#mcd8686ea63" x="346.103107" y="159.489466" style="fill-opacity: 0; stroke: #0072b2"/>
     <use xlink:href="#mcd8686ea63" x="392.540936" y="151.424427" style="fill-opacity: 0; stroke: #0072b2"/>
     <use xlink:href="#mcd8686ea63" x="435.406625" y="150.841703" style="fill-opacity: 0; stroke: #0072b2"/>
     <use xlink:href="#mcd8686ea63" x="481.844454" y="144.540681" style="fill-opacity: 0; stroke: #0072b2"/>
     <use xlink:href="#mcd8686ea63" x="521.138002" y="144.171628" style="fill-opacity: 0; stroke: #0072b2"/>
    </g>
   </g>
   <g id="line2d_89">
    <path d="M 78.192553 305.612545 
L 81.764694 306.313034 
L 85.336835 306.391436 
L 88.908975 304.747159 
L 92.481116 302.15124 
L 96.053257 301.506724 
L 99.625397 301.264601 
L 103.197538 299.973209 
L 106.769679 295.225095 
L 110.34182 289.039564 
L 113.91396 282.716916 
L 117.486101 277.923526 
L 121.058242 269.47845 
L 124.630382 261.252124 
L 128.202523 254.726071 
L 131.774664 250.162344 
L 135.346805 243.441055 
L 138.918945 236.251606 
L 142.491086 228.675425 
L 146.063227 222.986643 
L 149.635367 217.0457 
L 153.207508 213.457537 
L 156.779649 208.550279 
L 160.35179 202.329077 
L 163.92393 197.413141 
L 167.496071 193.422391 
L 171.068212 189.18954 
L 174.640352 185.136301 
L 178.212493 181.009989 
L 181.784634 178.24543 
L 185.356775 176.193471 
L 188.928915 173.130801 
L 192.501056 169.279552 
L 196.073197 169.00571 
L 199.645337 167.735347 
L 203.217478 165.580633 
L 206.789619 163.009446 
L 210.36176 160.629708 
L 213.9339 158.298283 
L 217.506041 156.050187 
L 221.078182 154.001721 
L 224.650322 152.071455 
L 228.222463 150.265789 
L 231.794604 149.021853 
L 235.366745 147.875927 
L 238.938885 147.374537 
L 242.511026 145.432337 
L 246.083167 143.538589 
L 249.655307 141.90301 
L 253.227448 141.520157 
L 256.799589 140.548519 
L 260.37173 139.080387 
L 263.94387 137.88931 
L 267.516011 137.837394 
L 271.088152 136.786583 
L 274.660292 135.202298 
L 278.232433 134.841379 
L 281.804574 134.968614 
L 285.376715 134.306848 
L 288.948855 133.154842 
L 292.520996 132.390612 
L 296.093137 131.508801 
L 299.665277 130.791074 
L 303.237418 130.776796 
L 306.809559 130.068336 
L 310.3817 131.521768 
L 313.95384 132.511156 
L 317.525981 134.916729 
L 321.098122 135.492434 
L 324.670262 134.233802 
L 328.242403 132.83774 
L 331.814544 134.594058 
L 335.386685 134.118305 
L 338.958825 133.927001 
L 342.530966 134.976469 
L 346.103107 135.319168 
L 349.675247 134.902285 
L 353.247388 133.324603 
L 356.819529 132.156592 
L 360.39167 131.981043 
L 363.96381 131.831486 
L 367.535951 130.447657 
L 371.108092 131.339977 
L 374.680232 129.846673 
L 378.252373 129.127577 
L 381.824514 128.455549 
L 385.396655 127.650502 
L 388.968795 127.410177 
L 392.540936 127.141686 
L 396.113077 127.201373 
L 399.685218 127.65048 
L 403.257358 127.207052 
L 406.829499 126.194888 
L 410.40164 126.164547 
L 413.97378 127.578618 
L 417.545921 128.053536 
L 421.118062 127.373979 
L 424.690203 126.779925 
L 428.262343 124.331304 
L 431.834484 124.822436 
L 435.406625 123.95955 
L 438.978765 123.038795 
L 442.550906 123.130482 
L 446.123047 121.326008 
L 449.695188 120.96509 
L 453.267328 121.888221 
L 456.839469 121.391907 
L 460.41161 120.886984 
L 463.98375 119.764242 
L 467.555891 120.095236 
L 471.128032 118.84181 
L 474.700173 119.360393 
L 478.272313 119.406546 
L 481.844454 118.148046 
L 485.416595 118.025376 
L 488.988735 117.546914 
L 492.560876 116.492723 
L 496.133017 115.568035 
L 499.705158 115.904234 
L 503.277298 116.381633 
L 506.849439 115.554253 
L 510.42158 114.464761 
L 513.99372 115.679285 
L 517.565861 114.669116 
L 521.138002 114.174177 
" clip-path="url(#p0346823cbc)" style="fill: none; stroke: #d55e00; stroke-width: 2; stroke-linecap: round"/>
    <defs>
     <path id="m0025c773f0" d="M -5 5 
L 5 5 
L 5 -5 
L -5 -5 
z
" style="stroke: #d55e00; stroke-linejoin: miter"/>
    </defs>
    <g clip-path="url(#p0346823cbc)">
     <use xlink:href="#m0025c773f0" x="78.192553" y="305.612545" style="fill-opacity: 0; stroke: #d55e00; stroke-linejoin: miter"/>
     <use xlink:href="#m0025c773f0" x="124.630382" y="261.252124" style="fill-opacity: 0; stroke: #d55e00; stroke-linejoin: miter"/>
     <use xlink:href="#m0025c773f0" x="167.496071" y="193.422391" style="fill-opacity: 0; stroke: #d55e00; stroke-linejoin: miter"/>
     <use xlink:href="#m0025c773f0" x="213.9339" y="158.298283" style="fill-opacity: 0; stroke: #d55e00; stroke-linejoin: miter"/>
     <use xlink:href="#m0025c773f0" x="256.799589" y="140.548519" style="fill-opacity: 0; stroke: #d55e00; stroke-linejoin: miter"/>
     <use xlink:href="#m0025c773f0" x="303.237418" y="130.776796" style="fill-opacity: 0; stroke: #d55e00; stroke-linejoin: miter"/>
     <use xlink:href="#m0025c773f0" x="346.103107" y="135.319168" style="fill-opacity: 0; stroke: #d55e00; stroke-linejoin: miter"/>
     <use xlink:href="#m0025c773f0" x="392.540936" y="127.141686" style="fill-opacity: 0; stroke: #d55e00; stroke-linejoin: miter"/>
     <use xlink:href="#m0025c773f0" x="435.406625" y="123.95955" style="fill-opacity: 0; stroke: #d55e00; stroke-linejoin: miter"/>
     <use xlink:href="#m0025c773f0" x="481.844454" y="118.148046" style="fill-opacity: 0; stroke: #d55e00; stroke-linejoin: miter"/>
     <use xlink:href="#m0025c773f0" x="521.138002" y="114.174177" style="fill-opacity: 0; stroke: #d55e00; stroke-linejoin: miter"/>
    </g>
   </g>
   <g id="line2d_90">
    <path d="M 78.192553 310.620045 
L 81.764694 309.88971 
L 85.336835 307.198458 
L 88.908975 301.484359 
L 92.481116 294.439955 
L 96.053257 286.808316 
L 99.625397 277.689136 
L 103.197538 270.327675 
L 106.769679 262.407195 
L 110.34182 254.775022 
L 113.91396 246.770707 
L 117.486101 239.293089 
L 121.058242 232.721886 
L 124.630382 226.258948 
L 128.202523 218.736224 
L 131.774664 212.897215 
L 135.346805 208.922664 
L 138.918945 203.858542 
L 142.491086 198.438643 
L 146.063227 193.163998 
L 149.635367 190.102997 
L 153.207508 188.070053 
L 156.779649 184.101098 
L 160.35179 182.002897 
L 163.92393 178.010762 
L 167.496071 175.347258 
L 171.068212 172.907429 
L 174.640352 170.914875 
L 178.212493 167.776289 
L 181.784634 164.66934 
L 185.356775 162.59688 
L 188.928915 160.621725 
L 192.501056 158.501022 
L 196.073197 157.822273 
L 199.645337 155.651314 
L 203.217478 154.326564 
L 206.789619 152.684591 
L 210.36176 151.487695 
L 213.9339 150.925592 
L 217.506041 150.486324 
L 221.078182 149.700905 
L 224.650322 148.49939 
L 228.222463 146.228635 
L 231.794604 144.297199 
L 235.366745 143.264349 
L 238.938885 142.040453 
L 242.511026 141.023112 
L 246.083167 139.86199 
L 249.655307 139.174297 
L 253.227448 138.959179 
L 256.799589 137.949183 
L 260.37173 139.04717 
L 263.94387 138.344405 
L 267.516011 137.311943 
L 271.088152 136.612518 
L 274.660292 137.469735 
L 278.232433 136.030098 
L 281.804574 134.843969 
L 285.376715 133.414955 
L 288.948855 132.338313 
L 292.520996 132.080895 
L 296.093137 131.363697 
L 299.665277 130.782387 
L 303.237418 129.229973 
L 306.809559 128.045937 
L 310.3817 128.852178 
L 313.95384 126.609864 
L 317.525981 125.246064 
L 321.098122 124.354046 
L 324.670262 123.225639 
L 328.242403 122.645282 
L 331.814544 122.810032 
L 335.386685 122.200162 
L 338.958825 120.967555 
L 342.530966 120.817055 
L 346.103107 121.452354 
L 349.675247 121.37431 
L 353.247388 121.854884 
L 356.819529 121.46659 
L 360.39167 122.554804 
L 363.96381 123.314273 
L 367.535951 122.585518 
L 371.108092 124.294082 
L 374.680232 123.34866 
L 378.252373 123.653656 
L 381.824514 123.75584 
L 385.396655 122.421952 
L 388.968795 121.305275 
L 392.540936 121.840294 
L 396.113077 120.487188 
L 399.685218 121.985888 
L 403.257358 120.509041 
L 406.829499 120.910622 
L 410.40164 121.216356 
L 413.97378 120.574315 
L 417.545921 120.985322 
L 421.118062 120.812686 
L 424.690203 119.524181 
L 428.262343 118.867939 
L 431.834484 117.338103 
L 435.406625 117.703205 
L 438.978765 119.002863 
L 442.550906 118.951321 
L 446.123047 117.74457 
L 449.695188 116.973839 
L 453.267328 116.792846 
L 456.839469 115.780256 
L 460.41161 113.356896 
L 463.98375 113.773595 
L 467.555891 113.615338 
L 471.128032 113.676994 
L 474.700173 113.122049 
L 478.272313 112.55357 
L 481.844454 112.114301 
L 485.416595 113.062909 
L 488.988735 112.917812 
L 492.560876 112.937508 
L 496.133017 112.984848 
L 499.705158 111.342461 
L 503.277298 110.19614 
L 506.849439 109.753046 
L 510.42158 108.785217 
L 513.99372 108.722186 
L 517.565861 109.587202 
L 521.138002 108.097661 
" clip-path="url(#p0346823cbc)" style="fill: none; stroke: #009e73; stroke-width: 2; stroke-linecap: round"/>
    <defs>
     <path id="m754fa5dd7e" d="M 0 -5 
L -5 5 
L 5 5 
z
" style="stroke: #009e73; stroke-linejoin: miter"/>
    </defs>
    <g clip-path="url(#p0346823cbc)">
     <use xlink:href="#m754fa5dd7e" x="78.192553" y="310.620045" style="fill-opacity: 0; stroke: #009e73; stroke-linejoin: miter"/>
     <use xlink:href="#m754fa5dd7e" x="124.630382" y="226.258948" style="fill-opacity: 0; stroke: #009e73; stroke-linejoin: miter"/>
     <use xlink:href="#m754fa5dd7e" x="167.496071" y="175.347258" style="fill-opacity: 0; stroke: #009e73; stroke-linejoin: miter"/>
     <use xlink:href="#m754fa5dd7e" x="213.9339" y="150.925592" style="fill-opacity: 0; stroke: #009e73; stroke-linejoin: miter"/>
     <use xlink:href="#m754fa5dd7e" x="256.799589" y="137.949183" style="fill-opacity: 0; stroke: #009e73; stroke-linejoin: miter"/>
     <use xlink:href="#m754fa5dd7e" x="303.237418" y="129.229973" style="fill-opacity: 0; stroke: #009e73; stroke-linejoin: miter"/>
     <use xlink:href="#m754fa5dd7e" x="346.103107" y="121.452354" style="fill-opacity: 0; stroke: #009e73; stroke-linejoin: miter"/>
     <use xlink:href="#m754fa5dd7e" x="392.540936" y="121.840294" style="fill-opacity: 0; stroke: #009e73; stroke-linejoin: miter"/>
     <use xlink:href="#m754fa5dd7e" x="435.406625" y="117.703205" style="fill-opacity: 0; stroke: #009e73; stroke-linejoin: miter"/>
     <use xlink:href="#m754fa5dd7e" x="481.844454" y="112.114301" style="fill-opacity: 0; stroke: #009e73; stroke-linejoin: miter"/>
     <use xlink:href="#m754fa5dd7e" x="521.138002" y="108.097661" style="fill-opacity: 0; stroke: #009e73; stroke-linejoin: miter"/>
    </g>
   </g>
   <g id="line2d_91">
    <path d="M 78.192553 300.997235 
L 81.764694 300.498396 
L 85.336835 298.606476 
L 88.908975 297.218204 
L 92.481116 292.398166 
L 96.053257 286.223558 
L 99.625397 276.085783 
L 103.197538 264.093866 
L 106.769679 253.355819 
L 110.34182 242.88659 
L 113.91396 230.851371 
L 117.486101 220.041513 
L 121.058242 210.29931 
L 124.630382 202.185005 
L 128.202523 193.449244 
L 131.774664 184.073845 
L 135.346805 176.415936 
L 138.918945 169.255829 
L 142.491086 163.250778 
L 146.063227 156.195595 
L 149.635367 151.197671 
L 153.207508 146.741714 
L 156.779649 141.996728 
L 160.35179 137.416855 
L 163.92393 135.318893 
L 167.496071 130.712396 
L 171.068212 127.712071 
L 174.640352 124.295807 
L 178.212493 121.582523 
L 181.784634 121.80959 
L 185.356775 119.065709 
L 188.928915 115.876473 
L 192.501056 113.025954 
L 196.073197 112.981206 
L 199.645337 112.99082 
L 203.217478 111.909056 
L 206.789619 110.295522 
L 210.36176 107.207068 
L 213.9339 105.392418 
L 217.506041 103.833139 
L 221.078182 104.612503 
L 224.650322 102.994813 
L 228.222463 102.020312 
L 231.794604 102.167542 
L 235.366745 102.482646 
L 238.938885 104.048611 
L 242.511026 104.042985 
L 246.083167 101.798361 
L 249.655307 100.425566 
L 253.227448 99.3482 
L 256.799589 98.141307 
L 260.37173 96.907024 
L 263.94387 94.728391 
L 267.516011 92.858633 
L 271.088152 95.684366 
L 274.660292 96.814122 
L 278.232433 99.481133 
L 281.804574 99.857695 
L 285.376715 97.996952 
L 288.948855 96.355924 
L 292.520996 94.776655 
L 296.093137 94.06037 
L 299.665277 94.036818 
L 303.237418 92.820245 
L 306.809559 94.587465 
L 310.3817 94.296567 
L 313.95384 94.762089 
L 317.525981 93.494259 
L 321.098122 92.480719 
L 324.670262 92.618039 
L 328.242403 92.623005 
L 331.814544 93.399597 
L 335.386685 93.54156 
L 338.958825 91.782581 
L 342.530966 90.752332 
L 346.103107 90.866566 
L 349.675247 90.217001 
L 353.247388 91.542463 
L 356.819529 90.657117 
L 360.39167 89.404579 
L 363.96381 88.358698 
L 367.535951 89.387725 
L 371.108092 87.432262 
L 374.680232 85.453526 
L 378.252373 84.685317 
L 381.824514 83.999205 
L 385.396655 83.702286 
L 388.968795 82.317627 
L 392.540936 80.573807 
L 396.113077 80.525667 
L 399.685218 80.608052 
L 403.257358 80.389858 
L 406.829499 78.70503 
L 410.40164 80.686506 
L 413.97378 80.48358 
L 417.545921 81.184845 
L 421.118062 80.852086 
L 424.690203 79.412801 
L 428.262343 81.470078 
L 431.834484 80.531041 
L 435.406625 80.708027 
L 438.978765 80.352032 
L 442.550906 79.453566 
L 446.123047 77.92664 
L 449.695188 77.917187 
L 453.267328 78.15973 
L 456.839469 77.364871 
L 460.41161 76.27272 
L 463.98375 75.439209 
L 467.555891 73.935419 
L 471.128032 73.020371 
L 474.700173 74.833797 
L 478.272313 73.532188 
L 481.844454 77.037526 
L 485.416595 77.871569 
L 488.988735 77.464925 
L 492.560876 76.176651 
L 496.133017 75.842235 
L 499.705158 74.96085 
L 503.277298 74.270176 
L 506.849439 74.098672 
L 510.42158 73.833259 
L 513.99372 72.757053 
L 517.565861 72.018981 
L 521.138002 70.794736 
" clip-path="url(#p0346823cbc)" style="fill: none; stroke: #cc79a7; stroke-width: 2; stroke-linecap: round"/>
    <defs>
     <path id="m5a3e4d4d0b" d="M -0 7.071068 
L 7.071068 0 
L 0 -7.071068 
L -7.071068 -0 
z
" style="stroke: #cc79a7; stroke-linejoin: miter"/>
    </defs>
    <g clip-path="url(#p0346823cbc)">
     <use xlink:href="#m5a3e4d4d0b" x="78.192553" y="300.997235" style="fill-opacity: 0; stroke: #cc79a7; stroke-linejoin: miter"/>
     <use xlink:href="#m5a3e4d4d0b" x="124.630382" y="202.185005" style="fill-opacity: 0; stroke: #cc79a7; stroke-linejoin: miter"/>
     <use xlink:href="#m5a3e4d4d0b" x="167.496071" y="130.712396" style="fill-opacity: 0; stroke: #cc79a7; stroke-linejoin: miter"/>
     <use xlink:href="#m5a3e4d4d0b" x="213.9339" y="105.392418" style="fill-opacity: 0; stroke: #cc79a7; stroke-linejoin: miter"/>
     <use xlink:href="#m5a3e4d4d0b" x="256.799589" y="98.141307" style="fill-opacity: 0; stroke: #cc79a7; stroke-linejoin: miter"/>
     <use xlink:href="#m5a3e4d4d0b" x="303.237418" y="92.820245" style="fill-opacity: 0; stroke: #cc79a7; stroke-linejoin: miter"/>
     <use xlink:href="#m5a3e4d4d0b" x="346.103107" y="90.866566" style="fill-opacity: 0; stroke: #cc79a7; stroke-linejoin: miter"/>
     <use xlink:href="#m5a3e4d4d0b" x="392.540936" y="80.573807" style="fill-opacity: 0; stroke: #cc79a7; stroke-linejoin: miter"/>
     <use xlink:href="#m5a3e4d4d0b" x="435.406625" y="80.708027" style="fill-opacity: 0; stroke: #cc79a7; stroke-linejoin: miter"/>
     <use xlink:href="#m5a3e4d4d0b" x="481.844454" y="77.037526" style="fill-opacity: 0; stroke: #cc79a7; stroke-linejoin: miter"/>
     <use xlink:href="#m5a3e4d4d0b" x="521.138002" y="70.794736" style="fill-opacity: 0; stroke: #cc79a7; stroke-linejoin: miter"/>
    </g>
   </g>
   <g id="line2d_92">
    <path d="M 78.192553 308.441932 
L 81.764694 308.003795 
L 85.336835 307.446244 
L 88.908975 300.859137 
L 92.481116 294.289466 
L 96.053257 282.72176 
L 99.625397 269.958621 
L 103.197538 255.844229 
L 106.769679 243.594334 
L 110.34182 232.585371 
L 113.91396 219.841413 
L 117.486101 210.393114 
L 121.058242 200.230819 
L 124.630382 188.985774 
L 128.202523 179.085873 
L 131.774664 172.706021 
L 135.346805 168.567853 
L 138.918945 161.403284 
L 142.491086 152.936332 
L 146.063227 146.313719 
L 149.635367 138.838296 
L 153.207508 131.832334 
L 156.779649 126.52642 
L 160.35179 121.937966 
L 163.92393 117.742503 
L 167.496071 114.477875 
L 171.068212 111.196924 
L 174.640352 108.372389 
L 178.212493 104.324809 
L 181.784634 100.240021 
L 185.356775 97.558897 
L 188.928915 95.771923 
L 192.501056 93.523991 
L 196.073197 90.885891 
L 199.645337 88.074339 
L 203.217478 86.59684 
L 206.789619 86.121176 
L 210.36176 85.54041 
L 213.9339 86.431335 
L 217.506041 85.229363 
L 221.078182 81.736068 
L 224.650322 80.505215 
L 228.222463 81.079077 
L 231.794604 80.503823 
L 235.366745 77.958878 
L 238.938885 75.522321 
L 242.511026 72.779262 
L 246.083167 71.387285 
L 249.655307 70.568727 
L 253.227448 68.838511 
L 256.799589 67.787211 
L 260.37173 67.353432 
L 263.94387 66.276118 
L 267.516011 68.258972 
L 271.088152 67.126927 
L 274.660292 66.757135 
L 278.232433 68.152441 
L 281.804574 67.520505 
L 285.376715 66.334741 
L 288.948855 65.324753 
L 292.520996 65.651444 
L 296.093137 65.688172 
L 299.665277 64.740746 
L 303.237418 64.220199 
L 306.809559 63.803044 
L 310.3817 64.899465 
L 313.95384 65.514965 
L 317.525981 65.64141 
L 321.098122 66.160386 
L 324.670262 65.252653 
L 328.242403 63.886523 
L 331.814544 62.599856 
L 335.386685 60.943485 
L 338.958825 60.816803 
L 342.530966 61.111279 
L 346.103107 60.825447 
L 349.675247 61.141226 
L 353.247388 59.356405 
L 356.819529 60.382617 
L 360.39167 60.065434 
L 363.96381 59.435317 
L 367.535951 58.507908 
L 371.108092 58.639584 
L 374.680232 58.311259 
L 378.252373 60.20729 
L 381.824514 62.716632 
L 385.396655 63.645324 
L 388.968795 62.62056 
L 392.540936 62.474917 
L 396.113077 60.80749 
L 399.685218 60.216459 
L 403.257358 59.959427 
L 406.829499 58.458754 
L 410.40164 56.60577 
L 413.97378 55.305791 
L 417.545921 55.352505 
L 421.118062 54.394068 
L 424.690203 54.311772 
L 428.262343 54.089119 
L 431.834484 53.067426 
L 435.406625 56.865906 
L 438.978765 55.640829 
L 442.550906 55.12682 
L 446.123047 54.900911 
L 449.695188 53.605009 
L 453.267328 51.979035 
L 456.839469 51.417747 
L 460.41161 51.29161 
L 463.98375 49.083485 
L 467.555891 48.393047 
L 471.128032 47.19266 
L 474.700173 48.318823 
L 478.272313 46.738872 
L 481.844454 46.464748 
L 485.416595 46.191284 
L 488.988735 45.027453 
L 492.560876 45.497614 
L 496.133017 45.872949 
L 499.705158 47.031402 
L 503.277298 47.036403 
L 506.849439 46.652509 
L 510.42158 45.719117 
L 513.99372 44.272803 
L 517.565861 43.331079 
L 521.138002 42.882762 
" clip-path="url(#p0346823cbc)" style="fill: none; stroke: #e69f00; stroke-width: 2; stroke-linecap: round"/>
    <defs>
     <path id="mafdec53489" d="M -2.5 5 
L 0 2.5 
L 2.5 5 
L 5 2.5 
L 2.5 0 
L 5 -2.5 
L 2.5 -5 
L 0 -2.5 
L -2.5 -5 
L -5 -2.5 
L -2.5 0 
L -5 2.5 
z
" style="stroke: #e69f00; stroke-linejoin: miter"/>
    </defs>
    <g clip-path="url(#p0346823cbc)">
     <use xlink:href="#mafdec53489" x="78.192553" y="308.441932" style="fill-opacity: 0; stroke: #e69f00; stroke-linejoin: miter"/>
     <use xlink:href="#mafdec53489" x="124.630382" y="188.985774" style="fill-opacity: 0; stroke: #e69f00; stroke-linejoin: miter"/>
     <use xlink:href="#mafdec53489" x="167.496071" y="114.477875" style="fill-opacity: 0; stroke: #e69f00; stroke-linejoin: miter"/>
     <use xlink:href="#mafdec53489" x="213.9339" y="86.431335" style="fill-opacity: 0; stroke: #e69f00; stroke-linejoin: miter"/>
     <use xlink:href="#mafdec53489" x="256.799589" y="67.787211" style="fill-opacity: 0; stroke: #e69f00; stroke-linejoin: miter"/>
     <use xlink:href="#mafdec53489" x="303.237418" y="64.220199" style="fill-opacity: 0; stroke: #e69f00; stroke-linejoin: miter"/>
     <use xlink:href="#mafdec53489" x="346.103107" y="60.825447" style="fill-opacity: 0; stroke: #e69f00; stroke-linejoin: miter"/>
     <use xlink:href="#mafdec53489" x="392.540936" y="62.474917" style="fill-opacity: 0; stroke: #e69f00; stroke-linejoin: miter"/>
     <use xlink:href="#mafdec53489" x="435.406625" y="56.865906" style="fill-opacity: 0; stroke: #e69f00; stroke-linejoin: miter"/>
     <use xlink:href="#mafdec53489" x="481.844454" y="46.464748" style="fill-opacity: 0; stroke: #e69f00; stroke-linejoin: miter"/>
     <use xlink:href="#mafdec53489" x="521.138002" y="42.882762" style="fill-opacity: 0; stroke: #e69f00; stroke-linejoin: miter"/>
    </g>
   </g>
   <g id="line2d_93">
    <path d="M 78.192553 300.004787 
L 81.764694 297.241121 
L 85.336835 292.917295 
L 88.908975 284.488798 
L 92.481116 272.379437 
L 96.053257 261.464845 
L 99.625397 249.324436 
L 103.197538 236.080954 
L 106.769679 223.909321 
L 110.34182 212.135422 
L 113.91396 201.669609 
L 117.486101 190.648569 
L 121.058242 180.091131 
L 124.630382 170.135336 
L 128.202523 162.433709 
L 131.774664 154.583882 
L 135.346805 146.39689 
L 138.918945 137.916516 
L 142.491086 132.429766 
L 146.063227 127.095278 
L 149.635367 122.572914 
L 153.207508 119.569016 
L 156.779649 114.88553 
L 160.35179 112.402076 
L 163.92393 109.343042 
L 167.496071 105.417172 
L 171.068212 102.184275 
L 174.640352 98.7941 
L 178.212493 93.937664 
L 181.784634 90.421521 
L 185.356775 90.223071 
L 188.928915 89.121767 
L 192.501056 87.404945 
L 196.073197 84.845675 
L 199.645337 82.852745 
L 203.217478 79.408687 
L 206.789619 76.48477 
L 210.36176 74.617131 
L 213.9339 73.614789 
L 217.506041 70.312669 
L 221.078182 69.869777 
L 224.650322 67.863295 
L 228.222463 65.979993 
L 231.794604 64.734975 
L 235.366745 63.096496 
L 238.938885 62.295422 
L 242.511026 61.755688 
L 246.083167 60.283555 
L 249.655307 58.095923 
L 253.227448 57.023682 
L 256.799589 55.910646 
L 260.37173 55.261441 
L 263.94387 53.413893 
L 267.516011 51.806974 
L 271.088152 50.437739 
L 274.660292 49.331114 
L 278.232433 48.213811 
L 281.804574 46.931322 
L 285.376715 45.747806 
L 288.948855 45.057651 
L 292.520996 43.48716 
L 296.093137 41.966323 
L 299.665277 41.165986 
L 303.237418 40.312449 
L 306.809559 39.437534 
L 310.3817 38.703795 
L 313.95384 38.941892 
L 317.525981 38.361969 
L 321.098122 38.463637 
L 324.670262 38.453025 
L 328.242403 37.655377 
L 331.814544 38.425101 
L 335.386685 39.09342 
L 338.958825 38.041339 
L 342.530966 36.67393 
L 346.103107 38.537033 
L 349.675247 38.328606 
L 353.247388 38.436494 
L 356.819529 36.775497 
L 360.39167 36.144423 
L 363.96381 36.016216 
L 367.535951 37.158341 
L 371.108092 38.187628 
L 374.680232 36.813366 
L 378.252373 36.363229 
L 381.824514 35.161203 
L 385.396655 33.470627 
L 388.968795 31.488353 
L 392.540936 31.39048 
L 396.113077 30.819113 
L 399.685218 32.144645 
L 403.257358 31.388841 
L 406.829499 30.072228 
L 410.40164 29.459538 
L 413.97378 27.69423 
L 417.545921 25.732236 
L 421.118062 24.271827 
L 424.690203 23.508521 
L 428.262343 22.845653 
L 431.834484 21.210647 
L 435.406625 20.737995 
L 438.978765 20.412294 
L 442.550906 20.479595 
L 446.123047 20.550373 
L 449.695188 20.61406 
L 453.267328 20.758292 
L 456.839469 22.061636 
L 460.41161 21.07212 
L 463.98375 20.703699 
L 467.555891 18.99598 
L 471.128032 18.544342 
L 474.700173 18.397301 
L 478.272313 17.857558 
L 481.844454 17.538555 
L 485.416595 17.755494 
L 488.988735 17.009821 
L 492.560876 17.387088 
L 496.133017 17.234005 
L 499.705158 16.830755 
L 503.277298 15.577179 
L 506.849439 15.63377 
L 510.42158 15.965996 
L 513.99372 15.495974 
L 517.565861 14.411696 
L 521.138002 14.026003 
" clip-path="url(#p0346823cbc)" style="fill: none; stroke: #56b4e9; stroke-width: 2; stroke-linecap: round"/>
    <defs>
     <path id="mb5bdcb0dcb" d="M -1.666667 5 
L 1.666667 5 
L 1.666667 1.666667 
L 5 1.666667 
L 5 -1.666667 
L 1.666667 -1.666667 
L 1.666667 -5 
L -1.666667 -5 
L -1.666667 -1.666667 
L -5 -1.666667 
L -5 1.666667 
L -1.666667 1.666667 
z
" style="stroke: #56b4e9; stroke-linejoin: miter"/>
    </defs>
    <g clip-path="url(#p0346823cbc)">
     <use xlink:href="#mb5bdcb0dcb" x="78.192553" y="300.004787" style="fill-opacity: 0; stroke: #56b4e9; stroke-linejoin: miter"/>
     <use xlink:href="#mb5bdcb0dcb" x="124.630382" y="170.135336" style="fill-opacity: 0; stroke: #56b4e9; stroke-linejoin: miter"/>
     <use xlink:href="#mb5bdcb0dcb" x="167.496071" y="105.417172" style="fill-opacity: 0; stroke: #56b4e9; stroke-linejoin: miter"/>
     <use xlink:href="#mb5bdcb0dcb" x="213.9339" y="73.614789" style="fill-opacity: 0; stroke: #56b4e9; stroke-linejoin: miter"/>
     <use xlink:href="#mb5bdcb0dcb" x="256.799589" y="55.910646" style="fill-opacity: 0; stroke: #56b4e9; stroke-linejoin: miter"/>
     <use xlink:href="#mb5bdcb0dcb" x="303.237418" y="40.312449" style="fill-opacity: 0; stroke: #56b4e9; stroke-linejoin: miter"/>
     <use xlink:href="#mb5bdcb0dcb" x="346.103107" y="38.537033" style="fill-opacity: 0; stroke: #56b4e9; stroke-linejoin: miter"/>
     <use xlink:href="#mb5bdcb0dcb" x="392.540936" y="31.39048" style="fill-opacity: 0; stroke: #56b4e9; stroke-linejoin: miter"/>
     <use xlink:href="#mb5bdcb0dcb" x="435.406625" y="20.737995" style="fill-opacity: 0; stroke: #56b4e9; stroke-linejoin: miter"/>
     <use xlink:href="#mb5bdcb0dcb" x="481.844454" y="17.538555" style="fill-opacity: 0; stroke: #56b4e9; stroke-linejoin: miter"/>
     <use xlink:href="#mb5bdcb0dcb" x="521.138002" y="14.026003" style="fill-opacity: 0; stroke: #56b4e9; stroke-linejoin: miter"/>
    </g>
   </g>
   <g id="patch_3">
    <path d="M 77.478125 328.12 
L 77.478125 1.44 
" style="fill: none; stroke: #000000; stroke-linejoin: miter; stroke-linecap: square"/>
   </g>
   <g id="patch_4">
    <path d="M 77.478125 328.12 
L 532.926066 328.12 
" style="fill: none; stroke: #000000; stroke-linejoin: miter; stroke-linecap: square"/>
   </g>
   <g id="legend_1">
    <g id="patch_5">
     <path d="M 235.907316 321.12 
L 525.926066 321.12 
L 525.926066 190.82375 
L 235.907316 190.82375 
z
" style="fill: #f7f9fc; opacity: 0.8; stroke: #c7ced8; stroke-width: 0.6; stroke-linejoin: miter"/>
    </g>
    <g id="line2d_94">
     <path d="M 242.907316 203.561562 
L 256.907316 203.561562 
L 270.907316 203.561562 
" style="fill: none; stroke: #0072b2; stroke-width: 2; stroke-linecap: round"/>
     <g>
      <use xlink:href="#mcd8686ea63" x="256.907316" y="203.561562" style="fill-opacity: 0; stroke: #0072b2"/>
     </g>
    </g>
    <g id="text_23">
     <text style="font: 14px 'Times New Roman', 'Times', 'DejaVu Serif', serif; text-anchor: start" x="282.107316" y="208.461562" transform="rotate(-0 282.107316 208.461562)">HO-MAPPO with SC (k=2,M=20)</text>
    </g>
    <g id="line2d_95">
     <path d="M 242.907316 224.110937 
L 256.907316 224.110937 
L 270.907316 224.110937 
" style="fill: none; stroke: #d55e00; stroke-width: 2; stroke-linecap: round"/>
     <g>
      <use xlink:href="#m0025c773f0" x="256.907316" y="224.110937" style="fill-opacity: 0; stroke: #d55e00; stroke-linejoin: miter"/>
     </g>
    </g>
    <g id="text_24">
     <text style="font: 14px 'Times New Roman', 'Times', 'DejaVu Serif', serif; text-anchor: start" x="282.107316" y="229.010937" transform="rotate(-0 282.107316 229.010937)">HO-MAPPO with SC (k=3,M=20)</text>
    </g>
    <g id="line2d_96">
     <path d="M 242.907316 244.660312 
L 256.907316 244.660312 
L 270.907316 244.660312 
" style="fill: none; stroke: #009e73; stroke-width: 2; stroke-linecap: round"/>
     <g>
      <use xlink:href="#m754fa5dd7e" x="256.907316" y="244.660312" style="fill-opacity: 0; stroke: #009e73; stroke-linejoin: miter"/>
     </g>
    </g>
    <g id="text_25">
     <text style="font: 14px 'Times New Roman', 'Times', 'DejaVu Serif', serif; text-anchor: start" x="282.107316" y="249.560312" transform="rotate(-0 282.107316 249.560312)">HO-MAPPO with SC (k=4,M=20)</text>
    </g>
    <g id="line2d_97">
     <path d="M 242.907316 265.209687 
L 256.907316 265.209687 
L 270.907316 265.209687 
" style="fill: none; stroke: #cc79a7; stroke-width: 2; stroke-linecap: round"/>
     <g>
      <use xlink:href="#m5a3e4d4d0b" x="256.907316" y="265.209687" style="fill-opacity: 0; stroke: #cc79a7; stroke-linejoin: miter"/>
     </g>
    </g>
    <g id="text_26">
     <text style="font: 14px 'Times New Roman', 'Times', 'DejaVu Serif', serif; text-anchor: start" x="282.107316" y="270.109687" transform="rotate(-0 282.107316 270.109687)">DH-MAPPO with SC (k=2,M=20)</text>
    </g>
    <g id="line2d_98">
     <path d="M 242.907316 285.759062 
L 256.907316 285.759062 
L 270.907316 285.759062 
" style="fill: none; stroke: #e69f00; stroke-width: 2; stroke-linecap: round"/>
     <g>
      <use xlink:href="#mafdec53489" x="256.907316" y="285.759062" style="fill-opacity: 0; stroke: #e69f00; stroke-linejoin: miter"/>
     </g>
    </g>
    <g id="text_27">
     <text style="font: 14px 'Times New Roman', 'Times', 'DejaVu Serif', serif; text-anchor: start" x="282.107316" y="290.659062" transform="rotate(-0 282.107316 290.659062)">DH-MAPPO with SC (k=3,M=20)</text>
    </g>
    <g id="line2d_99">
     <path d="M 242.907316 306.308437 
L 256.907316 306.308437 
L 270.907316 306.308437 
" style="fill: none; stroke: #56b4e9; stroke-width: 2; stroke-linecap: round"/>
     <g>
      <use xlink:href="#mb5bdcb0dcb" x="256.907316" y="306.308437" style="fill-opacity: 0; stroke: #56b4e9; stroke-linejoin: miter"/>
     </g>
    </g>
    <g id="text_28">
     <text style="font: 14px 'Times New Roman', 'Times', 'DejaVu Serif', serif; text-anchor: start" x="282.107316" y="311.208437" transform="rotate(-0 282.107316 311.208437)">DH-MAPPO with SC (k=4,M=20)</text>
    </g>
   </g>
  </g>
 </g>
 <defs>
  <clipPath id="p0346823cbc">
   <rect x="77.478125" y="1.44" width="455.447941" height="326.68"/>
  </clipPath>
 </defs>
</svg>
